<?xml version="1.0" encoding="UTF-8" standalone="no"?>
<svg
   xmlns:dc="http://purl.org/dc/elements/1.1/"
   xmlns:cc="http://creativecommons.org/ns#"
   xmlns:rdf="http://www.w3.org/1999/02/22-rdf-syntax-ns#"
   xmlns:svg="http://www.w3.org/2000/svg"
   xmlns="http://www.w3.org/2000/svg"
   xmlns:sodipodi="http://sodipodi.sourceforge.net/DTD/sodipodi-0.dtd"
   xmlns:inkscape="http://www.inkscape.org/namespaces/inkscape"
   xml:space="preserve"
   enable-background="new 0 0 612 792"
   viewBox="0 0 32 32"
   height="32"
   width="32"
   y="0px"
   x="0px"
   id="Layer_1"
   version="1.1"
   sodipodi:docname="eclipse.svg"
   inkscape:version="0.92.4 5da689c313, 2019-01-14"><sodipodi:namedview
     pagecolor="#ffffff"
     bordercolor="#666666"
     borderopacity="1"
     objecttolerance="10"
     gridtolerance="10"
     guidetolerance="10"
     inkscape:pageopacity="0"
     inkscape:pageshadow="2"
     inkscape:window-width="640"
     inkscape:window-height="480"
     id="namedview30"
     showgrid="false"
     inkscape:zoom="11.328125"
     inkscape:cx="31.074441"
     inkscape:cy="11.962064"
     inkscape:current-layer="Layer_1" /><metadata
     id="metadata68"><rdf:RDF><cc:Work
         rdf:about=""><dc:format>image/svg+xml</dc:format><dc:type
           rdf:resource="http://purl.org/dc/dcmitype/StillImage" /><dc:title></dc:title></cc:Work></rdf:RDF></metadata><defs
     id="defs66" /><g
     transform="matrix(0.29304029,0,0,0.29304029,-20.826373,-95.01216)"
     id="g899"><path
       style="fill:#2c2255"
       d="M 101.124,392.936 H 84.38 c 2.217,7.605 6.331,14.421 12.354,20.445 9.602,9.603 21.148,14.398 34.65,14.398 2.699,0 5.314,-0.201 7.854,-0.584 10.17,-1.535 19.074,-6.133 26.703,-13.814 6.062,-6.022 10.205,-12.84 12.439,-20.445 h -6.795 -9.936 z"
       id="path2" /><g
       id="g8"><path
         style="fill:#2c2255"
         d="m 91.891,370.194 h -8.747 c -0.32,1.922 -0.538,3.884 -0.637,5.896 h 10.396 5.215 75.275 6.871 c -0.1,-2.012 -0.318,-3.974 -0.641,-5.896"
         id="path4" /><path
         style="fill:#2c2255"
         d="m 82.507,381.565 c 0.099,2.013 0.316,3.975 0.637,5.896 h 9.094 6.893 73.648 6.846 c 0.322,-1.921 0.542,-3.883 0.642,-5.896"
         id="path6" /></g><path
       style="fill:#2c2255"
       d="m 178.382,364.718 c -2.232,-7.626 -6.376,-14.474 -12.441,-20.54 -7.609,-7.609 -16.488,-12.174 -26.625,-13.71 -2.564,-0.389 -5.205,-0.593 -7.932,-0.593 -13.502,0 -25.049,4.769 -34.65,14.303 -6.025,6.066 -10.141,12.914 -12.357,20.54"
       id="path10" /><g
       id="g14"><path
         style="fill:#f7941e"
         d="m 79.6,378.829 c 0,-25.824 19.395,-47.281 44.626,-51.055 -0.626,-0.023 -1.255,-0.048 -1.887,-0.048 -28.314,0 -51.269,22.88 -51.269,51.103 0,28.224 22.954,51.103 51.269,51.103 0.634,0 1.263,-0.024 1.891,-0.047 C 98.995,426.111 79.6,404.654 79.6,378.829 Z"
         id="path12" /></g><g
       id="g53"><linearGradient
         id="SVGID_1_"
         gradientUnits="userSpaceOnUse"
         x1="131.3853"
         y1="358.5762"
         x2="131.3853"
         y2="432.21109"
         gradientTransform="matrix(1,0,0,-1,0,793)"><stop
           offset="0.3033"
           style="stop-color:#473788"
           id="stop32" /><stop
           offset="0.872"
           style="stop-color:#2C2255"
           id="stop34" /></linearGradient><path
         style="fill:url(#SVGID_1_)"
         d="m 164.653,376.089 c -0.164,-2.021 -0.504,-3.992 -1.012,-5.896 h -64.51 c -0.508,1.903 -0.849,3.874 -1.013,5.896 z"
         id="path37" /><linearGradient
         id="SVGID_2_"
         gradientUnits="userSpaceOnUse"
         x1="131.3853"
         y1="358.5752"
         x2="131.3853"
         y2="432.21011"
         gradientTransform="matrix(1,0,0,-1,0,793)"><stop
           offset="0.3033"
           style="stop-color:#473788"
           id="stop39" /><stop
           offset="0.872"
           style="stop-color:#2C2255"
           id="stop41" /></linearGradient><path
         style="fill:url(#SVGID_2_)"
         d="M 164.653,381.565 H 98.119 c 0.164,2.021 0.503,3.992 1.012,5.896 h 64.511 c 0.508,-1.904 0.847,-3.875 1.011,-5.896 z"
         id="path44" /><linearGradient
         id="SVGID_3_"
         gradientUnits="userSpaceOnUse"
         x1="131.3853"
         y1="358.57709"
         x2="131.3853"
         y2="432.2084"
         gradientTransform="matrix(1,0,0,-1,0,793)"><stop
           offset="0.3033"
           style="stop-color:#473788"
           id="stop46" /><stop
           offset="0.8631"
           style="stop-color:#2C2255"
           id="stop48" /></linearGradient><path
         style="fill:url(#SVGID_3_)"
         d="m 131.386,412.217 c 13.397,0 24.945,-7.893 30.263,-19.281 h -60.526 c 5.318,11.388 16.866,19.281 30.263,19.281 z"
         id="path51" /></g><g
       id="g61"><path
         style="fill:#ffffff"
         d="m 93.188,381.565 h 4.884 66.706 8.763 6.657 c 0.046,-0.871 0.072,-1.748 0.072,-2.631 0,-0.955 -0.035,-1.902 -0.089,-2.845 H 173.54 164.777 98.071 92.842 82.507 c -0.054,0.942 -0.089,1.89 -0.089,2.845 0,0.883 0.026,1.76 0.072,2.631 z"
         id="path55" /><path
         style="fill:#ffffff"
         d="M 100.928,364.718 H 84.376 c -0.544,1.783 -0.895,3.612 -1.232,5.476 h 8.525 7.259 64.679 9.16 6.547 c -0.338,-1.863 -0.773,-3.692 -1.316,-5.476"
         id="path57" /><path
         style="fill:#ffffff"
         d="m 173.026,387.46 h -9.16 -64.678 -6.912 -9.133 c 0.328,1.863 0.701,3.691 1.236,5.476 h 16.807 60.682 9.962 6.488 c 0.534,-1.784 0.965,-3.612 1.294,-5.476 z"
         id="path59" /></g></g></svg>