<?xml version="1.0" encoding="UTF-8" standalone="no"?>
<svg
   xmlns:dc="http://purl.org/dc/elements/1.1/"
   xmlns:cc="http://creativecommons.org/ns#"
   xmlns:rdf="http://www.w3.org/1999/02/22-rdf-syntax-ns#"
   xmlns:svg="http://www.w3.org/2000/svg"
   xmlns="http://www.w3.org/2000/svg"
   xmlns:sodipodi="http://sodipodi.sourceforge.net/DTD/sodipodi-0.dtd"
   xmlns:inkscape="http://www.inkscape.org/namespaces/inkscape"
   width="32"
   height="32"
   viewBox="0 0 32 32"
   version="1.1"
   id="svg39"
   sodipodi:docname="filezilla.svg"
   inkscape:version="0.92.4 5da689c313, 2019-01-14">
  <metadata
     id="metadata43">
    <rdf:RDF>
      <cc:Work
         rdf:about="">
        <dc:format>image/svg+xml</dc:format>
        <dc:type
           rdf:resource="http://purl.org/dc/dcmitype/StillImage" />
        <dc:title></dc:title>
      </cc:Work>
    </rdf:RDF>
  </metadata>
  <sodipodi:namedview
     pagecolor="#ffffff"
     bordercolor="#666666"
     borderopacity="1"
     objecttolerance="10"
     gridtolerance="10"
     guidetolerance="10"
     inkscape:pageopacity="0"
     inkscape:pageshadow="2"
     inkscape:window-width="640"
     inkscape:window-height="480"
     id="namedview41"
     showgrid="false"
     fit-margin-top="0"
     fit-margin-left="0"
     fit-margin-right="0"
     fit-margin-bottom="0"
     inkscape:zoom="3.2409061"
     inkscape:cx="15.598804"
     inkscape:cy="7.2413854"
     inkscape:current-layer="svg39" />
  <defs
     id="defs17">
    <linearGradient
       id="a"
       y1="32"
       y2="16"
       x2="0"
       gradientUnits="userSpaceOnUse"
       gradientTransform="translate(384.57,504.8)">
      <stop
         stop-color="#f7abb2"
         id="stop2" />
      <stop
         offset="1"
         stop-color="#f9dce0"
         id="stop4" />
    </linearGradient>
    <linearGradient
       id="b"
       y1="17"
       x1="18"
       y2="32"
       x2="33"
       gradientUnits="userSpaceOnUse"
       gradientTransform="translate(0,5)">
      <stop
         stop-color="#383e51"
         id="stop7" />
      <stop
         offset="1"
         stop-color="#655c6f"
         stop-opacity="0"
         id="stop9" />
    </linearGradient>
    <linearGradient
       id="c"
       y1="543.79999"
       y2="509.79999"
       gradientUnits="userSpaceOnUse"
       x2="0"
       gradientTransform="matrix(-1,0,0,1,817.14,0)">
      <stop
         stop-color="#c61423"
         id="stop12" />
      <stop
         offset="1"
         stop-color="#dc2b41"
         id="stop14" />
    </linearGradient>
  </defs>
  <g
     transform="matrix(0.66666656,0,0,0.66666656,-256.37996,-333.19994)"
     id="g37">
    <path
       style="fill:#a8202e"
       inkscape:connector-curvature="0"
       d="m 432.57,503.8 v 10 h -48 v -4 h 17 l 6,-6 z"
       id="path19" />
    <path
       inkscape:connector-curvature="0"
       style="fill:url(#c)"
       d="m 432.57,513.8 h -48 v 30 h 48 z"
       id="path21" />
    <rect
       style="fill:#a8202e"
       width="48"
       x="-432.57001"
       y="542.79999"
       height="1"
       transform="scale(-1,1)"
       id="rect23" />
    <g
       style="fill-rule:evenodd"
       id="g33">
      <path
         style="fill:#5f5f5f;fill-opacity:0.11799999"
         inkscape:connector-curvature="0"
         d="m 432.57,503.8 v 10 h -48 v -4 h 23 z"
         id="path25" />
      <path
         style="fill:#ffffff;fill-opacity:0.05899999"
         inkscape:connector-curvature="0"
         d="m 432.57,503.8 -20,1 -11,6 -17,-1 h 17 l 6,-6 z"
         id="path27" />
      <path
         inkscape:connector-curvature="0"
         style="opacity:0.2;fill:url(#b)"
         d="m 30,21 -9,3 -1,5 -4,6 9,9 h 23 v -5 l -7,-7 z"
         transform="translate(384.57,499.8)"
         id="path29" />
      <path
         inkscape:connector-curvature="0"
         style="fill:url(#a)"
         d="m 403.57,520.8 -3,14 h 3 l 1.301,-6 h 7.365 l -6.666,6 2,2 c 3,-2 6,1.6 9,-1.4 l -0.6,-2.401 -0.9,0.701 c -1.359,0.781 -2.475,-0.098 -4.061,-0.34 l 4.561,-4.561 1,-3 h -11 l 0.5,-2 h 7.5 l 1,-3 z"
         id="path31" />
    </g>
    <path
       style="fill:#bc2233"
       inkscape:connector-curvature="0"
       d="m 384.57,513.8 h 48 v 1 h -48 z"
       id="path35" />
  </g>
</svg>
