<?xml version="1.0" encoding="UTF-8" standalone="no"?>
<svg
   xmlns:dc="http://purl.org/dc/elements/1.1/"
   xmlns:cc="http://creativecommons.org/ns#"
   xmlns:rdf="http://www.w3.org/1999/02/22-rdf-syntax-ns#"
   xmlns:svg="http://www.w3.org/2000/svg"
   xmlns="http://www.w3.org/2000/svg"
   xmlns:xlink="http://www.w3.org/1999/xlink"
   xmlns:sodipodi="http://sodipodi.sourceforge.net/DTD/sodipodi-0.dtd"
   xmlns:inkscape="http://www.inkscape.org/namespaces/inkscape"
   width="32"
   height="32"
   version="1.1"
   id="svg54"
   sodipodi:docname="kdevelop.svg"
   inkscape:version="0.92.4 5da689c313, 2019-01-14">
  <metadata
     id="metadata58">
    <rdf:RDF>
      <cc:Work
         rdf:about="">
        <dc:format>image/svg+xml</dc:format>
        <dc:type
           rdf:resource="http://purl.org/dc/dcmitype/StillImage" />
        <dc:title></dc:title>
      </cc:Work>
    </rdf:RDF>
  </metadata>
  <sodipodi:namedview
     pagecolor="#ffffff"
     bordercolor="#666666"
     borderopacity="1"
     objecttolerance="10"
     gridtolerance="10"
     guidetolerance="10"
     inkscape:pageopacity="0"
     inkscape:pageshadow="2"
     inkscape:window-width="640"
     inkscape:window-height="480"
     id="namedview56"
     showgrid="false"
     fit-margin-top="0"
     fit-margin-left="0"
     fit-margin-right="0"
     fit-margin-bottom="0"
     inkscape:zoom="7.5520833"
     inkscape:cx="40.173667"
     inkscape:cy="10.845788"
     inkscape:current-layer="svg54" />
  <defs
     id="defs28">
    <linearGradient
       id="a"
       y1="13.444"
       x1="17.030001"
       y2="29.398001"
       x2="34.764"
       gradientUnits="userSpaceOnUse"
       gradientTransform="translate(-53.39,-40.971)">
      <stop
         stop-color="#375a7d"
         id="stop2" />
      <stop
         offset="1"
         stop-color="#377d50"
         id="stop4" />
    </linearGradient>
    <linearGradient
       id="b"
       x1="-44.389999"
       x2="-14.394"
       gradientUnits="userSpaceOnUse"
       gradientTransform="translate(58.788,33.941)">
      <stop
         stop-color="#b0b8b8"
         id="stop7" />
      <stop
         offset="1"
         stop-color="#eff1f1"
         id="stop9" />
    </linearGradient>
    <linearGradient
       id="c"
       y1="-25.452999"
       x1="-42.778999"
       y2="-11.201"
       x2="-18.1"
       gradientUnits="userSpaceOnUse">
      <stop
         stop-color="#338173"
         id="stop12" />
      <stop
         offset="1"
         stop-color="#54d883"
         id="stop14" />
    </linearGradient>
    <linearGradient
       id="d"
       x1="13.864"
       x2="27.049999"
       gradientUnits="userSpaceOnUse">
      <stop
         stop-color="#7ceca4"
         id="stop17" />
      <stop
         offset="1"
         stop-color="#e5fbf7"
         id="stop19" />
    </linearGradient>
    <linearGradient
       id="e"
       y1="23"
       x1="24"
       y2="39"
       x2="40"
       gradientUnits="userSpaceOnUse">
      <stop
         stop-color="#292c2f"
         id="stop22" />
      <stop
         offset="1"
         stop-opacity="0"
         id="stop24" />
    </linearGradient>
    <linearGradient
       xlink:href="#b"
       id="f"
       y1="15.778"
       x1="3.2420001"
       y2="37"
       x2="40"
       gradientUnits="userSpaceOnUse"
       gradientTransform="matrix(-0.96593,-0.25882,0.25882,-0.96593,40.971,53.39)" />
    <linearGradient
       inkscape:collect="always"
       xlink:href="#b"
       id="linearGradient77"
       gradientUnits="userSpaceOnUse"
       gradientTransform="translate(58.788,33.941)"
       x1="-44.389999"
       x2="-14.394" />
  </defs>
  <g
     id="g75"
     transform="scale(0.66666667)">
    <rect
       y="0"
       x="0"
       height="48"
       width="48"
       id="rect60"
       style="opacity:0.7;fill:none;fill-opacity:1;stroke:none;stroke-width:5.82410002;stroke-linejoin:miter;stroke-miterlimit:4;stroke-dasharray:none;stroke-dashoffset:0;stroke-opacity:1;paint-order:normal" />
    <g
       id="g50"
       style="color:#000000">
      <g
         id="g34"
         style="stroke-width:3;stroke-linejoin:round">
        <circle
           id="circle30"
           transform="rotate(15)"
           r="15"
           cy="16.971001"
           cx="29.393999"
           style="fill:url(#linearGradient77);stroke-linecap:round" />
        <path
           id="path32"
           d="m 21.951885,43.88376 a 20,20 0 0 0 4.097059,0.0059 l 0.475,-3.1 a 17,17 0 0 0 3.687344,-0.985474 l 1.956,2.441 a 20,20 0 0 0 3.54897,-2.053782 l -1.135,-2.911 a 17,17 0 0 0 2.709819,-2.695171 l 2.893,1.127 a 20,20 0 0 0 2.050081,-3.553369 l -2.422,-1.941 a 17,17 0 0 0 0.608591,-1.818511 17,17 0 0 0 0.369366,-1.876546 l 3.094,-0.475 a 20,20 0 0 0 0.0059,-4.097059 l -3.1,-0.475 a 17,17 0 0 0 -0.985474,-3.687344 l 2.441,-1.956 a 20,20 0 0 0 -2.053782,-3.54897 l -2.911,1.135 a 17,17 0 0 0 -2.694886,-2.70962 L 35.713,7.816 A 20,20 0 0 0 32.15947,5.765905 L 30.22,8.188 A 17,17 0 0 0 28.399924,7.579261 17,17 0 0 0 26.523378,7.209895 L 26.05,4.116 A 20,20 0 0 0 21.952942,4.11009 L 21.476,7.21 A 17,17 0 0 0 17.788962,8.195745 L 15.833,5.755 a 20,20 0 0 0 -3.54897,2.053784 l 1.135,2.911 a 17,17 0 0 0 -2.709819,2.695171 L 7.816,12.287 a 20,20 0 0 0 -2.050081,3.553369 l 2.422,1.941 A 17,17 0 0 0 7.579328,19.59988 17,17 0 0 0 7.209962,21.476426 l -3.094,0.475 a 20,20 0 0 0 -0.00591,4.097058 l 3.1,0.475 a 17,17 0 0 0 0.985475,3.687344 l -2.441,1.956 a 20,20 0 0 0 2.053784,3.54897 l 2.911,-1.135 a 17,17 0 0 0 2.695171,2.709819 l -1.127,2.893 a 20,20 0 0 0 3.553369,2.050081 l 1.941,-2.422 a 17,17 0 0 0 1.818511,0.608591 17,17 0 0 0 1.876546,0.369366 z m -1.575352,-6.360798 a 14,14 0 0 1 -9.899495,-17.14643 14,14 0 0 1 17.14643,-9.899495 14,14 0 0 1 9.899495,17.14643 14,14 0 0 1 -17.14643,9.899495"
           style="fill:url(#f)"
           inkscape:connector-curvature="0" />
      </g>
      <path
         id="path36"
         d="M 33.19,14.807 14.803,33.194 25.539,43.928 c 0.169,-0.013 0.338,-0.02 0.506,-0.037 l 0.475,-3.102 c 1.262,-0.189 2.499,-0.519 3.688,-0.984 l 1.957,2.441 c 1.25,-0.561 2.439,-1.25 3.549,-2.055 l -1.135,-2.91 c 1,-0.794 1.91,-1.698 2.709,-2.695 l 2.893,1.127 c 0.803,-1.111 1.491,-2.301 2.051,-3.553 L 39.81,30.219 c 0.237,-0.594 0.439,-1.201 0.607,-1.818 0.158,-0.618 0.283,-1.245 0.371,-1.877 l 3.092,-0.475 c 0.018,-0.17 0.028,-0.34 0.041,-0.51 z"
         style="opacity:0.2;color-interpolation:sRGB;color-interpolation-filters:linearRGB;fill:url(#e);fill-rule:evenodd;color-rendering:auto;image-rendering:auto;shape-rendering:auto;text-rendering:auto"
         inkscape:connector-curvature="0" />
      <g
         id="g48"
         style="stroke-width:3;stroke-linejoin:round">
        <path
           id="path38"
           d="m 41.883,15.12 -2.078,1.666 c 0.096,0.259 0.186,0.52 0.27,0.783 l 2.172,-1.74 C 42.131,15.59 42.01,15.354 41.884,15.12 M 6.126,15.126 c -0.124,0.235 -0.244,0.472 -0.359,0.711 l 2.154,1.727 C 8.004,17.3 8.093,17.038 8.189,16.779 Z M 4.034,23.487 C 4.005,24.341 4.03,25.195 4.11,26.046 l 3.102,0.475 c 0.152,0.987 0.392,1.959 0.715,2.904 l 0.27,-0.217 C 7.731,28.02 7.401,26.783 7.213,25.52 L 4.111,25.045 C 4.065,24.527 4.04,24.007 4.035,23.486 m 39.934,0.02 c -0.008,0.514 -0.036,1.027 -0.084,1.539 l -3.092,0.475 c -0.088,0.632 -0.212,1.259 -0.371,1.877 -0.168,0.617 -0.371,1.224 -0.607,1.818 l 0.268,0.215 c 0.124,-0.341 0.238,-0.685 0.34,-1.033 0.159,-0.618 0.283,-1.245 0.371,-1.877 l 3.092,-0.475 c 0.082,-0.844 0.11,-1.692 0.084,-2.539 m -2.092,8.361 c -0.484,0.992 -1.05,1.943 -1.691,2.842 l -2.893,-1.127 c -0.799,0.997 -1.708,1.902 -2.709,2.695 l 0.291,0.744 c 0.886,-0.729 1.696,-1.547 2.418,-2.439 l 2.893,1.127 c 0.804,-1.111 1.491,-2.301 2.051,-3.553 z M 6.12,31.873 5.757,32.164 c 0.561,1.25 1.25,2.439 2.055,3.549 l 2.91,-1.135 c 0.715,0.901 1.519,1.728 2.4,2.467 l 0.295,-0.758 C 12.42,35.488 11.515,34.579 10.722,33.578 l -2.91,1.135 C 7.171,33.815 6.605,32.865 6.121,31.873 m 24.09,6.928 c -1.188,0.465 -2.425,0.796 -3.688,0.984 l -0.475,3.102 c -1.363,0.138 -2.736,0.135 -4.098,-0.008 L 21.475,39.787 C 20.843,39.699 20.216,39.575 19.598,39.416 18.981,39.248 18.374,39.045 17.78,38.809 l -1.941,2.422 c -1.136,-0.513 -2.221,-1.132 -3.242,-1.848 l -0.311,0.797 c 1.111,0.804 2.301,1.491 3.553,2.051 l 1.941,-2.422 c 0.594,0.237 1.201,0.439 1.818,0.607 0.618,0.159 1.245,0.283 1.877,0.371 l 0.475,3.092 c 1.362,0.143 2.735,0.145 4.098,0.008 l 0.475,-3.102 c 1.262,-0.189 2.499,-0.519 3.688,-0.984 l 1.957,2.441 c 1.25,-0.561 2.439,-1.25 3.549,-2.055 l -0.311,-0.795 c -1.019,0.716 -2.104,1.335 -3.238,1.85 z"
           inkscape:connector-curvature="0"
           style="opacity:0.2;fill:#172525" />
        <g
           id="g44"
           style="stroke-linecap:round">
          <circle
             id="circle40"
             transform="matrix(-0.96593,-0.25882,0.25882,-0.96593,0,0)"
             r="13"
             cy="-16.971001"
             cx="-29.393999"
             style="fill:url(#a)" />
          <circle
             id="circle42"
             transform="matrix(-0.96593,-0.25882,0.25882,-0.96593,0,0)"
             r="12"
             cy="-16.971001"
             cx="-29.393999"
             style="fill:url(#c)" />
        </g>
        <path
           id="path46"
           d="m 24.17,24.21 c 2.858,3.724 3.309,8.175 1.01,9.942 -2.302,1.766 -6.965,0.288 -9.823,-3.437 -2.858,-3.724 -2.828,-8.284 -0.526,-10.05 2.302,-1.766 6.484,-0.179 9.342,3.546"
           style="fill:url(#d)"
           inkscape:connector-curvature="0" />
      </g>
    </g>
    <path
       id="path52"
       d="m 15,28 4,4 2,-6 z"
       inkscape:connector-curvature="0"
       style="fill:#334545;fill-rule:evenodd" />
  </g>
</svg>
