<?xml version="1.0" encoding="UTF-8" standalone="no"?>
<svg
   xmlns:dc="http://purl.org/dc/elements/1.1/"
   xmlns:cc="http://creativecommons.org/ns#"
   xmlns:rdf="http://www.w3.org/1999/02/22-rdf-syntax-ns#"
   xmlns:svg="http://www.w3.org/2000/svg"
   xmlns="http://www.w3.org/2000/svg"
   xmlns:xlink="http://www.w3.org/1999/xlink"
   xmlns:sodipodi="http://sodipodi.sourceforge.net/DTD/sodipodi-0.dtd"
   xmlns:inkscape="http://www.inkscape.org/namespaces/inkscape"
   width="32"
   height="32"
   version="1.1"
   id="svg59"
   sodipodi:docname="lokalize.svg"
   inkscape:version="0.92.4 5da689c313, 2019-01-14">
  <metadata
     id="metadata63">
    <rdf:RDF>
      <cc:Work
         rdf:about="">
        <dc:format>image/svg+xml</dc:format>
        <dc:type
           rdf:resource="http://purl.org/dc/dcmitype/StillImage" />
        <dc:title />
      </cc:Work>
    </rdf:RDF>
  </metadata>
  <sodipodi:namedview
     pagecolor="#ffffff"
     bordercolor="#666666"
     borderopacity="1"
     objecttolerance="10"
     gridtolerance="10"
     guidetolerance="10"
     inkscape:pageopacity="0"
     inkscape:pageshadow="2"
     inkscape:window-width="1032"
     inkscape:window-height="719"
     id="namedview61"
     showgrid="false"
     fit-margin-top="0"
     fit-margin-left="0"
     fit-margin-right="0"
     fit-margin-bottom="0"
     inkscape:zoom="4.9166667"
     inkscape:cx="18.542373"
     inkscape:cy="18.549646"
     inkscape:window-x="0"
     inkscape:window-y="0"
     inkscape:window-maximized="0"
     inkscape:current-layer="svg59" />
  <defs
     id="defs19">
    <linearGradient
       id="a"
       y1="22"
       y2="8"
       x2="0"
       gradientUnits="userSpaceOnUse"
       gradientTransform="translate(429.57,508.8)">
      <stop
         stop-color="#2e3436"
         id="stop2" />
      <stop
         offset="1"
         stop-color="#555753"
         id="stop4" />
    </linearGradient>
    <linearGradient
       id="b"
       y1="543.79999"
       y2="502.66"
       gradientUnits="userSpaceOnUse"
       x2="0"
       gradientTransform="matrix(0.66667,0,0,0.63518,139.19,192.52)">
      <stop
         stop-color="#c6cdd1"
         id="stop7" />
      <stop
         offset="1"
         stop-color="#e0e5e7"
         id="stop9" />
    </linearGradient>
    <linearGradient
       id="c"
       y1="529.79999"
       x1="400.57001"
       y2="548.79999"
       gradientUnits="userSpaceOnUse"
       x2="418.57001"
       gradientTransform="translate(11,-6)">
      <stop
         id="stop12" />
      <stop
         offset="1"
         stop-opacity="0"
         id="stop14" />
    </linearGradient>
    <linearGradient
       inkscape:collect="always"
       xlink:href="#b"
       id="linearGradient4614"
       gradientUnits="userSpaceOnUse"
       gradientTransform="matrix(0.66667,0,0,0.63518,124.19,185.52)"
       y1="543.79999"
       x2="0"
       y2="502.66" />
    <linearGradient
       inkscape:collect="always"
       xlink:href="#b"
       id="linearGradient4616"
       gradientUnits="userSpaceOnUse"
       gradientTransform="matrix(0.66667,0,0,0.63518,139.19,192.52)"
       y1="543.79999"
       x2="0"
       y2="502.66" />
    <linearGradient
       inkscape:collect="always"
       xlink:href="#c"
       id="linearGradient4618"
       gradientUnits="userSpaceOnUse"
       gradientTransform="translate(11,-6)"
       x1="400.57001"
       y1="529.79999"
       x2="418.57001"
       y2="548.79999" />
    <linearGradient
       inkscape:collect="always"
       xlink:href="#a"
       id="linearGradient4620"
       gradientUnits="userSpaceOnUse"
       gradientTransform="translate(429.57,508.8)"
       y1="22"
       x2="0"
       y2="8" />
    <linearGradient
       inkscape:collect="always"
       xlink:href="#c"
       id="linearGradient4622"
       gradientUnits="userSpaceOnUse"
       gradientTransform="translate(11,-7)"
       x1="388.57001"
       y1="523.79999"
       x2="400.57001"
       y2="538.79999" />
  </defs>
  <g
     id="g4612"
     transform="matrix(0.66666667,0,0,0.66666667,-256.71334,-334.19999)">
    <rect
       id="rect4576"
       height="28"
       rx="0"
       y="504.79999"
       x="392.57001"
       width="20"
       style="fill:url(#linearGradient4614)" />
    <rect
       id="rect4578"
       height="4"
       y="504.79999"
       x="392.57001"
       width="20"
       style="fill:#566069" />
    <rect
       id="rect4580"
       height="1"
       y="508.79999"
       x="392.57001"
       width="20"
       style="fill:#3daee9" />
    <rect
       id="rect4582"
       height="21"
       y="509.79999"
       x="394.57001"
       width="18"
       style="fill:#ffffff" />
    <path
       id="path4584"
       d="m 412.57,504.8 -5,7 v 4 l 5,-7 z"
       inkscape:connector-curvature="0"
       style="fill:#464e55" />
    <g
       id="g4590"
       style="color:#000000;color-interpolation:sRGB;color-interpolation-filters:linearRGB;color-rendering:auto;image-rendering:auto;shape-rendering:auto;text-rendering:auto">
      <path
         id="path4586"
         d="m 412.57,508.8 -5,7 v 1 l 5,-7 z"
         inkscape:connector-curvature="0"
         style="fill:#1583bd" />
      <path
         id="path4588"
         d="m 412.57,509.8 -5,7 v 1 l 5,-7 z"
         inkscape:connector-curvature="0"
         style="fill:#a1aeb4" />
    </g>
    <rect
       id="rect4592"
       height="28"
       rx="0"
       y="511.79999"
       x="407.57001"
       width="20"
       style="fill:url(#linearGradient4616)" />
    <rect
       id="rect4594"
       height="4"
       y="511.79999"
       x="407.57001"
       width="20"
       style="fill:#566069" />
    <rect
       id="rect4596"
       height="1"
       y="515.79999"
       x="407.57001"
       width="20"
       style="fill:#3daee9" />
    <rect
       id="rect4598"
       height="21"
       y="516.79999"
       x="407.57001"
       width="18"
       style="fill:#ffffff" />
    <path
       id="path4600"
       d="m 417.57,522.8 1,1 h 3 l 6,6 v 10 l -5,-0.039 -8.59,-8.584 2.372,-2.595 -3.782,-3.782 4,-1 z"
       style="color:#000000;opacity:0.11700003;color-interpolation:sRGB;color-interpolation-filters:linearRGB;fill:url(#linearGradient4618);fill-rule:evenodd;color-rendering:auto;image-rendering:auto;shape-rendering:auto;text-rendering:auto"
       inkscape:connector-curvature="0" />
    <rect
       id="rect4602"
       height="2"
       rx="1"
       y="512.79999"
       x="424.57001"
       width="2"
       style="fill:#eff0f1" />
    <rect
       id="rect4604"
       transform="rotate(90)"
       height="2"
       width="41"
       y="-392.57001"
       x="504.79999"
       style="color:#000000;color-interpolation:sRGB;color-interpolation-filters:linearRGB;fill:url(#linearGradient4620);color-rendering:auto;image-rendering:auto;shape-rendering:auto;text-rendering:auto" />
    <path
       id="path4606"
       d="m 416.57,522.8 v 1 h -4 v 1 h 6.125 v 0.25 c 0,0.226 -0.141,0.768 -0.299,1.143 -0.174,0.414 -0.556,0.977 -0.926,1.365 l -0.307,0.32 -0.221,-0.24 c -0.302,-0.33 -0.752,-1.01 -0.92,-1.391 l -0.141,-0.314 h -1.205 l 0.125,0.303 c 0.234,0.568 0.749,1.348 1.244,1.883 0.44,0.476 0.454,0.38 -0.113,0.801 -0.851,0.632 -1.508,1.016 -2.256,1.32 l -0.404,0.164 0.707,0.773 0.27,-0.135 c 0.834,-0.417 1.801,-1.031 2.488,-1.578 l 0.385,-0.305 0.293,0.238 c 0.14,0.113 0.36,0.276 0.531,0.4 0.026,0.019 0.059,0.046 0.082,0.063 0.161,0.114 0.236,0.167 0.275,0.178 0.564,0.386 1.164,0.766 1.738,1.053 l 0.283,0.141 0.369,-0.406 0.371,-0.404 -0.424,-0.172 c -0.682,-0.278 -1.313,-0.652 -2.049,-1.174 -0.062,-0.051 -0.142,-0.114 -0.314,-0.236 -0.228,-0.162 -0.414,-0.311 -0.414,-0.332 0,-0.021 0.13,-0.181 0.291,-0.355 0.867,-0.942 1.39,-1.902 1.535,-2.814 l 0.072,-0.537 h 1.807 v -1 h -4 v -1 z"
       inkscape:connector-curvature="0"
       style="fill:#555753" />
    <path
       id="path4608"
       d="m 402.63,515.81 4.988,4.988 -0.05,12 h -0.254 l -8.973,-8.973 3.06,-8.01 z"
       style="color:#000000;opacity:0.11700003;color-interpolation:sRGB;color-interpolation-filters:linearRGB;fill:url(#linearGradient4622);fill-rule:evenodd;color-rendering:auto;image-rendering:auto;shape-rendering:auto;text-rendering:auto"
       inkscape:connector-curvature="0" />
    <path
       id="path4610"
       d="m 402.02,516.88 -1.444,3.922 h 2.885 z m -0.612,-1.068 h 1.229 l 3.055,8.01 h -1.127 l -0.726,-2.025 -3.617,0.004 -0.73,2.02 h -1.143 z"
       inkscape:connector-curvature="0"
       style="fill:#555753" />
  </g>
</svg>
