<?xml version="1.0" encoding="UTF-8" standalone="no"?>
<svg
   xmlns:dc="http://purl.org/dc/elements/1.1/"
   xmlns:cc="http://creativecommons.org/ns#"
   xmlns:rdf="http://www.w3.org/1999/02/22-rdf-syntax-ns#"
   xmlns:svg="http://www.w3.org/2000/svg"
   xmlns="http://www.w3.org/2000/svg"
   xmlns:sodipodi="http://sodipodi.sourceforge.net/DTD/sodipodi-0.dtd"
   xmlns:inkscape="http://www.inkscape.org/namespaces/inkscape"
   width="32.0px"
   height="32.0px"
   viewBox="0 0 32.0 32.0"
   version="1.1"
   id="SVGRoot"
   sodipodi:docname="musescore.svg"
   inkscape:version="1.0.1 (3bc2e813f5, 2020-09-07)">
  <defs
     id="defs34">
    <linearGradient
       id="paint0_linear"
       x1="239.48399"
       y1="-58.026699"
       x2="1107.04"
       y2="1029.03"
       gradientUnits="userSpaceOnUse">
      <stop
         stop-color="#208EBB"
         id="stop10" />
      <stop
         offset="1"
         stop-color="#2162B2"
         id="stop12" />
    </linearGradient>
  </defs>
  <sodipodi:namedview
     id="base"
     pagecolor="#ffffff"
     bordercolor="#666666"
     borderopacity="1.0"
     inkscape:pageopacity="0.0"
     inkscape:pageshadow="2"
     inkscape:zoom="5.6568542"
     inkscape:cx="50.351169"
     inkscape:cy="25.223675"
     inkscape:document-units="px"
     inkscape:current-layer="layer1"
     inkscape:document-rotation="0"
     showgrid="true"
     inkscape:window-width="1440"
     inkscape:window-height="829"
     inkscape:window-x="0"
     inkscape:window-y="0"
     inkscape:window-maximized="1">
    <inkscape:grid
       type="xygrid"
       id="grid43" />
  </sodipodi:namedview>
  <metadata
     id="metadata37">
    <rdf:RDF>
      <cc:Work
         rdf:about="">
        <dc:format>image/svg+xml</dc:format>
        <dc:type
           rdf:resource="http://purl.org/dc/dcmitype/StillImage" />
        <dc:title />
      </cc:Work>
    </rdf:RDF>
  </metadata>
  <g
     inkscape:label="Layer 1"
     inkscape:groupmode="layer"
     id="layer1">
    <g
       id="g27"
       transform="matrix(0.02734375,0,0,0.02734375,2,2)">
      <path
         fill-rule="evenodd"
         clip-rule="evenodd"
         d="m 512,1024 c 282.77,0 512,-229.23 512,-512 C 1024,229.23 794.77,0 512,0 229.23,0 0,229.23 0,512 c 0,282.77 229.23,512 512,512 z"
         fill="url(#paint0_linear)"
         id="path2"
         style="fill:url(#paint0_linear)" />
      <path
         d="m 402.927,450.435 c -20.773,-28.727 -61.722,-47.584 -99.879,-47.584 -63.048,0 -121.68,38.732 -121.68,145.021 v 178.196 c 0,12.077 9.797,21.801 21.874,21.801 12.085,0 21.881,-9.797 21.881,-21.801 V 547.872 c -0.022,-80.778 38.959,-101.341 77.925,-101.341 38.966,0 77.933,32.391 77.933,87.057 v 192.48 c 0,12.077 9.796,21.801 21.873,21.801 h 0.095 0.095 c 12.078,0 21.874,-9.724 21.874,-21.801 v -192.48 c 0,-54.666 38.966,-87.057 77.932,-87.057 24.738,0 77.925,10.987 77.925,87.057 l 1.48,64.647 c 0,119.452 80.177,149.634 131.199,149.634 51.022,0 127.453,-35.242 129.012,-140.93 V 437.817 c 0,-29.092 -43.878,-29.092 -43.878,0 v 169.122 c 0,80.177 -59.623,97.255 -85.134,97.255 -25.511,0 -87.466,-12.018 -87.466,-105.959 l -1.458,-61.109 c 0,-90.605 -56.853,-137.919 -121.68,-137.919 -38.157,0 -79.149,22.501 -99.923,51.228 z"
         fill="#ffffff"
         id="path4" />
      <path
         d="m 621.197,340.896 c 0,-43.733 32.209,-91.11 87.903,-91.11 55.694,0 87.795,47.377 87.795,91.11 0,32.8 43.835,32.8 43.835,0 0,-76.533 -57.713,-134.843 -131.63,-134.843 -73.916,0 -131.614,58.31 -131.614,134.843 0.007,32.8 43.711,32.8 43.711,0 z"
         fill="#ffffff"
         id="path6" />
      <path
         d="m 742.185,342.117 c 0,-15.949 -12.916,-28.864 -28.864,-28.864 -15.948,0 -28.864,12.915 -28.864,28.864 0,15.948 12.916,28.863 28.864,28.863 15.948,0 28.864,-12.915 28.864,-28.863 z"
         fill="#ffffff"
         id="path8" />
    </g>
  </g>
</svg>
