<?xml version="1.0" encoding="UTF-8" standalone="no"?>
<!-- Created with Inkscape (http://www.inkscape.org/) -->

<svg
   xmlns:dc="http://purl.org/dc/elements/1.1/"
   xmlns:cc="http://creativecommons.org/ns#"
   xmlns:rdf="http://www.w3.org/1999/02/22-rdf-syntax-ns#"
   xmlns:svg="http://www.w3.org/2000/svg"
   xmlns="http://www.w3.org/2000/svg"
   xmlns:xlink="http://www.w3.org/1999/xlink"
   xmlns:sodipodi="http://sodipodi.sourceforge.net/DTD/sodipodi-0.dtd"
   xmlns:inkscape="http://www.inkscape.org/namespaces/inkscape"
   width="31.999996"
   height="31.999996"
   viewBox="0 0 31.999997 31.999997"
   id="svg3480"
   version="1.1"
   inkscape:version="0.92.4 5da689c313, 2019-01-14"
   sodipodi:docname="network.svg">
  <defs
     id="defs3482">
    <linearGradient
       id="f"
       x1="31.693001"
       x2="0.90355998"
       y1="22.252001"
       y2="4.1311998"
       gradientUnits="userSpaceOnUse"
       xlink:href="#a"
       gradientTransform="matrix(-0.37225763,0,0,0.37225763,353.42393,368.35452)" />
    <linearGradient
       id="a">
      <stop
         stop-color="#fff"
         offset="0"
         id="stop5641" />
      <stop
         stop-color="#e5e5e5"
         offset="1"
         id="stop5643" />
    </linearGradient>
    <radialGradient
       inkscape:collect="always"
       xlink:href="#b"
       id="radialGradient4866"
       gradientUnits="userSpaceOnUse"
       gradientTransform="matrix(-0.33110085,0.07788374,0.06650381,0.28271107,366.4444,363.93807)"
       cx="88.593002"
       cy="33.398998"
       r="7.0056" />
    <radialGradient
       id="b"
       cx="88.593002"
       cy="33.398998"
       r="7.0056"
       gradientTransform="matrix(0.88944,0.20922,-0.17865,0.75945,-34.977,-11.864)"
       gradientUnits="userSpaceOnUse">
      <stop
         stop-color="#cccccd"
         offset="0"
         id="stop5658" />
      <stop
         stop-color="#adadae"
         offset="0"
         id="stop5660" />
      <stop
         stop-color="#8f8f90"
         stop-opacity="0"
         offset="1"
         id="stop5662" />
    </radialGradient>
    <linearGradient
       inkscape:collect="always"
       xlink:href="#e"
       id="linearGradient4864"
       gradientUnits="userSpaceOnUse"
       x1="37.490002"
       y1="31.431"
       x2="42.042"
       y2="38.300999"
       gradientTransform="matrix(-0.37225763,0,0,0.37225763,353.42393,368.35452)" />
    <linearGradient
       id="e"
       x1="37.490002"
       x2="42.042"
       y1="31.431"
       y2="38.300999"
       gradientUnits="userSpaceOnUse">
      <stop
         stop-color="#515152"
         offset="0"
         id="stop5646" />
      <stop
         stop-color="#515152"
         stop-opacity="0"
         offset="1"
         id="stop5648" />
    </linearGradient>
    <linearGradient
       id="d"
       x1="5.0704002"
       x2="35.168999"
       gradientUnits="userSpaceOnUse"
       xlink:href="#a"
       gradientTransform="matrix(-0.37225763,0,0,0.37225763,353.42393,368.35452)" />
    <radialGradient
       inkscape:collect="always"
       xlink:href="#c"
       id="radialGradient4862"
       gradientUnits="userSpaceOnUse"
       gradientTransform="matrix(-1.0247136,0.5354554,0.30936645,0.58960302,362.35442,336.68431)"
       cx="30.204"
       cy="44.564999"
       r="6.566" />
    <radialGradient
       id="c"
       cx="30.204"
       cy="44.564999"
       r="6.566"
       gradientTransform="matrix(1,0,0,0.33846,0,29.482)"
       gradientUnits="userSpaceOnUse">
      <stop
         offset="0"
         id="stop5653" />
      <stop
         stop-opacity="0"
         offset="1"
         id="stop5655" />
    </radialGradient>
    <linearGradient
       inkscape:collect="always"
       xlink:href="#linearGradient4290"
       id="linearGradient4161-1-2-3"
       y1="29.999973"
       y2="1.999974"
       x2="0"
       gradientUnits="userSpaceOnUse"
       gradientTransform="matrix(1.0782526,0,0,1.0782526,332.69114,355.10505)" />
    <linearGradient
       inkscape:collect="always"
       id="linearGradient4290">
      <stop
         style="stop-color:#7cbaf8"
         id="stop4292" />
      <stop
         offset="1"
         style="stop-color:#f4fcff"
         id="stop4294" />
    </linearGradient>
    <linearGradient
       inkscape:collect="always"
       xlink:href="#linearGradient4143"
       id="linearGradient4229-5"
       y1="545.79797"
       y2="517.79797"
       gradientUnits="userSpaceOnUse"
       x2="0"
       gradientTransform="matrix(1.0267888,0,0,1.0267888,-61.302148,-173.68194)" />
    <linearGradient
       inkscape:collect="always"
       id="linearGradient4143">
      <stop
         style="stop-color:#195feb;stop-opacity:1"
         id="stop4145" />
      <stop
         offset="1"
         style="stop-color:#20bcfa"
         id="stop4147" />
    </linearGradient>
  </defs>
  <sodipodi:namedview
     id="base"
     pagecolor="#ffffff"
     bordercolor="#666666"
     borderopacity="1.0"
     inkscape:pageopacity="0.0"
     inkscape:pageshadow="2"
     inkscape:zoom="5.6"
     inkscape:cx="52.648469"
     inkscape:cy="10.739853"
     inkscape:document-units="px"
     inkscape:current-layer="layer1"
     showgrid="false"
     units="px"
     fit-margin-top="0"
     fit-margin-left="0"
     fit-margin-right="0"
     fit-margin-bottom="0"
     inkscape:window-width="1280"
     inkscape:window-height="743"
     inkscape:window-x="0"
     inkscape:window-y="0"
     inkscape:window-maximized="1" />
  <metadata
     id="metadata3485">
    <rdf:RDF>
      <cc:Work
         rdf:about="">
        <dc:format>image/svg+xml</dc:format>
        <dc:type
           rdf:resource="http://purl.org/dc/dcmitype/StillImage" />
        <dc:title></dc:title>
      </cc:Work>
    </rdf:RDF>
  </metadata>
  <g
     inkscape:label="Livello 1"
     inkscape:groupmode="layer"
     id="layer1"
     transform="translate(-334,-356.36221)">
    <g
       id="g3596">
      <rect
         y="356.36221"
         x="334"
         height="31.999996"
         width="31.999996"
         id="rect6416"
         style="opacity:1;fill:none;fill-opacity:1;stroke:none;stroke-width:2.64583325;stroke-linecap:butt;stroke-linejoin:miter;stroke-miterlimit:4;stroke-dasharray:none;stroke-dashoffset:0;stroke-opacity:1" />
      <g
         id="g3579">
        <circle
           cx="350.00003"
           cy="372.36221"
           style="fill:url(#linearGradient4229-5);stroke-width:1.08668482"
           id="path3377-6"
           r="14.375" />
        <path
           inkscape:connector-curvature="0"
           style="fill:url(#linearGradient4161-1-2-3);stroke-width:0.19016984"
           id="path34-7-3-2"
           d="m 349.97058,357.98736 c -1.81316,0 -3.53889,0.34582 -5.13374,0.95319 -0.11603,0.10659 -0.26683,0.1886 -0.38608,0.1784 -0.0151,-0.002 -0.034,-0.0113 -0.0491,-0.0189 -0.78614,0.32882 -1.53192,0.73194 -2.23907,1.18904 0.0919,0.14929 0.11906,0.31521 -0.0703,0.39587 -0.0302,0.0151 -0.43166,0.0537 -0.57131,0.0506 -2.0109,1.46117 -3.624,3.42637 -4.65505,5.72054 0.0151,-0.003 0.0302,-0.0113 0.048,-0.0113 0.15647,-0.003 0.38177,0.0423 0.53204,0.0745 0.13871,0.0302 0.25058,0.1217 0.37077,0.1304 0.34054,0.0265 0.42263,-0.23925 0.70054,-0.38744 0.28724,0.0408 0.47765,-0.0484 0.737,-0.0189 0.17689,0.0189 0.30463,0.20825 0.44221,0.21883 0.11603,0.0113 0.2177,-0.10847 0.32995,-0.0915 0.10885,0.0151 0.29669,0.25437 0.31446,0.38744 0.0227,0.16555 -0.12208,0.31484 -0.0745,0.49697 0.17348,0.17689 0.48896,0.21279 0.73697,0.31446 0.16139,-0.13304 0.0227,-0.38007 0,-0.57275 -0.003,-0.0847 0.0113,-0.16063 0,-0.23887 -0.0151,-0.13266 -0.0718,-0.25436 -0.0729,-0.36775 -0.003,-0.52448 0.42311,-0.76993 0.77488,-0.97704 0.15231,-0.0903 0.27212,-0.24832 0.40433,-0.31446 0.18671,-0.0937 0.32542,-0.11528 0.48011,-0.20221 0.27931,-0.15685 0.51867,-0.2827 0.73697,-0.46046 0.10092,-0.23773 0.0113,-0.55672 0.0189,-0.79177 0.10091,-0.062 0.18784,0.0265 0.2948,0.0189 0.16857,-0.034 0.18255,-0.27288 0.2778,-0.36775 0.0552,-0.0544 0.2075,-0.0933 0.27666,-0.1474 0.16781,-0.13191 0.22261,-0.33071 0.36926,-0.38744 0.0522,-0.0227 0.17386,-0.0151 0.25701,-0.0378 0.10923,-0.0302 0.26457,-0.15798 0.44217,-0.21883 0.11603,-0.0404 0.38116,-0.048 0.42534,-0.0926 0.0544,-0.0552 -7.2e-4,-0.21165 0.0189,-0.2948 0.0892,-0.41609 0.71611,-0.50427 1.08654,-0.64433 0.25966,-0.0983 0.52611,-0.27856 0.81143,-0.22337 -0.0559,0.19766 -0.32164,0.12774 -0.27666,0.36774 0.0624,0.33336 0.50838,-0.0952 0.62611,-0.14475 0.22489,-0.0949 0.6104,-0.1527 0.90543,-0.25966 0.25852,-0.0949 0.72257,-0.23886 0.47871,-0.53484 -0.20334,-0.0113 -0.30123,0.23887 -0.47871,0.31446 -0.12246,0.0189 -0.099,-0.10243 -0.20334,-0.11225 -0.0994,-0.0113 -0.15496,0.0915 -0.25701,0.0741 -0.10167,-0.0151 -0.24378,-0.17613 -0.25965,-0.29481 -0.0408,-0.30765 0.26003,-0.43453 0.38744,-0.66398 -0.0843,-0.27818 -0.46923,-0.0567 -0.7019,-0.16555 0.0227,-0.16554 0.19389,-0.28006 0.38748,-0.31181 0.15874,-0.0265 0.51473,-0.0151 0.60922,0.0714 0.0544,0.0469 0.004,0.1629 0.0926,0.24 0.0941,0.0847 0.20939,0.076 0.33147,0.0563 0.0435,-0.21014 -0.27289,-0.15723 -0.23849,-0.29632 0.24907,-0.16289 0.65397,-0.0302 0.95879,-0.0745 0.17537,-0.0265 0.35981,-0.14967 0.51522,-0.23736 0.14778,-0.0839 0.34016,-0.23055 0.49693,-0.0926 0.0423,0.15042 -0.13644,0.20031 -0.22034,0.27515 -0.28195,0.25096 -0.57256,0.53828 -0.79177,0.82964 0.13455,0.13115 0.37893,0.0654 0.60646,0.0926 0.0888,0.0113 0.20069,0.0382 0.2948,0.0548 0.11036,0.0189 0.22715,0.0151 0.31295,0.0378 0.15496,0.0382 0.19615,0.20371 0.3496,0.20371 0.2521,-4.5e-4 0.25512,-0.27326 0.11225,-0.4436 0.0454,-0.17386 0.11566,-0.26419 0.0548,-0.38604 -0.11376,-0.22715 -0.53026,-0.0113 -0.55169,-0.29481 -0.0151,-0.18368 0.15382,-0.17537 0.22034,-0.31294 -0.0302,-0.3549 0.29141,-0.38083 0.25701,-0.6991 -0.0151,-0.13304 -0.12699,-0.13493 -0.22035,-0.25965 -0.0469,-0.0609 -0.0711,-0.17877 -0.1251,-0.23169 -0.43011,-0.0378 -0.86513,-0.0616 -1.30552,-0.0616 z m -7.41774,2.90026 0.002,0 c 0.0858,0.0113 0.18935,0.10431 0.29329,0.11225 0.0983,0.003 0.17953,-0.054 0.24,-0.0378 0.1542,0.0408 0.21921,0.27326 0.0741,0.38744 -0.12057,0.0151 -0.16744,-0.0525 -0.25815,-0.0378 -0.2502,0.0427 -0.3462,0.53283 -0.53344,0.51658 -0.1765,-0.0151 -0.27175,-0.44477 -0.0926,-0.57271 0.0113,-0.11187 -0.0813,-0.12964 -0.0756,-0.24 0.0529,-0.068 0.20447,-0.14098 0.35074,-0.12926 z m -0.82965,0.0578 c 0.0507,0.002 0.0896,0.0151 0.10961,0.0378 -0.0227,0.19653 -0.17802,0.18368 -0.32995,0.27515 -0.26193,0.15798 -0.41356,0.39915 -0.49697,0.737 -0.0227,0.0983 -0.28233,0.35868 -0.4071,0.3326 -0.29215,-0.0616 0.0805,-0.60041 0.1474,-0.68228 0.0741,-0.0907 0.17273,-0.17045 0.25966,-0.27515 0.0839,-0.10167 0.13908,-0.23849 0.22034,-0.2948 0.0888,-0.0616 0.34281,-0.13493 0.49694,-0.12926 z m 2.18151,0.66259 c 0.0937,0.002 0.17764,0.0151 0.21619,0.0548 -0.0601,0.24341 -0.58454,0.17915 -0.77632,0.0911 0.0113,-0.0918 0.15572,-0.11716 0.27666,-0.12926 0.0847,-0.003 0.19011,-0.0189 0.28347,-0.0151 z m -1.19324,0.44924 c 0.0624,-0.002 0.12548,0.0113 0.19087,0.0302 -0.1697,0.14173 -0.35301,0.22224 -0.64433,0.31446 -0.14022,0.0442 -0.38196,0.099 -0.4057,-0.0578 -0.0302,-0.19162 0.20485,-0.14702 0.3326,-0.16441 0.16101,-0.0227 0.33789,-0.11603 0.52645,-0.12208 z m 18.30569,1.09217 c -0.0227,0.0525 -0.0378,0.10393 -0.034,0.15458 0.0113,0.0888 0.10885,0.17461 0.1304,0.2948 0.0113,0.0639 -0.0302,0.20145 0,0.25965 0.0888,0.17197 0.32088,0.0484 0.48714,0.0575 -0.1886,-0.26003 -0.37719,-0.52021 -0.58261,-0.76645 z m 0.94193,1.26765 c -0.0265,0.12699 -0.11262,0.29253 -0.18255,0.39866 -0.16063,0.24454 -0.37889,0.25588 -0.60926,0.38604 -0.192,0.10885 -0.27477,0.29065 -0.38747,0.48012 -0.12208,0.20447 -0.19767,0.32806 -0.1474,0.62472 -0.16479,0.32655 -0.41413,0.52686 -0.75527,0.68224 -0.10091,0.0457 -0.23886,0.0627 -0.33146,0.12926 -0.0737,0.0529 -0.11566,0.1954 -0.22035,0.31294 -0.12926,0.144 -0.26457,0.20448 -0.3326,0.31446 -0.0522,0.0847 -0.0711,0.25398 -0.12926,0.36775 -0.0786,0.15458 -0.24642,0.23055 -0.3496,0.38744 -0.0469,0.0726 -0.0782,0.21959 -0.1304,0.31445 -0.11678,0.21203 -0.31634,0.36511 -0.2948,0.5517 0.0227,0.18028 0.22602,0.21203 0.24,0.36926 0.003,0.0888 -0.0586,0.14324 -0.0548,0.24 0.003,0.14136 0.0986,0.24076 0.10961,0.34961 0.0265,0.27363 -0.093,0.38283 -0.14476,0.56991 -0.0227,0.0892 -0.0151,0.19011 -0.0378,0.25966 -0.0454,0.13681 -0.23622,0.26078 -0.24,0.42255 -0.002,0.11527 0.11792,0.20749 0.12775,0.36926 0.003,0.11149 -0.0548,0.23017 -0.034,0.33259 0.0393,0.2007 0.39723,0.43378 0.55313,0.58961 0.20863,0.20863 0.48148,0.37002 0.57135,0.58961 0.0756,0.18671 0.0752,0.42928 0.22035,0.56991 0.10734,0.10394 0.28611,0.16857 0.42395,0.27666 0.1285,0.10092 0.26835,0.18785 0.40573,0.29481 0.22413,0.17537 0.56349,0.52535 0.92088,0.49837 0.18671,-0.0151 0.37796,-0.16593 0.58961,-0.20372 0.2177,-0.0389 0.50045,-0.0593 0.72015,-0.0378 0.16819,0.0151 0.34167,0.11754 0.51659,0.1096 0.18482,-0.0113 0.39658,-0.14853 0.60646,-0.24 0.16894,-0.0737 0.37606,-0.15496 0.60363,-0.21467 0.10431,-0.70114 0.15987,-1.41948 0.15987,-2.15063 0,-2.94342 -0.88017,-5.6716 -2.38651,-7.94555 z m -23.77492,4.8305 c -0.30615,0.0151 -0.5068,0.0302 -0.68081,0.10961 -0.39885,0.18141 -0.32164,0.72041 -0.72019,0.84793 -0.13795,0.0442 -0.32693,0.0461 -0.47868,0.0741 -0.13077,0.0227 -0.29026,0.0952 -0.42538,0.0926 -0.0378,-5.3e-4 -0.0907,-0.0302 -0.13758,-0.0438 -0.034,0.25285 -0.0646,0.50827 -0.0873,0.76509 0.37901,0.073 0.57464,0.57502 0.90969,0.74124 0.0918,0.0454 0.21165,0.048 0.32995,0.0741 0.0952,0.0227 0.16781,0.0616 0.25966,0.093 0.19502,0.0661 0.43366,0.0582 0.5896,0.12775 0.23509,0.10432 0.40721,0.5458 0.60926,0.66399 0.0113,0.11905 -0.0227,0.27893 0.0189,0.36775 0.0952,0.12963 0.23017,0.10091 0.38748,0.18519 0.18822,0.10167 0.24567,0.36359 0.42391,0.44361 0.0616,0.0265 0.21581,0.0227 0.31295,0.0533 0.24415,0.0737 0.3239,0.35641 0.53344,0.2948 0.13719,-0.0404 0.12661,-0.18179 0.14891,-0.31294 0.0907,-0.0983 0.18973,-0.25399 0.33147,-0.25701 0.22904,-0.0113 0.24944,0.2366 0.33259,0.45902 0.0469,0.12586 0.17008,0.23509 0.20221,0.36775 0.0571,0.22904 0.0302,0.91457 -0.0189,1.05143 -0.0575,0.16781 -0.28498,0.23924 -0.42535,0.42538 -0.0661,0.0873 -0.0975,0.21506 -0.1474,0.27666 -0.0903,0.10999 -0.2245,0.13871 -0.29178,0.24 -0.0382,0.0571 -0.0752,0.17953 -0.11225,0.25701 -0.11074,0.23471 -0.2589,0.40071 -0.16554,0.68228 0.0389,0.11603 0.21996,0.19351 0.22034,0.32995 5.3e-4,0.16063 -0.34129,0.30426 -0.36775,0.48012 -0.0189,0.13077 0.10583,0.36434 0.14741,0.53484 0.0302,0.12888 0.27363,0.20938 0.3496,0.2948 0.12926,0.14514 0.23282,0.35112 0.35074,0.53341 0.23358,0.35867 0.41685,0.79646 0.64437,1.14413 0.12019,0.18218 0.28914,0.34583 0.36926,0.53485 0.0412,0.0952 0.034,0.209 0.0729,0.2948 0.13153,0.29707 0.71339,0.60767 1.01352,0.75526 0.1406,0.0684 0.29631,0.0926 0.42538,0.16441 0.1954,0.10885 0.58224,0.40146 0.68085,0.57275 0.0881,0.15383 0.14249,0.52872 0.18519,0.77352 0.0571,0.32353 6.8e-4,0.57188 0.0189,0.92228 0.0113,0.18935 0.0722,0.37999 0.0745,0.56999 7.2e-4,0.0665 -0.034,0.11603 -0.0382,0.18406 -1.1e-4,0.0113 0.004,0.0227 0.004,0.034 1.81039,0.81929 3.81645,1.28591 5.93953,1.28591 0.38358,0 0.76267,-0.0189 1.1385,-0.0491 0.0151,-0.0265 0.0302,-0.0578 0.0522,-0.0839 0.0865,-0.11376 0.16328,-0.21316 0.22035,-0.31294 0.0544,-0.33638 -0.13417,-0.57162 -0.0548,-0.86616 0.0881,-0.33071 0.5455,-0.53299 0.86619,-0.68228 0.11037,-0.051 0.223,-0.13455 0.31295,-0.16554 0.22186,-0.0771 0.49901,-0.034 0.70189,-0.10961 0.34545,-0.12623 0.3814,-0.49678 0.5517,-0.81142 0.0801,-0.14892 0.18633,-0.29821 0.20221,-0.40426 0.0151,-0.0952 -0.034,-0.1852 -0.0189,-0.29783 0.0151,-0.11112 0.11641,-0.20749 0.1474,-0.32995 0.0404,-0.1595 0.0575,-0.39349 0.0575,-0.57132 0,-0.14588 -0.0684,-0.27401 -0.0741,-0.40573 -0.0227,-0.47803 0.17272,-0.53151 0.34961,-0.79169 0.0888,-0.12926 0.12207,-0.27667 0.18368,-0.36926 0.29707,-0.44304 0.81218,-0.65692 0.77492,-1.32662 -0.0113,-0.22148 -0.15156,-0.72242 -0.31446,-0.79313 -0.0934,-0.0408 -0.30728,-0.003 -0.4422,-0.0548 -0.43563,-0.16252 -0.69132,-0.7025 -1.14271,-0.73701 -0.0964,-0.0113 -0.18482,0.0397 -0.29329,0.0378 -0.17877,-0.0113 -0.44795,-0.1251 -0.64577,-0.1474 -0.12586,-0.0151 -0.29367,0.0378 -0.36926,0 -0.1149,-0.0559 -0.12661,-0.26797 -0.22034,-0.33147 -0.0741,-0.051 -0.21884,-0.0684 -0.33109,-0.11225 -0.18142,-0.0695 -0.32542,-0.15118 -0.53484,-0.16554 -0.0646,-0.003 -0.14514,0.0302 -0.22035,0.0189 -0.11565,-0.0189 -0.20749,-0.15685 -0.31445,-0.22186 -0.1338,-0.0813 -0.25777,-0.12094 -0.31295,-0.23735 0.12095,-0.39701 -0.21354,-0.50767 -0.2948,-0.73701 -0.0393,-0.10734 -0.0227,-0.23698 -0.0548,-0.3326 -0.048,-0.1372 -0.18369,-0.21657 -0.3326,-0.33146 -0.26684,-0.20523 -0.50324,-0.39799 -0.88437,-0.44501 -0.16744,-0.0227 -0.33373,0.0499 -0.53632,0.0378 -0.2143,-0.0151 -0.48385,-0.20145 -0.64429,-0.38464 -0.1561,-0.17915 -0.23207,-0.33978 -0.36775,-0.42539 -0.12851,-0.0824 -0.29972,-0.0805 -0.38744,-0.1644 -0.0397,-0.0378 -0.0302,-0.099 -0.0741,-0.1852 -0.065,-0.13417 -0.17348,-0.20863 -0.0926,-0.36926 -0.14702,-0.0756 -0.1508,0.14022 -0.31181,0.11225 -0.14325,-0.20334 -0.26419,-0.29972 -0.58961,-0.24 -0.14891,0.0265 -0.23206,0.21581 -0.40569,0.22035 -0.14249,0.0113 -0.25436,-0.15874 -0.44221,-0.1852 -0.14173,-0.0189 -0.30312,0.0386 -0.40429,0.0189 -0.15723,-0.0302 -0.20599,-0.16252 -0.34961,-0.25701 -0.10545,-0.0695 -0.30992,-0.18708 -0.36926,-0.18519 -0.1852,0.0113 -0.3171,0.39367 -0.57275,0.25814 -0.12397,-0.15723 0.20221,-0.24038 0.0548,-0.38748 -0.11149,-0.1115 -0.2056,0.0507 -0.2948,0.11225 -0.10242,0.0707 -0.19842,0.1406 -0.31181,0.18255 -0.25323,0.0949 -0.41144,0.0453 -0.60926,0.14741 -0.18331,0.0949 -0.19087,0.2536 -0.2948,0.4422 -0.0847,0.15458 -0.27818,0.37954 -0.4057,0.38884 -0.15458,0.0113 -0.30198,-0.21581 -0.4422,-0.27666 -0.4221,-0.18293 -0.62657,0.16214 -0.97705,0.16705 -0.32542,0.0113 -0.78984,-0.52524 -0.77348,-0.83104 0.003,-0.18671 0.10734,-0.46968 0.12926,-0.7005 0.0189,-0.18368 0.14514,-0.29442 0.1474,-0.46186 0.003,-0.22374 -0.29707,-0.39602 -0.44224,-0.42255 -0.34431,-0.0635 -0.82242,0.13871 -1.21708,-0.0189 -0.0752,-0.1251 0.0884,-0.21127 0.13039,-0.3326 0.0227,-0.0692 0.0113,-0.16138 0.034,-0.23735 0.0442,-0.11754 0.16667,-0.20825 0.22185,-0.3326 0.0412,-0.0949 0.051,-0.23168 0.0926,-0.3496 0.0484,-0.13418 0.1372,-0.22035 0.1474,-0.31446 0.0151,-0.12397 -0.034,-0.26759 -0.13039,-0.34961 z m 4.9274,3.90119 c 0.12511,0.0113 0.1406,0.26986 0.0113,0.29065 -0.13795,0.0227 -0.20787,-0.21619 -0.0741,-0.27818 0.0227,-0.0113 0.0442,-0.0113 0.0616,-0.0113 l 0,-0.002 z" />
        <path
           style="opacity:0.40642;fill:url(#radialGradient4862);fill-rule:evenodd"
           inkscape:connector-curvature="0"
           d="m 338.46218,382.64783 a 4.3718239,7.5914813 62.459292 1 0 13.45655,-7.03159 4.3718239,7.5914813 62.459292 1 0 -13.45655,7.03159 z"
           id="path5664" />
        <path
           style="fill:#484848;fill-rule:evenodd;stroke:#4d4d4d;stroke-width:0.7445153;stroke-linecap:round;stroke-linejoin:round;stroke-miterlimit:10"
           inkscape:connector-curvature="0"
           d="m 348.65866,370.52038 2.84527,2.49362 -0.096,2.28582 -6.69766,6.02608 -4.31596,-3.99617 -0.096,-2.49362 8.35979,-4.31595 z"
           stroke-miterlimit="10"
           id="path5666" />
        <path
           style="fill:#a6a6a6;fill-rule:evenodd"
           inkscape:connector-curvature="0"
           d="m 351.53643,373.06657 -0.0918,2.20415 -6.7963,5.96954 0.0918,-2.38783 6.7963,-5.78601 z"
           id="path5668" />
        <path
           style="fill:#7f7f7f;fill-rule:evenodd"
           inkscape:connector-curvature="0"
           d="m 344.74028,378.85258 0,2.43375 -4.31672,-3.99504 -0.0918,-2.47971 4.40829,4.04088 z"
           id="path5670" />
        <path
           style="fill:url(#d);fill-rule:evenodd"
           inkscape:connector-curvature="0"
           d="m 351.53643,373.07066 -6.88788,5.87384 -4.31671,-4.04085 8.35755,-4.40829 2.84708,2.57564 z"
           id="path5672" />
        <path
           style="fill:#ffc11a;fill-rule:evenodd"
           inkscape:connector-curvature="0"
           d="m 351.09117,372.68945 -1.07014,0.74465 c 0,0 -0.25247,0.0918 -0.36737,0 -0.1149,-0.0918 -0.0918,-0.36737 -0.0918,-0.36737 l 1.07014,-0.84053 0.45921,0.46329 z"
           id="path5674" />
        <path
           style="fill:#ffc11a;fill-rule:evenodd"
           inkscape:connector-curvature="0"
           d="m 350.2966,371.95468 -1.10211,0.7446 c 0,0 -0.25248,0.0918 -0.36737,0 -0.1149,-0.0918 -0.0918,-0.36737 -0.0918,-0.36737 l 1.07013,-0.84053 0.49115,0.46326 z"
           id="path5676" />
        <path
           style="fill:#ffc11a;fill-rule:evenodd"
           inkscape:connector-curvature="0"
           d="m 349.48396,371.23384 -1.07013,0.77658 c 0,0 -0.25248,0.0918 -0.36737,0 -0.1149,-0.0918 -0.0918,-0.36737 -0.0918,-0.36737 l 1.10211,-0.87246 0.42723,0.46325 z"
           id="path5678" />
        <path
           style="opacity:0.34225003;fill:none;stroke:#ffffff;stroke-width:0.37225765;stroke-linecap:round;stroke-linejoin:round;stroke-miterlimit:10"
           inkscape:connector-curvature="0"
           d="m 348.64785,370.72538 2.6363,2.4703 -0.0888,1.99008 -6.42928,5.77557 -4.12683,-3.83052 -0.0888,-2.08667 8.09772,-4.31857 z"
           stroke-miterlimit="10"
           id="path5680" />
        <path
           style="fill:none;stroke:url(#linearGradient4864);stroke-width:1.86128819;stroke-linecap:round;stroke-linejoin:bevel;stroke-miterlimit:10"
           inkscape:connector-curvature="0"
           d="m 341.67398,378.85628 c 0,0 -2.17391,0.86317 -3.32477,2.62148 -1.15087,1.75831 -1.79025,4.31596 -1.79025,4.31596"
           stroke-miterlimit="10"
           id="path5682" />
        <path
           style="fill:url(#radialGradient4866);fill-rule:evenodd"
           inkscape:connector-curvature="0"
           d="m 341.43686,378.3061 c 0.30992,0.0378 0.55513,0.28044 0.59542,0.59021 0.0404,0.30954 -0.13455,0.60725 -0.42459,0.72287 0,0 -1.81784,0.99216 -2.42672,1.92234 -0.66588,1.0173 -1.11024,2.67957 -1.11024,2.67957 -0.0945,0.36548 -0.46715,0.58545 -0.8327,0.49112 -0.36548,-0.0945 -0.58541,-0.46715 -0.49108,-0.83271 0,0 0.40967,-1.75393 1.28104,-3.08523 0.92844,-1.41845 3.06723,-2.43477 3.06723,-2.43477 0.10734,-0.0469 0.22526,-0.065 0.34167,-0.0533 z"
           id="path5684" />
        <path
           style="fill:#a0a0a1;fill-rule:evenodd"
           inkscape:connector-curvature="0"
           d="m 347.49536,374.26038 -5.60247,4.22475 c -0.64289,0.41329 -1.26281,-0.0688 -1.65312,-0.55105 -0.39032,-0.48216 -0.32126,-1.05615 0.0918,-1.3776 l 5.9695,-3.21445 1.19395,0.91838 z"
           id="path5686" />
        <path
           style="fill:url(#f);fill-rule:evenodd"
           inkscape:connector-curvature="0"
           d="m 347.72504,374.26038 -5.74023,3.48997 c -0.32164,0.22942 -1.01023,-0.0457 -1.28576,-0.36737 -0.27552,-0.32126 -0.0461,-0.78066 0.18369,-0.91838 l 5.46436,-3.26037 1.3776,1.05618 z"
           id="path5688" />
      </g>
    </g>
  </g>
</svg>
