<?xml version="1.0" encoding="UTF-8" standalone="no"?>
<!-- Created with Inkscape (http://www.inkscape.org/) -->

<svg
   xmlns:dc="http://purl.org/dc/elements/1.1/"
   xmlns:cc="http://creativecommons.org/ns#"
   xmlns:rdf="http://www.w3.org/1999/02/22-rdf-syntax-ns#"
   xmlns:svg="http://www.w3.org/2000/svg"
   xmlns="http://www.w3.org/2000/svg"
   xmlns:sodipodi="http://sodipodi.sourceforge.net/DTD/sodipodi-0.dtd"
   xmlns:inkscape="http://www.inkscape.org/namespaces/inkscape"
   width="31.999998"
   height="31.999998"
   viewBox="0 0 29.999999 29.999997"
   id="svg4243"
   version="1.1"
   inkscape:version="0.92.4 5da689c313, 2019-01-14"
   sodipodi:docname="skype.svg">
  <metadata
     id="metadata13">
    <rdf:RDF>
      <cc:Work
         rdf:about="">
        <dc:format>image/svg+xml</dc:format>
        <dc:type
           rdf:resource="http://purl.org/dc/dcmitype/StillImage" />
        <dc:title></dc:title>
      </cc:Work>
    </rdf:RDF>
  </metadata>
  <sodipodi:namedview
     pagecolor="#ffffff"
     bordercolor="#666666"
     borderopacity="1"
     objecttolerance="10"
     gridtolerance="10"
     guidetolerance="10"
     inkscape:pageopacity="0"
     inkscape:pageshadow="2"
     inkscape:window-width="640"
     inkscape:window-height="480"
     id="namedview11"
     showgrid="false"
     fit-margin-top="0"
     fit-margin-left="0"
     fit-margin-right="0"
     fit-margin-bottom="0"
     units="px"
     inkscape:zoom="10.620118"
     inkscape:cx="34.421036"
     inkscape:cy="9.3724297"
     inkscape:current-layer="layer1" />
  <defs
     id="defs4245" />
  <g
     inkscape:label="Livello 1"
     inkscape:groupmode="layer"
     id="layer1"
     transform="translate(-276.8573,-92.040337)">
    <g
       id="g4812"
       transform="matrix(0.23437498,0,0,0.23437498,235.7206,75.478513)"
       style="stroke-width:4.26666689">
      <path
         inkscape:connector-curvature="0"
         style="fill:none;stroke-width:4.26666689"
         id="path4"
         d="M 175.51659,70.663792 H 303.5166 V 198.66379 H 175.51659 Z" />
      <g
         transform="matrix(0.50000001,0,0,0.50000001,175.51668,70.662583)"
         id="g4136"
         style="stroke-width:4.26666689">
        <path
           style="fill:#00aff0;stroke-width:4.26666689"
           inkscape:connector-curvature="0"
           d="M 38,21.99 C 58.33,7.32 87.08,6.06 108.73,18.61 c 24.41,-4.23 50.22,-0.21 72,11.66 24.31,13.06 43.4,35.49 52.29,61.63 6.11,17.69 7.53,36.92 4.35,55.35 7.82,13.75 10.53,30.3 7.36,45.81 -3.35,17.11 -13.9,32.62 -28.49,42.15 -20.2,13.58 -47.95,14.35 -68.99,2.17 -23.43,4.03 -48.14,0.54 -69.34,-10.28 C 53.27,214.72 33.62,192.82 24.01,166.97 17.05,148.5 15.3,128.18 18.61,108.74 10.62,94.75 8.03,77.84 11.44,62.1 14.82,46.02 24.55,31.41 38,21.99 Z"
           id="path6" />
        <path
           inkscape:connector-curvature="0"
           d="m 49,34.98 c 12.35,-8.29 28.55,-10.36 42.62,-5.57 5,1.59 9.5,4.34 14.02,6.93 17.64,-3.85 36.36,-3.29 53.43,2.82 27.17,9.39 49.35,31.92 58.27,59.25 5.66,16.66 6.04,34.8 2.31,51.93 4.4,7.21 8.19,15.01 9.08,23.51 2.18,16.01 -4.34,32.79 -16.61,43.27 -11.98,10.56 -29.28,14.58 -44.7,10.37 -6.15,-1.49 -11.66,-4.68 -17.08,-7.83 -18.58,4.07 -38.36,3.17 -56.13,-3.82 C 67.98,205.85 46.85,183.53 38.38,156.77 32.95,140.32 32.68,122.5 36.35,105.64 30.68,96.8 26.67,86.62 26.87,75.97 26.72,59.73 35.4,43.82 49,34.98 Z"
           id="path8"
           style="fill:#ffffff;fill-opacity:1;stroke-width:4.26666689" />
        <path
           style="fill:#00aff0;stroke-width:4.26666689"
           inkscape:connector-curvature="0"
           d="m 113.41,60.77 c 15.99,-2.42 32.84,0.03 47.11,7.77 6.24,3.46 12.28,8.14 15.18,14.86 1.89,4.42 2.1,10.19 -1.39,13.89 -3.78,3.87 -9.95,5.06 -15.02,3.43 -5.87,-2.46 -8.79,-8.61 -13.77,-12.27 -6.26,-5.16 -14.69,-6.55 -22.58,-6.41 -5.77,0.25 -11.95,1.56 -16.16,5.8 -3.89,4.15 -5.33,11.26 -1.54,15.93 3.58,4.13 9.11,5.67 14.18,7.08 9.67,2.42 19.45,4.37 29.16,6.66 10.1,2.31 20.3,6.73 26.97,14.96 11.5,14.9 8.91,38.53 -5.39,50.73 -11.44,10.13 -27.35,12.93 -42.17,13.02 -15.82,-0.23 -32.73,-3.47 -44.89,-14.29 -6.1,-5.5 -11.23,-13.8 -9.39,-22.29 2.01,-8.44 13.6,-11.64 20.17,-6.45 5.02,4.03 7.74,10.16 12.58,14.37 5.79,5.31 13.86,7.42 21.58,7.23 7.57,0.2 15.61,-2.12 20.8,-7.88 3.53,-3.89 5.4,-9.81 3.11,-14.79 -1.88,-4.68 -6.71,-7.23 -11.33,-8.49 -8.52,-2.23 -17.1,-4.26 -25.62,-6.51 -9.36,-2.29 -19.09,-4.38 -27.14,-9.96 -6.28,-4.17 -11.04,-10.68 -12.57,-18.1 -2.57,-11.64 -0.73,-25.07 7.73,-33.96 7.74,-8.61 19.22,-12.61 30.39,-14.33 z"
           id="path10" />
      </g>
    </g>
  </g>
</svg>
