<?xml version="1.0" encoding="UTF-8" standalone="no"?>
<svg
   xmlns:dc="http://purl.org/dc/elements/1.1/"
   xmlns:cc="http://creativecommons.org/ns#"
   xmlns:rdf="http://www.w3.org/1999/02/22-rdf-syntax-ns#"
   xmlns:svg="http://www.w3.org/2000/svg"
   xmlns="http://www.w3.org/2000/svg"
   xmlns:sodipodi="http://sodipodi.sourceforge.net/DTD/sodipodi-0.dtd"
   xmlns:inkscape="http://www.inkscape.org/namespaces/inkscape"
   width="32"
   height="32"
   version="1.1"
   id="svg26"
   sodipodi:docname="telegram.svg"
   inkscape:version="0.92.4 5da689c313, 2019-01-14">
  <metadata
     id="metadata30">
    <rdf:RDF>
      <cc:Work
         rdf:about="">
        <dc:format>image/svg+xml</dc:format>
        <dc:type
           rdf:resource="http://purl.org/dc/dcmitype/StillImage" />
        <dc:title></dc:title>
      </cc:Work>
    </rdf:RDF>
  </metadata>
  <sodipodi:namedview
     pagecolor="#ffffff"
     bordercolor="#666666"
     borderopacity="1"
     objecttolerance="10"
     gridtolerance="10"
     guidetolerance="10"
     inkscape:pageopacity="0"
     inkscape:pageshadow="2"
     inkscape:window-width="1116"
     inkscape:window-height="809"
     id="namedview28"
     showgrid="false"
     fit-margin-top="0"
     fit-margin-left="0"
     fit-margin-right="0"
     fit-margin-bottom="0"
     inkscape:zoom="4.9166667"
     inkscape:cx="15.858667"
     inkscape:cy="24"
     inkscape:window-x="122"
     inkscape:window-y="0"
     inkscape:window-maximized="0"
     inkscape:current-layer="svg26" />
  <defs
     id="defs12">
    <linearGradient
       id="a"
       y1="543.79999"
       y2="503.79999"
       x2="0"
       gradientUnits="userSpaceOnUse">
      <stop
         stop-color="#197cf1"
         id="stop2" />
      <stop
         offset="1"
         stop-color="#20bcfa"
         id="stop4" />
    </linearGradient>
    <linearGradient
       id="b"
       y1="18.709999"
       x1="22.285"
       y2="36.632999"
       x2="39.279999"
       gradientUnits="userSpaceOnUse">
      <stop
         stop-color="#292c2f"
         id="stop7" />
      <stop
         offset="1"
         stop-color="#292c2f"
         stop-opacity="0"
         id="stop9" />
    </linearGradient>
  </defs>
  <g
     id="g4576">
    <g
       style="fill:none;stroke:none"
       transform="scale(0.66666667)"
       id="g3743">
      <rect
         id="rect3735"
         width="48"
         height="48"
         x="0"
         y="0"
         style="fill:none;stroke:none;stroke-width:1.15121949" />
    </g>
    <g
       id="g24"
       transform="matrix(0.66666667,0,0,0.66666667,-256.38,-333.2)">
      <g
         id="g18"
         style="stroke-width:2.79999995;stroke-opacity:0.55">
        <rect
           id="rect14"
           height="40"
           rx="20"
           y="503.79999"
           x="388.57001"
           width="40"
           style="fill:url(#a)" />
        <path
           id="path16"
           transform="translate(384.57,499.8)"
           d="m 4.01,23.5 c -0.004,0.167 -0.012,0.332 -0.012,0.5 0,11.08 8.92,20 20,20 11.08,0 20,-8.92 20,-20 0,-0.168 -0.008,-0.333 -0.012,-0.5 C 43.722,34.347 34.906,43 23.998,43 13.086,43 4.274,34.347 4.01,23.5"
           inkscape:connector-curvature="0"
           style="fill:#0c69cf" />
      </g>
      <path
         id="path20"
         transform="translate(384.57,499.8)"
         d="m 31.768,16.463 -18.586,7.322 18.613,18.65 c 5.926,-2.497 10.371,-7.764 11.75,-14.195 z"
         style="opacity:0.2;fill:url(#b)"
         inkscape:connector-curvature="0" />
      <path
         id="path22"
         d="m 408.82,534.63 c -0.529,-0.321 -0.866,-0.877 -2.336,-3.849 -0.813,-1.645 -1.587,-3.106 -1.72,-3.247 -0.149,-0.158 -1.376,-0.81 -3.207,-1.704 -3.618,-1.767 -3.986,-2.048 -3.986,-3.048 0,-0.467 0.228,-0.913 0.585,-1.147 0.123,-0.08 3.906,-1.434 8.407,-3.01 7.908,-2.766 8.203,-2.861 8.743,-2.828 0.468,0.029 0.603,0.076 0.828,0.29 0.337,0.321 0.488,0.766 0.423,1.242 -0.07,0.512 -5.748,16.55 -5.96,16.834 -0.45,0.605 -1.214,0.805 -1.776,0.464"
         inkscape:connector-curvature="0"
         style="fill:#ffffff" />
    </g>
  </g>
</svg>
