<?xml version="1.0" encoding="UTF-8" standalone="no"?>
<!-- Generator: Adobe Illustrator 22.0.0, SVG Export Plug-In . SVG Version: 6.00 Build 0)  -->

<svg
   xmlns:dc="http://purl.org/dc/elements/1.1/"
   xmlns:cc="http://creativecommons.org/ns#"
   xmlns:rdf="http://www.w3.org/1999/02/22-rdf-syntax-ns#"
   xmlns:svg="http://www.w3.org/2000/svg"
   xmlns="http://www.w3.org/2000/svg"
   xmlns:sodipodi="http://sodipodi.sourceforge.net/DTD/sodipodi-0.dtd"
   xmlns:inkscape="http://www.inkscape.org/namespaces/inkscape"
   version="1.1"
   id="Layer_1"
   x="0px"
   y="0px"
   viewBox="0 0 31.999999 32"
   xml:space="preserve"
   sodipodi:docname="thunderbird.svg"
   inkscape:version="0.92.4 5da689c313, 2019-01-14"
   width="32"
   height="32"><title
   id="title106">thunderbird</title><metadata
   id="metadata203"><rdf:RDF><cc:Work
       rdf:about=""><dc:format>image/svg+xml</dc:format><dc:type
         rdf:resource="http://purl.org/dc/dcmitype/StillImage" /><dc:title>thunderbird</dc:title><dc:creator><cc:Agent><dc:title>ruru</dc:title></cc:Agent></dc:creator></cc:Work></rdf:RDF></metadata><defs
   id="defs201">
	
	
	<linearGradient
   y2="47.526402"
   x2="169.42979"
   y1="130.1391"
   x1="206.2113"
   gradientUnits="userSpaceOnUse"
   id="SVGID_14_"
   gradientTransform="matrix(0.12355377,0,0,0.12355377,0.49649816,1.0000329)">
		<stop
   id="stop174"
   style="stop-color:#409EC3"
   offset="0" />
		<stop
   id="stop176"
   style="stop-color:#2061BD"
   offset="0.62" />
	</linearGradient>
	
	<linearGradient
   y2="21.9536"
   x2="150.40691"
   y1="103.061"
   x1="176.7603"
   gradientUnits="userSpaceOnUse"
   id="SVGID_15_"
   gradientTransform="matrix(0.12355377,0,0,0.12355377,0.49649816,1.0000329)">
		<stop
   id="stop181"
   style="stop-color:#14B2DA"
   offset="0" />
		<stop
   id="stop183"
   style="stop-color:#297CCC"
   offset="0.4028" />
		<stop
   id="stop185"
   style="stop-color:#256FC5"
   offset="0.5077" />
		<stop
   id="stop187"
   style="stop-color:#2164BF"
   offset="0.6492" />
		<stop
   id="stop189"
   style="stop-color:#2061BD"
   offset="0.8162" />
		<stop
   id="stop191"
   style="stop-color:#2061BD"
   offset="0.9835" />
	</linearGradient>
	

		<linearGradient
   id="SVGID_1_"
   gradientUnits="userSpaceOnUse"
   x1="199.533"
   y1="201.907"
   x2="39.678699"
   y2="42.0527"
   gradientTransform="matrix(0.12355377,0,0,0.12355377,0.66811435,1.0943044)">
			<stop
   offset="0"
   style="stop-color:#130036"
   id="stop4" />
			<stop
   offset="0.2297"
   style="stop-color:#18023B"
   id="stop6" />
			<stop
   offset="0.5122"
   style="stop-color:#26094A"
   id="stop8" />
			<stop
   offset="0.8211"
   style="stop-color:#3D1563"
   id="stop10" />
			<stop
   offset="1"
   style="stop-color:#4E1D75"
   id="stop12" />
		</linearGradient>
		
		
		
		
		
		<linearGradient
   id="SVGID_2_"
   gradientUnits="userSpaceOnUse"
   x1="10.2428"
   y1="95.311302"
   x2="57.703899"
   y2="95.311302"
   gradientTransform="matrix(0.12355377,0,0,0.12355377,0.7436057,1.0000329)">
			<stop
   offset="0"
   style="stop-color:#3156A8"
   id="stop27" />
			<stop
   offset="0.2474"
   style="stop-color:#3351A4"
   id="stop29" />
			<stop
   offset="0.5365"
   style="stop-color:#3B4397"
   id="stop31" />
			<stop
   offset="0.8453"
   style="stop-color:#472C82"
   id="stop33" />
			<stop
   offset="1"
   style="stop-color:#4E1D75"
   id="stop35" />
		</linearGradient>
		
		
			<radialGradient
   id="SVGID_3_"
   cx="59.0732"
   cy="113.9232"
   r="85.246597"
   gradientTransform="matrix(0.12355377,0,0,0.17915297,0.7436057,-5.3340005)"
   gradientUnits="userSpaceOnUse">
			<stop
   offset="0.1654"
   style="stop-color:#14CDDA"
   id="stop40" />
			<stop
   offset="0.5478"
   style="stop-color:#2061BD"
   id="stop42" />
			<stop
   offset="0.6546"
   style="stop-color:#2658AC"
   id="stop44" />
			<stop
   offset="0.864"
   style="stop-color:#373F81"
   id="stop46" />
			<stop
   offset="1"
   style="stop-color:#432D62"
   id="stop48" />
		</radialGradient>
		
		
		
		<linearGradient
   id="SVGID_5_"
   gradientUnits="userSpaceOnUse"
   x1="66.173599"
   y1="23.205601"
   x2="167.26421"
   y2="111.0823"
   gradientTransform="matrix(0.12355377,0,0,0.12355377,0.7436057,1.0000329)">
			<stop
   offset="0.0202"
   style="stop-color:#48A8E0"
   id="stop68" />
			<stop
   offset="0.3883"
   style="stop-color:#2061BD"
   id="stop70" />
			<stop
   offset="0.4968"
   style="stop-color:#2B51AC"
   id="stop72" />
			<stop
   offset="0.7892"
   style="stop-color:#442C84"
   id="stop74" />
			<stop
   offset="0.9409"
   style="stop-color:#4E1D75"
   id="stop76" />
		</linearGradient>
		
		<linearGradient
   id="SVGID_6_"
   gradientUnits="userSpaceOnUse"
   x1="19.676201"
   y1="337.41391"
   x2="217.8353"
   y2="43.630901"
   gradientTransform="matrix(0.12355377,0,0,0.12355377,0.7436057,1.0000329)">
			<stop
   offset="0.3787"
   style="stop-color:#3156A8"
   id="stop81" />
			<stop
   offset="1"
   style="stop-color:#4E1D75"
   id="stop83" />
		</linearGradient>
		
		<linearGradient
   id="SVGID_7_"
   gradientUnits="userSpaceOnUse"
   x1="96.745201"
   y1="278.64581"
   x2="206.3175"
   y2="32.542301"
   gradientTransform="matrix(0.12355377,0,0,0.12355377,0.7436057,1.0000329)">
			<stop
   offset="0"
   style="stop-color:#29ABE2"
   id="stop88" />
			<stop
   offset="0.7733"
   style="stop-color:#385AA6"
   id="stop90" />
			<stop
   offset="0.8575"
   style="stop-color:#414293"
   id="stop92" />
			<stop
   offset="1"
   style="stop-color:#4E1D75"
   id="stop94" />
		</linearGradient>
		
		<linearGradient
   id="SVGID_8_"
   gradientUnits="userSpaceOnUse"
   x1="48.2686"
   y1="92.033699"
   x2="54.241402"
   y2="95.4683"
   gradientTransform="matrix(0.12355377,0,0,0.12355377,0.7436057,1.0000329)">
			<stop
   offset="0"
   style="stop-color:#B0DCD6"
   id="stop99" />
			<stop
   offset="1"
   style="stop-color:#53ACE0"
   id="stop101" />
		</linearGradient>
		
		<defs
   id="defs109">
			<filter
   id="Adobe_OpacityMaskFilter"
   filterUnits="userSpaceOnUse"
   x="162.67999"
   y="18.355"
   width="14.927"
   height="6.6290002">
				<feColorMatrix
   type="matrix"
   values="1 0 0 0 0  0 1 0 0 0  0 0 1 0 0  0 0 0 1 0"
   id="feColorMatrix106" />
			</filter>
		</defs>
		<mask
   maskUnits="userSpaceOnUse"
   x="162.68"
   y="18.355"
   width="14.927"
   height="6.629"
   id="SVGID_9_">
			<g
   class="st13"
   id="g118"
   style="filter:url(#Adobe_OpacityMaskFilter)">
				<radialGradient
   id="SVGID_10_"
   cx="154.384"
   cy="67.998497"
   r="51.967499"
   gradientUnits="userSpaceOnUse">
					<stop
   offset="0.868"
   style="stop-color:#FFFFFF"
   id="stop111" />
					<stop
   offset="1"
   style="stop-color:#000000"
   id="stop113" />
				</radialGradient>
				<rect
   x="91.294998"
   y="-7.2179999"
   class="st14"
   width="100.015"
   height="93.338997"
   id="rect116"
   style="fill:url(#SVGID_10_)" />
			</g>
		</mask>
		
		<linearGradient
   id="SVGID_12_"
   gradientUnits="userSpaceOnUse"
   x1="80.783798"
   y1="38.0252"
   x2="90.637001"
   y2="77.544296"
   gradientTransform="matrix(0.12355377,0,0,0.12355377,0.7436057,1.0000329)">
			<stop
   offset="0.0074"
   style="stop-color:#1398D1;stop-opacity:0"
   id="stop138" />
			<stop
   offset="0.2482"
   style="stop-color:#1187C2;stop-opacity:0.6197"
   id="stop140" />
			<stop
   offset="0.6422"
   style="stop-color:#3F6499;stop-opacity:0.71"
   id="stop142" />
			<stop
   offset="1"
   style="stop-color:#2F4282;stop-opacity:0.5"
   id="stop144" />
		</linearGradient>
		
		
		
		
			<linearGradient
   id="SVGID_13_"
   gradientUnits="userSpaceOnUse"
   x1="48.7383"
   y1="14.373"
   x2="43.199299"
   y2="11.3027"
   gradientTransform="matrix(0.12347964,0.00431203,-0.00431203,0.12347964,3.781867,8.057449)">
			<stop
   offset="0"
   style="stop-color:#F9C21B"
   id="stop153" />
			<stop
   offset="0.1479"
   style="stop-color:#F3BA1B"
   id="stop155" />
			<stop
   offset="0.3787"
   style="stop-color:#E3A41B"
   id="stop157" />
			<stop
   offset="0.6634"
   style="stop-color:#C9801C"
   id="stop159" />
			<stop
   offset="0.9884"
   style="stop-color:#A44E1C"
   id="stop161" />
			<stop
   offset="1"
   style="stop-color:#A34C1C"
   id="stop163" />
		</linearGradient>
		
		
	
			
		
			<linearGradient
   y2="57.897499"
   x2="191.515"
   y1="57.897499"
   x1="44.5387"
   gradientUnits="userSpaceOnUse"
   id="SVGID_4_"
   gradientTransform="matrix(0.12355377,0,0,0.12355377,0.7436057,1.0000329)">
				<stop
   id="stop53"
   style="stop-color:#2061BD"
   offset="0" />
				<stop
   id="stop55"
   style="stop-color:#2B51AC"
   offset="0.1846" />
				<stop
   id="stop57"
   style="stop-color:#442C84"
   offset="0.6826" />
				<stop
   id="stop59"
   style="stop-color:#4E1D75"
   offset="0.9409" />
			</linearGradient>
			
		
			
		
				
			
					<linearGradient
   y2="20.555401"
   x2="164.2403"
   y1="23.0851"
   x1="176.2139"
   gradientUnits="userSpaceOnUse"
   id="SVGID_11_"
   gradientTransform="matrix(0.12355377,0,0,0.12355377,0.7436057,1.0000329)">
						<stop
   id="stop121"
   style="stop-color:#3092B9"
   offset="0" />
						<stop
   id="stop123"
   style="stop-color:#258DB6"
   offset="0.2199" />
						<stop
   id="stop125"
   style="stop-color:#1685B1"
   offset="0.6564" />
						<stop
   id="stop127"
   style="stop-color:#1082AF"
   offset="1" />
					</linearGradient>
					
				</defs><sodipodi:namedview
   pagecolor="#ffffff"
   bordercolor="#666666"
   borderopacity="1"
   objecttolerance="10"
   gridtolerance="10"
   guidetolerance="10"
   inkscape:pageopacity="0"
   inkscape:pageshadow="2"
   inkscape:window-width="640"
   inkscape:window-height="480"
   id="namedview199"
   showgrid="false"
   inkscape:zoom="11.943594"
   inkscape:cx="1.8450971"
   inkscape:cy="12.067286"
   inkscape:current-layer="Layer_1"
   fit-margin-top="0"
   fit-margin-left="0"
   fit-margin-right="0"
   fit-margin-bottom="0" />
<style
   type="text/css"
   id="style2">
	.st0{fill:#363959;}
	.st1{fill:url(#SVGID_1_);}
	.st2{fill:#FBFBFB;}
	.st3{fill:#999999;}
	.st4{fill:#F8F8F8;}
	.st5{fill:url(#SVGID_2_);}
	.st6{fill:url(#SVGID_3_);}
	.st7{fill:url(#SVGID_4_);}
	.st8{fill:#3F6499;}
	.st9{fill:url(#SVGID_5_);}
	.st10{fill:url(#SVGID_6_);}
	.st11{fill:url(#SVGID_7_);}
	.st12{fill:url(#SVGID_8_);}
	.st13{filter:url(#Adobe_OpacityMaskFilter);}
	.st14{fill:url(#SVGID_10_);}
	.st15{mask:url(#SVGID_9_);}
	.st16{opacity:0.6;}
	.st17{opacity:0.2;}
	.st18{fill:url(#SVGID_11_);}
	.st19{fill:url(#SVGID_12_);}
	.st20{opacity:0.1;fill:#F2F2F2;}
	.st21{fill:#2F4282;}
	.st22{fill:url(#SVGID_13_);}
	.st23{fill:url(#SVGID_14_);}
	.st24{fill:#FFFFFF;}
	.st25{fill:url(#SVGID_15_);}
	.st26{fill:url(#SVGID_16_);}
	.st27{fill:url(#SVGID_17_);}
	.st28{fill:url(#SVGID_18_);}
	.st29{fill:url(#SVGID_19_);}
	.st30{fill:url(#SVGID_20_);}
	.st31{fill:url(#SVGID_21_);}
	.st32{fill:url(#SVGID_22_);}
	.st33{fill:url(#SVGID_23_);}
	.st34{fill:url(#SVGID_24_);}
	.st35{filter:url(#Adobe_OpacityMaskFilter_1_);}
	.st36{fill:url(#SVGID_26_);}
	.st37{mask:url(#SVGID_25_);}
	.st38{fill:url(#SVGID_27_);}
	.st39{fill:url(#SVGID_28_);}
	.st40{fill:url(#SVGID_29_);}
	.st41{fill:url(#SVGID_30_);}
	.st42{fill:url(#SVGID_31_);}
	.st43{fill:url(#SVGID_32_);}
	.st44{fill:url(#SVGID_33_);}
	.st45{fill:url(#SVGID_34_);}
	.st46{fill:url(#SVGID_35_);}
	.st47{fill:url(#SVGID_36_);}
	.st48{fill:url(#SVGID_37_);}
	.st49{fill:url(#SVGID_38_);}
	.st50{fill:url(#SVGID_39_);}
	.st51{fill:url(#SVGID_40_);}
	.st52{filter:url(#Adobe_OpacityMaskFilter_2_);}
	.st53{fill:url(#SVGID_42_);}
	.st54{mask:url(#SVGID_41_);}
	.st55{fill:url(#SVGID_43_);}
	.st56{fill:url(#SVGID_44_);}
	.st57{fill:url(#SVGID_45_);}
	.st58{fill:url(#SVGID_46_);}
	.st59{fill:url(#SVGID_47_);}
	.st60{fill:url(#SVGID_48_);}
</style>
<g
   id="g287"><rect
     y="0"
     x="0"
     height="32"
     width="32"
     id="rect194"
     style="opacity:0.7;fill:none;fill-opacity:1;stroke:none;stroke-width:0.91449296;stroke-linejoin:miter;stroke-miterlimit:4;stroke-dasharray:none;stroke-dashoffset:0;stroke-opacity:1;paint-order:normal" /><path
     inkscape:connector-curvature="0"
     style="fill:url(#SVGID_1_);stroke-width:0.12355377"
     id="path15"
     d="M 24.005815,5.4794748 C 22.214162,4.3091735 19.922857,3.9303577 18.658285,3.7980316 17.304877,3.6565625 16.129386,3.6815204 15.095488,3.8332444 c -0.0876,-0.00111 -0.174705,-0.00457 -0.262799,-0.00457 -0.06721,0 -0.133438,0.00284 -0.201022,0.00358 0.0278,-0.033977 0.04707,-0.054982 0.04707,-0.054982 0,0 -0.05436,0.00853 -0.161114,0.056835 -0.335696,0.00544 -0.669785,0.01705 -0.998932,0.039537 0.458508,-0.5026168 0.834111,-0.7660334 0.834111,-0.7660334 0,0 -0.445782,0.065236 -1.25926,0.8026053 -0.38697,0.035583 -0.768628,0.082781 -1.14386,0.1414691 0.854745,-1.1567104 1.748903,-1.6437594 1.748903,-1.6437594 0,0 -1.083814,-0.220667 -2.780825,1.4846221 -0.141963,0.1427046 -0.273671,0.2910927 -0.401055,0.4413341 -4.9459811,1.1968653 -8.4857966,4.3908539 -8.4857966,8.1445408 0,0.736134 -0.2259798,1.545781 0.017668,2.354194 -0.09736,1.291507 0.1099629,4.815508 0.1099629,4.815508 0,0 1.3389522,7.246305 6.4878084,8.506183 0.081793,0.01952 -1.0757826,-1.806356 -1.5877895,-4.008332 0.9969554,1.01413 2.1850485,1.816117 3.5185648,1.955115 0.163708,0.01693 -0.7617095,-1.067504 -1.5722222,-2.376433 L 20.7052,27.666767 c 6.119495,-2.628483 5.407084,-2.391631 6.720954,-3.814723 2.894618,-3.133324 3.299874,-4.911262 2.57066,-10.160444 -0.49335,-3.543399 -3.108613,-7.0528201 -5.990999,-8.2121252 z"
     class="st1" /><polygon
     transform="matrix(0.12355377,0,0,0.12355377,0.7436057,1.0000329)"
     style="fill:#fbfbfb"
     id="polygon17"
     points="22.687,62.276 8.546,142.68 16.387,166.974 172.911,219.015 201.939,95.591 "
     class="st2" /><path
     class="st3"
     d="m 3.6011573,9.0322635 c 0.09699,0.2086823 0.068449,0.2581038 0.00803,0.2581038 -0.027182,0 -0.060789,-0.010008 -0.092295,-0.019892 -0.031506,-0.010008 -0.061036,-0.019892 -0.080063,-0.019892 -0.053499,0 -0.023352,0.078951 0.2796022,0.45962 0.4284844,0.5443777 6.7212005,10.0440567 7.0650525,10.0440567 0.0019,0 0.0035,-2.47e-4 0.0049,-7.42e-4 C 13.715844,18.709736 26.17414,14.43354 26.17414,14.43354 L 24.899603,12.57665 3.6011573,9.0322635"
     id="path19"
     inkscape:connector-curvature="0"
     style="fill:#999999;stroke-width:0.12355377" /><path
     style="fill:#f8f8f8;stroke-width:0.12355377"
     inkscape:connector-curvature="0"
     id="path23"
     d="m 3.7838933,8.7988704 c 0,0 0.093901,0.4858134 0.5289337,1.0235194 0.4324382,0.5426482 6.240701,9.3370822 6.532164,9.2596142 3.804839,-1.010176 17.609501,-6.384518 17.609501,-6.384518 z"
     class="st4" /><polygon
     transform="matrix(0.12355377,0,0,0.12355377,0.7436057,1.0000329)"
     style="fill:#999999"
     id="polygon25"
     points="18.568,167.703 19.094,171.178 168.976,221.012 167.321,217.161 "
     class="st3" /><path
     inkscape:connector-curvature="0"
     style="fill:url(#SVGID_2_);stroke-width:0.12355377"
     id="path38"
     d="m 7.8731524,8.3879306 c 0,0 -6.6869771,1.9583274 -3.6186428,8.7763954 0,0 -1.4069068,-1.288172 -2.2446013,-2.935267 -0.037684,-0.07376 1.3962811,-5.168131 1.3962811,-5.168131 z"
     class="st5" /><path
     inkscape:connector-curvature="0"
     style="fill:url(#SVGID_3_);stroke-width:0.12355377"
     id="path51"
     d="M 4.2545096,17.164326 C 3.672942,17.154318 2.7386284,16.674558 2.435551,16.093732 2.0567352,22.407083 4.6325842,26.094051 8.7219668,28.060285 7.3857328,27.907079 0.7436057,24.401982 0.7436057,15.967337 0.7436057,8.7954109 6.4344923,2.3848236 15.340495,2.0911362 15.395106,2.4931802 10.925178,3.501379 10.782226,3.9754548 10.560323,4.7133179 10.050293,5.516541 9.6200792,6.1603797 9.0371525,7.0327928 10.430221,7.7788105 9.4064547,8.0138098 7.8659863,8.3672971 5.8112871,8.1715879 4.2961472,10.141282 2.0185571,13.102248 3.538392,16.489351 4.2545096,17.164326 Z"
     class="st6" /><path
     class="st7"
     d="M 17.676403,2.3219347 C 11.908666,1.8793651 8.9402864,4.187226 7.0347166,6.8708138 6.340715,7.8476299 6.4167006,8.7446303 6.6556536,9.8283204 c 0.1026732,0.4625856 0.2064583,0.6842406 0.081422,1.1558456 -0.068943,0.260204 -0.057453,0.503111 -0.1430752,0.656565 -0.1184881,0.212142 -0.2693473,0.444052 -0.3198807,0.824968 -0.126272,0.951241 0.210412,1.254195 0.4208241,1.574199 0.2997414,-0.297641 0.8852628,-0.998191 1.9410297,-1.416668 1.055767,-0.418476 1.7503865,-1.047365 3.0735235,-1.722463 1.807839,-0.9220816 3.926786,0.476794 7.944507,-0.839671 1.236279,-0.4051331 4.077522,-4.6139923 4.752002,-4.7756006 -1.878388,-2.077186 -5.073983,-2.836671 -6.729603,-2.9635607 z"
     id="path62"
     style="fill:url(#SVGID_4_);stroke-width:0.12355377"
     inkscape:connector-curvature="0" /><path
     style="fill:#3f6499;stroke-width:0.12355377"
     inkscape:connector-curvature="0"
     id="path66"
     d="m 13.865881,1.0039866 c 0,0 -1.029821,0.4974275 -1.478321,1.3962812 1.035504,-0.5220147 1.636593,-0.8071768 1.920767,-0.8411541 0,0 -0.272189,0.1318319 -0.609738,0.8488144 0.596765,-0.1911377 0.802235,-0.3116026 0.966067,-0.3134559 0,0 -0.04757,0.075368 -0.09106,0.7909912 C 13.657198,2.5884402 11.893344,2.9345144 10.955077,3.522136 10.636802,1.825125 13.86588,1.0039866 13.86588,1.0039866 Z"
     class="st8" /><path
     inkscape:connector-curvature="0"
     style="fill:url(#SVGID_5_);stroke-width:0.12355377"
     id="path79"
     d="M 17.964407,2.0663019 C 16.196476,1.8372332 14.718649,1.8823304 13.462231,2.1243722 13.857356,1.7456799 14.314505,1.5591137 14.314505,1.5591137 13.722064,1.6115005 12.982471,1.9982238 12.347899,2.407681 12.028142,2.5097364 11.723459,2.6248885 11.434837,2.753508 11.611519,2.5206091 11.817112,2.2717719 12.018011,2.0807577 12.764152,1.3711884 13.872059,1.0039866 13.872059,1.0039866 12.926378,0.9345494 9.7616718,1.7446915 7.8573376,5.6017931 7.5452407,5.981968 7.2540245,6.3721508 6.9765227,6.7629514 6.260158,7.7716444 6.3387382,8.6975563 6.5858457,9.8165828 c 0.1052678,0.4777822 0.1246658,1.2404802 0.020757,1.7333362 -0.020757,0.09872 -0.2919575,0.353734 -0.3615183,1.041311 -0.074379,0.729585 0.1859484,1.087767 0.4425696,1.384173 0.9118268,-1.333393 1.8114218,-1.597674 1.8114218,-1.597674 1.2763105,-0.52288 1.8075912,-1.081343 3.1738492,-1.778309 1.86665,-0.9524765 8.39412,2.156013 12.54219,0.796674 1.276558,-0.418106 -0.491373,-5.8513828 0.20547,-6.0181804 -1.93967,-2.1448934 -4.756079,-3.0913153 -6.456178,-3.3116117 z"
     class="st9" /><path
     inkscape:connector-curvature="0"
     style="fill:url(#SVGID_6_);stroke-width:0.12355377"
     id="path86"
     d="M 30.912471,13.761655 C 29.88994,8.4195603 24.970029,3.5595728 21.013714,3.2902256 19.257891,3.1706255 19.79708,4.0709619 18.69844,4.4138236 13.963859,5.8914031 13.891457,6.7540555 13.891457,6.7540555 23.930448,7.2259074 24.082666,17.14048 21.394136,19.648868 c 0.756519,-0.176435 1.576793,-1.101358 2.3301,-2.553362 -0.09044,0.609244 -0.168033,1.35662 -0.280961,2.190485 -0.344468,2.54459 0.101685,7.859749 -7.210104,11.416986 0,0 3.999683,-0.326923 5.983091,-2.559663 C 21.409703,29.998103 19.196485,31 19.196485,31 c 1.628686,-0.238211 5.907106,-1.500684 8.632455,-4.909038 3.084643,-3.857967 4.012285,-7.477351 3.083531,-12.329307 z"
     class="st10" /><path
     inkscape:connector-curvature="0"
     style="fill:url(#SVGID_7_);stroke-width:0.12355377"
     id="path97"
     d="m 21.129113,23.514124 c 0,0 3.261325,-0.911826 4.312397,-2.672838 -0.127507,2.05334 -1.99008,4.159067 -1.99008,4.159067 0,0 2.722878,-0.55105 3.884036,-2.467122 -0.15123,1.729012 -2.247567,4.065784 -2.247567,4.065784 2.143164,-0.384623 7.528131,-3.786305 5.824696,-12.83736 C 29.90662,8.4164715 24.970152,3.5595728 21.013837,3.2902256 19.258015,3.1706255 19.797203,4.0709619 18.698563,4.4138236 13.963983,5.8914031 13.89158,6.7540555 13.89158,6.7540555 c 10.038991,0.4718519 12.706764,5.7259755 7.502679,12.7545795 0.75652,-0.176559 1.059845,-0.592317 1.628192,-1.272728 -2.47e-4,0 0.257486,2.691001 -1.893338,5.278217 z"
     class="st11" /><path
     inkscape:connector-curvature="0"
     style="fill:url(#SVGID_8_);stroke-width:0.12355377"
     id="path104"
     d="m 8.2320761,11.572158 c 0,0 -0.5830502,0.407851 -1.0052334,0.303943 -0.499775,-0.122689 -0.5844094,-0.60702 -0.5844094,-0.60702 -0.010996,0.09921 -0.023722,0.194968 -0.042132,0.280838 -0.020757,0.09872 -0.2919576,0.353734 -0.3615183,1.041311 -0.074379,0.729585 0.1995393,1.152139 0.4561605,1.448544 C 7.6068939,12.706382 8.492898,12.377729 8.492898,12.377729 8.1458354,12.256399 8.2320759,11.572158 8.2320761,11.572158 Z"
     class="st12" /><path
     class="st18"
     d="m 20.946253,3.2776231 c 0.136651,-0.03546 0.694496,0.025205 1.060586,0.1894079 0.366213,0.164203 0.997449,0.4545543 0.492485,0.5808263 C 21.994236,4.1741293 21.703885,3.9721188 21.451341,3.7573824 21.198797,3.5426459 20.605368,3.365964 20.946253,3.2776231 Z"
     id="path130"
     style="fill:url(#SVGID_11_);stroke-width:0.12355377"
     inkscape:connector-curvature="0" /><path
     inkscape:connector-curvature="0"
     style="fill:url(#SVGID_12_);stroke-width:0.12355377"
     id="path147"
     d="m 8.2866869,11.492343 c 0,0 3.1985601,-5.2710513 6.0902121,-6.6935259 C 14.645382,4.6637728 10.373139,5.9343998 8.6538887,7.8320622 7.6319755,8.9599845 8.173141,11.168261 8.2866869,11.492343 Z"
     class="st19" /><path
     style="opacity:0.1;fill:#f2f2f2;stroke-width:0.12355377"
     inkscape:connector-curvature="0"
     id="path149"
     d="m 8.2866869,11.492343 c 0.00297,-0.0019 0.00618,-0.0037 0.00927,-0.0056 C 9.1230259,10.975724 10.540435,10.681419 10.997336,9.7551366 12.756372,6.1882628 14.377027,4.7987771 14.377027,4.7987771 11.48525,6.2212517 8.2866904,11.492303 8.2866904,11.492303 Z"
     class="st20" /><path
     style="fill:#2f4282;stroke-width:0.12355377"
     inkscape:connector-curvature="0"
     id="path151"
     d="m 8.5907527,10.528253 c 0,0 -0.5765019,-0.8845219 0.2536559,-1.6910809 0.4381217,-0.425025 1.1019761,-0.1889137 1.1787034,-0.1124339 0.326676,0.3239579 0.121329,1.0077045 -0.1727286,1.3946748 -0.1661798,0.217949 -0.6497693,0.557228 -1.2596307,0.40884 z"
     class="st21" /><path
     inkscape:connector-curvature="0"
     style="fill:url(#SVGID_13_);stroke-width:0.12355377"
     id="path166"
     d="m 8.9212591,10.473395 c 0,0 -0.3983374,-0.6114679 0.1756934,-1.1686954 C 9.3991651,9.0111358 9.8581673,9.1742268 9.911419,9.2268607 10.137028,9.4507401 9.9949413,9.9233333 9.7918189,10.19058 9.6770375,10.341686 9.342701,10.575944 8.9212591,10.473395 Z"
     class="st22" /><path
     style="stroke-width:0.12355377"
     inkscape:connector-curvature="0"
     id="path168"
     d="M 9.7164511,9.8209072 C 9.7075553,10.065297 9.5007263,10.256064 9.2546071,10.247662 9.0079938,10.239137 8.8150028,10.034408 8.8237752,9.7900188 8.8325475,9.545753 9.0392529,9.3549859 9.2859898,9.3633876 9.5321089,9.3719128 9.7249763,9.576765 9.7164511,9.8209072 Z" /><path
     class="st23"
     d="M 28.729152,9.0322635 C 26.539656,5.699277 24.804961,4.8523159 24.804961,4.8523159 c 0,0 0.07969,2.4278316 1.295338,3.5988742 0.138874,0.1338087 -1.454722,-1.0418054 -1.454722,-1.0418054 0,0 -0.340762,1.121374 0.440098,2.4105341 -0.226844,-0.3013477 -0.376962,-0.4155114 -0.376962,-0.4155114 0,0 -1.471279,0.6784336 -1.90557,1.6196666 -0.22425,-0.423295 -0.392407,-0.672627 -0.392407,-0.672627 0,0 -1.017589,2.030853 -0.889711,4.385541 0.208065,3.828684 -0.716982,5.239174 -0.716982,5.239174 0,0 2.478118,-0.950746 3.666582,-4.011544 0.491002,1.301392 -0.01495,2.671109 -0.01495,2.671109 0,0 2.002312,-1.496112 2.432897,-4.223067 0.477288,0.769739 0.336931,2.306007 0.336931,2.306007 0,0 1.27804,-1.779421 1.309176,-3.717239 0.592317,0.413041 0.646804,2.026159 0.646804,2.026159 0,0 1.89482,-2.422396 -0.452331,-5.9953235 z"
     id="path179"
     style="fill:url(#SVGID_14_);stroke-width:0.12355377"
     inkscape:connector-curvature="0" /><path
     class="st25"
     d="M 26.601186,6.7030278 C 26.029008,5.6367588 25.019327,4.957213 24.13184,4.4071517 21.919116,3.035087 20.496023,2.8423432 20.496023,2.8423432 c 0,0 -2.042096,0.3798043 -1.691327,0.9479045 0.01804,0.029159 0.06017,0.066101 0.1196,0.1083566 -1.791283,-0.825092 -2.807389,1.0720761 -2.807389,1.0720761 -1.023519,-0.062148 -2.269806,0.4417047 -2.633178,1.7914061 -0.03768,0.14011 0.458508,0.061283 0.71377,0.1167583 1.492406,0.3244522 2.897336,1.0279674 3.542905,1.3756477 1.501672,0.8090301 2.392618,2.1561365 2.906973,3.1665595 0.62234,1.222441 0.87649,3.373512 0.87649,3.373512 0,0 1.637458,-2.249296 1.246163,-3.404153 0.648534,0.402785 0.776536,1.839839 0.776536,1.839839 0,0 1.091597,-1.709737 0.768875,-3.198931 0.842019,0.513119 0.870066,1.556901 0.870066,1.556901 0,0 0.857339,-1.189946 0.469875,-3.1416014 0.847331,0.6737387 1.024631,1.5465226 1.024631,1.5465226 0,0 0.692643,-1.8524417 -0.07883,-3.2901134 z"
     id="path194"
     style="fill:url(#SVGID_15_);stroke-width:0.12355377"
     inkscape:connector-curvature="0" /></g>
</svg>