<?xml version="1.0" encoding="UTF-8" standalone="no"?>
<!-- Created with Inkscape (http://www.inkscape.org/) -->

<svg
   xmlns:dc="http://purl.org/dc/elements/1.1/"
   xmlns:cc="http://creativecommons.org/ns#"
   xmlns:rdf="http://www.w3.org/1999/02/22-rdf-syntax-ns#"
   xmlns:svg="http://www.w3.org/2000/svg"
   xmlns="http://www.w3.org/2000/svg"
   xmlns:sodipodi="http://sodipodi.sourceforge.net/DTD/sodipodi-0.dtd"
   xmlns:inkscape="http://www.inkscape.org/namespaces/inkscape"
   width="64"
   height="64"
   viewBox="0 0 16.933333 16.933334"
   version="1.1"
   id="svg8"
   inkscape:version="0.92.4 5da689c313, 2019-01-14"
   sodipodi:docname="om-update-config.svg">
  <title
     id="title1907">om-update-config</title>
  <defs
     id="defs2" />
  <sodipodi:namedview
     id="base"
     pagecolor="#ffffff"
     bordercolor="#666666"
     borderopacity="1.0"
     inkscape:pageopacity="0.0"
     inkscape:pageshadow="2"
     inkscape:zoom="4.2263032"
     inkscape:cx="64.016106"
     inkscape:cy="19.675399"
     inkscape:document-units="px"
     inkscape:current-layer="layer1"
     showgrid="false"
     units="px" />
  <metadata
     id="metadata5">
    <rdf:RDF>
      <cc:Work
         rdf:about="">
        <dc:format>image/svg+xml</dc:format>
        <dc:type
           rdf:resource="http://purl.org/dc/dcmitype/StillImage" />
        <dc:title>om-update-config</dc:title>
        <dc:creator>
          <cc:Agent>
            <dc:title>ruru</dc:title>
          </cc:Agent>
        </dc:creator>
      </cc:Work>
    </rdf:RDF>
  </metadata>
  <g
     inkscape:label="Livello 1"
     inkscape:groupmode="layer"
     id="layer1"
     transform="translate(0,-280.06666)">
    <g
       id="g1905">
      <rect
         style="fill:none;fill-opacity:1;stroke:none;stroke-width:0.63496768;stroke-miterlimit:4;stroke-dasharray:none;stroke-opacity:1"
         id="rect1061"
         width="16.933332"
         height="16.933332"
         x="5.2838135e-07"
         y="280.06665" />
      <g
         transform="matrix(0.06201169,0,0,0.06201169,4.6178948,253.81174)"
         id="g11816-8-4">
        <g
           id="g11818-1-7">
          <path
             id="path11820-2-6"
             d="m 185.78304,492.96608 -67.66863,23.6474 -69.552812,26.31636 41.846713,29.23102 c -9.954111,33.20955 -29.144262,63.52953 -66.34235,76.63439 -28.4723411,10.01821 -53.875447,8.9842 -72.477847,-8.02813 l -2.090885,2.22679 c 13.092707,17.33272 100.024896,64.69483 176.190251,1.30344 5.18409,-4.32193 15.32802,-18.19066 24.57257,-29.67145 l 35.85826,24.37961 0.77431,-74.35433 -1.10979,-71.68536 z"
             class="fil65"
             inkscape:connector-curvature="0"
             style="clip-rule:evenodd;fill:#d40000;fill-rule:evenodd;image-rendering:optimizeQuality;shape-rendering:geometricPrecision;text-rendering:geometricPrecision" />
          <path
             id="path11822-2-5"
             d="m 182.69077,497.41094 -63.45454,22.17496 -63.93254,24.18717 36.91497,25.78672 1.87671,1.31321 -0.65754,2.2078 c -5.08891,16.96057 -12.54544,33.21774 -23.49953,46.91357 -11.03671,13.80306 -25.616658,25.03163 -44.821515,31.79717 -15.105592,5.31448 -29.4638919,7.59958 -42.490982,6.16295 -3.800181,-0.41984 -7.481699,-1.15891 -11.040245,-2.22338 10.84268,5.91188 25.2514631,11.65522 41.805243,14.85382 30.703576,5.93287 68.648239,2.93571 104.615819,-24.23269 l 0.006,0.004 c 1.7587,-1.34372 3.65258,-2.83153 5.6383,-4.49313 3.46801,-2.89432 9.701,-10.85833 16.2942,-19.2947 2.63698,-3.38204 5.3689,-6.86283 7.83306,-9.92635 l 1.83745,-2.28215 2.43643,1.65226 30.95848,21.04803 0.71051,-68.44368 0.0102,-0.002 -1.04058,-67.20401 z m -65.62714,16.20626 67.66865,-23.64739 4.14298,-1.44834 0.0703,4.40014 1.10977,71.68534 0.01,0.079 -0.77432,74.35436 -0.0638,5.91064 -4.89964,-3.33179 -33.4136,-22.71281 -5.96127,7.56759 c -6.80709,8.70852 -13.23505,16.93039 -17.22729,20.25744 -1.83194,1.53026 -3.82049,3.08973 -5.89256,4.6648 l -0.008,0.0121 c -37.6945,28.47931 -77.453328,31.626 -109.626232,25.4055 -32.210008,-6.21888 -57.02281,-22.00734 -64.562732,-31.06344 l -0.04945,-0.0607 -0.571849,-0.71977 -1.709394,-2.15501 1.873435,-2.00258 2.090906,-2.22678 2.149971,-2.28643 2.307645,2.11902 c 8.487837,7.76654 18.50014,12.00761 29.592747,13.23806 12.0183241,1.32787 25.4461611,-0.84842 39.695915,-5.85738 C 40.993901,639.46744 54.6292,628.96612 64.96514,616.03925 74.92,603.58867 81.865,588.8746 86.70926,573.43978 l -39.95788,-27.90895 -4.931666,-3.44448 5.620276,-2.12917 69.55282,-26.31635 0.0711,-0.0239 z"
             class="fil75"
             inkscape:connector-curvature="0"
             style="clip-rule:evenodd;fill:#ffffff;fill-rule:nonzero;image-rendering:optimizeQuality;shape-rendering:geometricPrecision;text-rendering:geometricPrecision" />
        </g>
        <g
           id="g11824-6-6">
          <path
             style="clip-rule:evenodd;fill:#d40000;fill-rule:evenodd;image-rendering:optimizeQuality;shape-rendering:geometricPrecision;text-rendering:geometricPrecision"
             inkscape:connector-curvature="0"
             class="fil65"
             d="M -61.652737,626.87385 6.0158924,603.22645 75.568702,576.91009 33.721989,547.67907 c 9.954111,-33.20955 29.144262,-63.52953 66.342351,-76.63439 28.47234,-10.01821 53.87545,-8.9842 72.47785,8.02813 l 2.09088,-2.22679 C 161.54036,459.5133 74.608175,412.15119 -1.5571759,475.54258 c -5.184094,4.32193 -15.3280281,18.19066 -24.5725771,29.67145 l -35.858258,-24.37961 -0.774312,74.35433 1.109793,71.68536 z"
             id="path11826-9-9" />
          <path
             style="clip-rule:evenodd;fill:#ffffff;fill-rule:nonzero;image-rendering:optimizeQuality;shape-rendering:geometricPrecision;text-rendering:geometricPrecision"
             inkscape:connector-curvature="0"
             class="fil75"
             d="M -58.560462,622.42899 4.8940839,600.25403 68.826596,576.06686 31.91165,550.28014 l -1.876709,-1.31321 0.657538,-2.2078 c 5.088907,-16.96057 12.545427,-33.21774 23.499517,-46.91357 11.03671,-13.80306 25.61667,-25.03163 44.82153,-31.79717 15.105594,-5.31448 29.463894,-7.59958 42.490984,-6.16295 3.80018,0.41984 7.4817,1.15891 11.04024,2.22338 C 141.70207,458.19694 127.29329,452.4536 110.73951,449.255 80.035936,443.32213 42.091256,446.31929 6.1236939,473.48769 l -0.0061,-0.004 c -1.758697,1.34372 -3.652577,2.83153 -5.63830599,4.49313 -3.46800301,2.89432 -9.70099901,10.85833 -16.29419891,19.2947 -2.636976,3.38204 -5.368896,6.86283 -7.833059,9.92635 l -1.837451,2.28215 -2.436429,-1.65226 -30.958476,-21.04803 -0.710512,68.44368 -0.01024,0.002 1.040581,67.20401 z m 65.6271449,-16.20626 -67.6686509,23.64739 -4.142981,1.44834 -0.07028,-4.40014 -1.109772,-71.68534 -0.0098,-0.079 0.774326,-74.35436 0.06379,-5.91064 4.899643,3.33179 33.413604,22.71281 5.961261,-7.56759 c 6.80709,-8.70852 13.2350529,-16.93039 17.2272919,-20.25744 1.831946,-1.53026 3.82049401,-3.08973 5.892567,-4.6648 l 0.0083,-0.0121 c 37.6945041,-28.47931 77.4533441,-31.626 109.6262481,-25.4055 32.21001,6.21888 57.02281,22.00734 64.56273,31.06344 l 0.0495,0.0607 0.57185,0.71977 1.70939,2.15501 -1.87343,2.00258 -2.09091,2.22678 -2.14997,2.28643 -2.30764,-2.11902 c -8.48784,-7.76654 -18.50014,-12.00761 -29.59275,-13.23806 -12.01832,-1.32787 -25.44616,0.84842 -39.69591,5.85738 -17.978634,6.33142 -31.613944,16.83274 -41.949884,29.75961 -9.95486,12.45058 -16.89986,27.16465 -21.74412,42.59947 l 39.95789,27.90895 4.93167,3.44448 -5.62029,2.12917 -69.5528021,26.31635 -0.07109,0.0239 z"
             id="path11828-1-3" />
        </g>
      </g>
    </g>
  </g>
</svg>
