<?xml version="1.0" encoding="UTF-8" standalone="no"?>
<svg
   xmlns:dc="http://purl.org/dc/elements/1.1/"
   xmlns:cc="http://creativecommons.org/ns#"
   xmlns:rdf="http://www.w3.org/1999/02/22-rdf-syntax-ns#"
   xmlns:svg="http://www.w3.org/2000/svg"
   xmlns="http://www.w3.org/2000/svg"
   xmlns:xlink="http://www.w3.org/1999/xlink"
   xmlns:sodipodi="http://sodipodi.sourceforge.net/DTD/sodipodi-0.dtd"
   xmlns:inkscape="http://www.inkscape.org/namespaces/inkscape"
   version="1.1"
   id="svg2"
   height="32"
   width="32"
   sodipodi:docname="babe32.svg"
   inkscape:version="0.92.4 5da689c313, 2019-01-14">
  <sodipodi:namedview
     pagecolor="#ffffff"
     bordercolor="#666666"
     borderopacity="1"
     objecttolerance="10"
     gridtolerance="10"
     guidetolerance="10"
     inkscape:pageopacity="0"
     inkscape:pageshadow="2"
     inkscape:window-width="1119"
     inkscape:window-height="722"
     id="namedview17"
     showgrid="false"
     fit-margin-top="0"
     fit-margin-left="0"
     fit-margin-right="0"
     fit-margin-bottom="0"
     inkscape:zoom="4.9166667"
     inkscape:cx="-3.1525424"
     inkscape:cy="24"
     inkscape:window-x="80"
     inkscape:window-y="0"
     inkscape:window-maximized="0"
     inkscape:current-layer="svg2" />
  <metadata
     id="metadata28">
    <rdf:RDF>
      <cc:Work
         rdf:about="">
        <dc:format>image/svg+xml</dc:format>
        <dc:type
           rdf:resource="http://purl.org/dc/dcmitype/StillImage" />
        <dc:title></dc:title>
      </cc:Work>
    </rdf:RDF>
  </metadata>
  <defs
     id="defs4">
    <linearGradient
       id="linearGradient4235">
      <stop
         offset="0"
         style="stop-color:#f85b79;stop-opacity:1;"
         id="stop4237" />
      <stop
         offset="1"
         style="stop-color:#f85b79;stop-opacity:1;"
         id="stop4243" />
    </linearGradient>
    <linearGradient
       gradientUnits="userSpaceOnUse"
       y2="44"
       x2="18"
       y1="4"
       x1="18"
       id="linearGradient4233"
       xlink:href="#linearGradient4235" />
    <linearGradient
       gradientUnits="userSpaceOnUse"
       y2="44"
       x2="-16"
       y1="4"
       x1="-56"
       id="linearGradient4702"
       xlink:href="#m"
       gradientTransform="translate(60)" />
    <linearGradient
       gradientUnits="userSpaceOnUse"
       x2="35"
       y2="32"
       x1="10"
       y1="7"
       id="m"
       gradientTransform="translate(85,55)">
      <stop
         id="stop27"
         stop-color="#383e51" />
      <stop
         id="stop29"
         stop-opacity="0"
         stop-color="#655c6f"
         offset="1" />
    </linearGradient>
  </defs>
  <g
     id="g4555">
    <rect
       style="fill:none;stroke:none;stroke-width:1.0925926"
       y="0"
       x="0"
       height="32"
       width="32"
       id="rect3722" />
    <g
       transform="scale(0.66666667)"
       id="g4533">
      <rect
         width="40"
         height="40"
         rx="2"
         ry="2"
         x="4"
         y="4"
         id="rect5505-21"
         style="color:#000000;display:inline;overflow:visible;visibility:visible;fill:url(#linearGradient4233);fill-opacity:1;fill-rule:nonzero;stroke:none;stroke-width:1.0666666;marker:none;enable-background:accumulate" />
      <path
         id="path4694"
         d="M 8,29 23,44 H 44 V 20 l -4,-4 h -5 l -2,-2 -5,3 2,2 H 28 L 26.5,18 H 24 l -4,-4 -5,3 2,2 h -1 l -3,-3 v 3 H 8 l 2,2 -2,3 2,2 z"
         style="opacity:0.2;fill:url(#linearGradient4702);fill-opacity:1;fill-rule:evenodd;stroke:none;stroke-width:1px;stroke-linecap:butt;stroke-linejoin:miter;stroke-opacity:1"
         inkscape:connector-curvature="0" />
      <path
         id="rect3834-3-39-6"
         d="m 15,14 v 3 h 5 v -3 z m 13,0 v 3 h 5 V 14 Z M 8,16 v 3 h 5 v -3 z m 27,0 v 3 h 5 v -3 z m -13.5,2 v 3 h 5 V 18 Z M 15,19 v 3 h 5 v -3 z m 13,0 v 3 h 5 V 19 Z M 8,21 v 3 h 5 v -3 z m 27,0 v 3 h 5 v -3 z m -13.5,2 v 3 h 5 V 23 Z M 15,24 v 3 h 5 v -3 z m 13,0 v 3 h 5 V 24 Z M 8,26 v 3 h 5 v -3 z m 27,0 v 3 h 5 v -3 z m -13.5,2 v 3 h 5 V 28 Z M 15,29 v 3 h 5 v -3 z m 13,0 v 3 h 5 v -3 z m -6.5,4 v 3 h 5 v -3 z"
         style="color:#000000;display:inline;overflow:visible;visibility:visible;fill:#fffbfb;fill-opacity:1;fill-rule:nonzero;stroke:none;stroke-width:1.13690269;marker:none;enable-background:accumulate"
         inkscape:connector-curvature="0" />
      <path
         id="rect4743"
         d="M 4.2753906,43 C 4.6209515,43.595799 5.2589301,44 6,44 h 36 c 0.74107,0 1.379048,-0.404201 1.724609,-1 z"
         style="opacity:0.15;fill:#000000;fill-opacity:1;stroke:none;stroke-width:3;stroke-miterlimit:4;stroke-dasharray:none;stroke-opacity:1"
         inkscape:connector-curvature="0" />
    </g>
  </g>
</svg>
