<?xml version="1.0" encoding="UTF-8" standalone="no"?>
<!-- Created with Inkscape (http://www.inkscape.org/) -->

<svg
   width="64.0px"
   height="64.0px"
   viewBox="0 0 64.0 64.0"
   version="1.1"
   id="SVGRoot"
   sodipodi:docname="blinken.svg"
   inkscape:version="1.1.2 (0a00cf5339, 2022-02-04)"
   xmlns:inkscape="http://www.inkscape.org/namespaces/inkscape"
   xmlns:sodipodi="http://sodipodi.sourceforge.net/DTD/sodipodi-0.dtd"
   xmlns="http://www.w3.org/2000/svg"
   xmlns:svg="http://www.w3.org/2000/svg">
  <sodipodi:namedview
     id="namedview27"
     pagecolor="#ffffff"
     bordercolor="#666666"
     borderopacity="1.0"
     inkscape:pageshadow="2"
     inkscape:pageopacity="0.0"
     inkscape:pagecheckerboard="0"
     inkscape:document-units="px"
     showgrid="true"
     inkscape:zoom="3.7558361"
     inkscape:cx="22.764571"
     inkscape:cy="55.64673"
     inkscape:window-width="1366"
     inkscape:window-height="701"
     inkscape:window-x="0"
     inkscape:window-y="0"
     inkscape:window-maximized="1"
     inkscape:current-layer="layer1">
    <inkscape:grid
       type="xygrid"
       id="grid33" />
  </sodipodi:namedview>
  <defs
     id="defs22" />
  <g
     inkscape:label="Livello 1"
     inkscape:groupmode="layer"
     id="layer1">
    <g
       id="g344">
      <rect
         style="fill:none;fill-rule:evenodd;stroke-width:1.42222"
         id="rect210"
         width="64"
         height="64"
         x="0"
         y="0" />
      <g
         transform="matrix(1.0329144,0,0,1.0329144,1.0125685,1.012568)"
         id="g2063">
        <g
           transform="matrix(1.098681,0,0,1.098681,-2.960297,-2.960434)"
           id="g2099">
          <path
             style="color:#000000;fill:#7fbb55;fill-opacity:1;fill-rule:evenodd;stroke:#4f4f4f;stroke-width:0;stroke-linecap:round;stroke-linejoin:round;stroke-miterlimit:4;stroke-dashoffset:0;stroke-opacity:1;marker:none;marker-start:none;marker-mid:none;marker-end:none"
             d="m 29.65625,29.875 -9.0625,15.84375 c 0.08651,0.05079 0.162905,0.105965 0.25,0.15625 12.985779,7.497397 27.591385,6.49552 32.6875,-2.1875 z"
             id="path2087"
             sodipodi:nodetypes="ccccc" />
          <path
             style="color:#000000;fill:#ee5f4c;fill-opacity:1;fill-rule:evenodd;stroke:#000000;stroke-width:0;stroke-linecap:round;stroke-linejoin:round;stroke-miterlimit:4;stroke-dashoffset:0;stroke-opacity:1;marker:none;marker-start:none;marker-mid:none;marker-end:none"
             d="m 38.78125,13.9375 -9.125,15.9375 23.875,13.8125 c 0.01511,-0.02574 0.04756,-0.03662 0.0625,-0.0625 5.054464,-8.754595 -1.413224,-21.980377 -14.4375,-29.5 -0.124265,-0.07174 -0.250438,-0.117317 -0.375,-0.1875 z"
             id="path2089"
             sodipodi:nodetypes="cccccc" />
          <path
             style="color:#000000;fill:#5e8fcb;fill-opacity:1;fill-rule:evenodd;stroke:#4f4f4f;stroke-width:0;stroke-linecap:round;stroke-linejoin:round;stroke-miterlimit:4;stroke-dashoffset:0;stroke-opacity:1;marker:none;marker-start:none;marker-mid:none;marker-end:none"
             d="M 6.375,16.4375 C 1.419359,25.133664 7.774114,38.191789 20.59375,45.71875 L 29.65625,29.875 Z"
             id="path2082" />
          <path
             style="color:#000000;fill:#ffe940;fill-opacity:1;fill-rule:evenodd;stroke:#000000;stroke-width:0;stroke-linecap:round;stroke-linejoin:round;stroke-miterlimit:4;stroke-dashoffset:0;stroke-opacity:1;marker:none;marker-start:none;marker-mid:none;marker-end:none"
             d="M 19.78125,9.15625 C 13.853258,9.5611954 8.933483,11.997703 6.40625,16.375 6.394462,16.395417 6.386663,16.417034 6.375,16.4375 l 23.28125,13.4375 9.125,-15.9375 c -6.403188,-3.607778 -13.185126,-5.1784682 -19,-4.78125 z"
             id="path2933" />
        </g>
        <path
           id="path5375"
           d="M 43.757635,37.943074 C 39.373012,45.53747 29.650911,48.142503 22.056514,43.757881 14.462119,39.373259 11.857086,29.651157 16.241708,22.056761 c 4.384623,-7.594395 14.106724,-10.199428 21.70112,-5.814807 7.594396,4.384623 10.199429,14.106725 5.814807,21.70112 z"
           style="color:#000000;fill:#3d3d3d;fill-opacity:1;fill-rule:evenodd;stroke:#000000;stroke-width:2.47224;stroke-linecap:round;stroke-linejoin:round;stroke-miterlimit:4;stroke-dashoffset:0;stroke-opacity:1;marker:none;marker-start:none;marker-mid:none;marker-end:none" />
        <path
           id="path5399"
           d="M 55.923052,44.966788 C 50.369808,54.585295 34.2493,55.686497 19.939776,47.424832 5.6302514,39.163165 -1.4762956,24.651719 4.0769477,15.033212 9.6301906,5.414706 25.750697,4.313502 40.060223,12.575169 54.369747,20.836836 61.476294,35.348282 55.923052,44.966788 Z"
           style="color:#000000;fill:none;fill-opacity:1;fill-rule:evenodd;stroke:#000000;stroke-width:2.47224;stroke-linecap:round;stroke-linejoin:round;stroke-miterlimit:4;stroke-dashoffset:0;stroke-opacity:1;marker:none;marker-start:none;marker-mid:none;marker-end:none" />
        <path
           sodipodi:nodetypes="cc"
           id="path2160"
           d="m 19.90814,47.48045 2.378544,-4.119762"
           style="fill:none;fill-opacity:0.75;fill-rule:evenodd;stroke:#000000;stroke-width:2.47224;stroke-linecap:butt;stroke-linejoin:miter;stroke-miterlimit:4;stroke-opacity:1" />
        <path
           sodipodi:nodetypes="cc"
           id="path2920"
           d="m 37.714262,16.639319 2.378544,-4.11976"
           style="fill:none;fill-opacity:0.75;fill-rule:evenodd;stroke:#000000;stroke-width:2.47224;stroke-linecap:butt;stroke-linejoin:miter;stroke-miterlimit:4;stroke-opacity:1" />
        <path
           id="path2928"
           d="M 4.0121294,14.995637 16.639789,22.286215"
           style="fill:none;fill-opacity:0.75;fill-rule:evenodd;stroke:#000000;stroke-width:2.47224;stroke-linecap:butt;stroke-linejoin:miter;stroke-miterlimit:4;stroke-opacity:1" />
        <path
           id="path2930"
           d="M 43.361159,37.713794 55.988817,45.00437"
           style="fill:none;fill-opacity:0.75;fill-rule:evenodd;stroke:#000000;stroke-width:2.47224;stroke-linecap:butt;stroke-linejoin:miter;stroke-miterlimit:4;stroke-opacity:1" />
        <g
           transform="matrix(0.06333947,0.03656903,-0.03562383,0.06170232,24.09357,-1.379237)"
           id="g2180"
           style="fill:#cccccc;fill-opacity:1">
          <path
             d="m 182.8125,241.875 -25.90625,25.9375 22.625,35.90625 c -3.81735,6.61524 -6.85829,13.71659 -9.0625,21.1875 l -40.90625,10.5625 v 33.09375 l 41.125,12.875 c 2.12042,6.95968 5.00463,13.56753 8.53125,19.78125 l -23.75,32.125 27.34375,27.34375 30.53125,-24.15625 c 7.44407,4.59257 15.51144,8.22743 24.09375,10.71875 l 9.4375,43.6875 h 34.5625 l 7.3125,-42.71875 c 8.66254,-2.16693 16.85304,-5.51868 24.4375,-9.8125 L 345.5,462.125 l 25.90625,-28.78125 -5.33043,-14.22336 -16.21875,6.84375 -19.95082,-25.74539 c -14.6732,20.04461 -38.30889,33.125 -65.03125,33.125 -44.49989,0 -80.625,-36.12511 -80.625,-80.625 0,-31.55572 18.22047,-58.80241 44.65625,-72.03125 V 261.125 c -3.87571,1.52469 -7.60008,3.32993 -11.21875,5.3125 z"
             style="fill-rule:evenodd;stroke:none;stroke-width:1pt;stroke-linecap:butt;stroke-linejoin:miter;stroke-opacity:1"
             id="path920" />
          <path
             d="m 237.17711,215.20644 v 197.9869 l 51.40534,-3.56274 0.50896,-83.97902 63.11151,91.61347 51.9143,-17.30476 -64.6384,-90.08659 v -1.01793 l 62.60255,-82.45213 -52.93223,-17.30476 -63.11151,88.05073 2.5,-87.54177 z"
             style="fill-rule:evenodd;stroke:none;stroke-width:1pt;stroke-linecap:butt;stroke-linejoin:miter;stroke-opacity:1"
             id="path1553" />
        </g>
      </g>
    </g>
  </g>
</svg>
