<?xml version="1.0" encoding="UTF-8" standalone="no"?>
<svg
   height="32"
   viewBox="0 0 32 32"
   width="32"
   version="1.1"
   id="svg117"
   sodipodi:docname="bottles.svg"
   inkscape:version="1.1.1 (3bf5ae0d25, 2021-09-20)"
   xmlns:inkscape="http://www.inkscape.org/namespaces/inkscape"
   xmlns:sodipodi="http://sodipodi.sourceforge.net/DTD/sodipodi-0.dtd"
   xmlns:xlink="http://www.w3.org/1999/xlink"
   xmlns="http://www.w3.org/2000/svg"
   xmlns:svg="http://www.w3.org/2000/svg">
  <defs
     id="defs121" />
  <sodipodi:namedview
     id="namedview119"
     pagecolor="#ffffff"
     bordercolor="#666666"
     borderopacity="1.0"
     inkscape:pageshadow="2"
     inkscape:pageopacity="0.0"
     inkscape:pagecheckerboard="0"
     showgrid="false"
     fit-margin-top="0"
     fit-margin-left="0"
     fit-margin-right="0"
     fit-margin-bottom="0"
     inkscape:zoom="9.8125"
     inkscape:cx="26.700637"
     inkscape:cy="8.8152866"
     inkscape:window-width="1920"
     inkscape:window-height="1009"
     inkscape:window-x="0"
     inkscape:window-y="0"
     inkscape:window-maximized="1"
     inkscape:current-layer="svg117" />
  <linearGradient
     id="a"
     gradientUnits="userSpaceOnUse"
     x1="49"
     x2="79"
     y1="67.999878"
     y2="67.999878">
    <stop
       offset="0"
       stop-color="#deddda"
       id="stop2" />
    <stop
       offset="0.25"
       stop-color="#f6f5f4"
       id="stop4" />
    <stop
       offset="0.75"
       stop-color="#ffffff"
       id="stop6" />
    <stop
       offset="1"
       stop-color="#deddda"
       stop-opacity="0.854902"
       id="stop8" />
  </linearGradient>
  <linearGradient
     id="b"
     gradientTransform="matrix(1.002882,0,0,1,-0.141199,0)"
     gradientUnits="userSpaceOnUse"
     x1="49"
     x2="79"
     y1="31.453125"
     y2="31.453125">
    <stop
       offset="0"
       stop-color="#c0bfbc"
       id="stop11" />
    <stop
       offset="0.25"
       stop-color="#deddda"
       id="stop13" />
    <stop
       offset="0.75"
       stop-color="#f6f5f4"
       id="stop15" />
    <stop
       offset="1"
       stop-color="#c0bfbc"
       id="stop17" />
  </linearGradient>
  <linearGradient
     id="c"
     gradientUnits="userSpaceOnUse"
     x1="12"
     x2="49"
     y1="42.916992"
     y2="42.916992">
    <stop
       offset="0"
       stop-color="#c0bfbc"
       id="stop20" />
    <stop
       offset="0.25"
       stop-color="#deddda"
       id="stop22" />
    <stop
       offset="0.75"
       stop-color="#deddda"
       id="stop24" />
    <stop
       offset="1"
       stop-color="#c0bfbc"
       id="stop26" />
  </linearGradient>
  <linearGradient
     id="d"
     gradientUnits="userSpaceOnUse">
    <stop
       offset="0"
       stop-color="#1a5fb4"
       id="stop29" />
    <stop
       offset="0.25"
       stop-color="#1c71d8"
       id="stop31" />
    <stop
       offset="0.75"
       stop-color="#3584e4"
       id="stop33" />
    <stop
       offset="1"
       stop-color="#1a5fb4"
       id="stop35" />
  </linearGradient>
  <linearGradient
     id="e"
     x1="49"
     x2="79"
     xlink:href="#d"
     y1="21.471176"
     y2="21.471176" />
  <linearGradient
     id="f"
     x1="49.000114"
     x2="79.000107"
     xlink:href="#d"
     y1="67.999878"
     y2="67.999878" />
  <linearGradient
     id="g"
     gradientUnits="userSpaceOnUse"
     x1="12.000113"
     x2="49.000111"
     y1="74.969727"
     y2="74.969727">
    <stop
       offset="0"
       stop-color="#ffa348"
       id="stop40" />
    <stop
       offset="0.25"
       stop-color="#ffbe6f"
       id="stop42" />
    <stop
       offset="0.75"
       stop-color="#ffbe6f"
       id="stop44" />
    <stop
       offset="1"
       stop-color="#ffa348"
       id="stop46" />
  </linearGradient>
  <linearGradient
     id="h"
     gradientUnits="userSpaceOnUse"
     x1="79.00045"
     x2="116.00044"
     y1="75.564209"
     y2="75.564209">
    <stop
       offset="0"
       stop-color="#e01b24"
       id="stop49" />
    <stop
       offset="0.25"
       stop-color="#ed333b"
       id="stop51" />
    <stop
       offset="0.75"
       stop-color="#f66151"
       id="stop53" />
    <stop
       offset="1"
       stop-color="#e01b24"
       id="stop55" />
  </linearGradient>
  <linearGradient
     id="i"
     gradientUnits="userSpaceOnUse"
     x1="24"
     x2="37"
     y1="14"
     y2="14">
    <stop
       offset="0"
       stop-color="#33d17a"
       id="stop58" />
    <stop
       offset="0.388454"
       stop-color="#57e389"
       id="stop60" />
    <stop
       offset="0.75"
       stop-color="#57e389"
       id="stop62" />
    <stop
       offset="1"
       stop-color="#2ec27e"
       stop-opacity="0.854902"
       id="stop64" />
  </linearGradient>
  <linearGradient
     id="j"
     gradientUnits="userSpaceOnUse"
     x1="79"
     x2="116"
     y1="35.961914"
     y2="35.961914">
    <stop
       offset="0"
       stop-color="#3d3846"
       id="stop67" />
    <stop
       offset="0.25"
       stop-color="#5e5c64"
       id="stop69" />
    <stop
       offset="0.75"
       stop-color="#77767b"
       id="stop71" />
    <stop
       offset="1"
       stop-color="#77767b"
       id="stop73" />
  </linearGradient>
  <linearGradient
     id="k"
     gradientUnits="userSpaceOnUse">
    <stop
       offset="0"
       stop-color="#9a9996"
       id="stop76" />
    <stop
       offset="0.25"
       stop-color="#c0bfbc"
       id="stop78" />
    <stop
       offset="0.75"
       stop-color="#deddda"
       id="stop80" />
    <stop
       offset="1"
       stop-color="#9a9996"
       id="stop82" />
  </linearGradient>
  <linearGradient
     id="l"
     x1="79"
     x2="116"
     xlink:href="#k"
     y1="31.472427"
     y2="31.472427" />
  <linearGradient
     id="m"
     gradientTransform="matrix(0.999963,0,0,0.814473,0.003815,-120.79443)"
     x1="78.999084"
     x2="116.00044"
     xlink:href="#k"
     y1="273.23233"
     y2="273.23233" />
  <g
     id="g1209">
    <rect
       style="fill:none;fill-opacity:1;stroke:none;stroke-width:0.605035"
       id="rect179"
       width="32"
       height="32"
       x="0"
       y="0" />
    <g
       id="g155"
       transform="scale(0.25)">
      <path
         d="M 54.546875,24 C 54.546875,24 49,37.609375 49,38.515625 V 112 H 79 V 38.511719 C 79,38.515625 74,24 74,24 Z m 0,0"
         fill="url(#a)"
         id="path87"
         style="fill:url(#a)" />
      <path
         d="m 54,24 c 0,0 -5,13.609375 -5,14.511719 H 79 C 79,38.023438 74,24 74,24 Z m 0,0"
         fill="url(#b)"
         id="path89"
         style="fill:url(#b)" />
      <path
         d="m 12,47.894531 c 0.496094,0.01563 37,0 37,0 C 49,35.078125 37.15625,24 37,16 H 24 c 0,8 -12.003906,19.078125 -12,31.894531 z m 0,0"
         fill="url(#c)"
         id="path91"
         style="fill:url(#c)" />
      <path
         d="M 79,112 H 49 v 4 h 30 z m 0,0"
         fill="#c0bfbc"
         id="path93" />
      <path
         d="M 54,18.941406 V 24 h 20 v -5.058594 z m 0,0"
         fill="url(#e)"
         id="path95"
         style="fill:url(#e)" />
      <path
         d="m 64,56.035156 c -7.5,0 -7.5,9.457032 -7.5,9.457032 H 49 v 14.46875 h 30 v -14.46875 h -7.5 c 0,0 0,-9.457032 -7.5,-9.457032 z m 0,2 c 0,0 5.453125,6.652344 3.457031,9.941406 -1.996093,3.289063 -4.921875,3.289063 -6.917969,0 C 58.542969,64.6875 64,58.035156 64,58.035156 Z m 0,0"
         fill="url(#f)"
         id="path97"
         style="fill:url(#f)" />
      <path
         d="M 49,112 H 19.425781 c -0.125,0 -0.253906,-0.004 -0.378906,-0.0117 -0.128906,-0.004 -0.253906,-0.0156 -0.378906,-0.0312 -0.128907,-0.0117 -0.25,-0.0273 -0.375,-0.0508 -0.125,-0.0195 -0.242188,-0.043 -0.367188,-0.0703 -0.121093,-0.0234 -0.242187,-0.0547 -0.359375,-0.0898 -0.117187,-0.0312 -0.234375,-0.0664 -0.351562,-0.10546 -0.234375,-0.0781 -0.460938,-0.16797 -0.683594,-0.26954 -0.222656,-0.0977 -0.441406,-0.21093 -0.652344,-0.33593 -0.207031,-0.1211 -0.410156,-0.25391 -0.609375,-0.39844 -0.199219,-0.14453 -0.390625,-0.29688 -0.570312,-0.46094 -0.183594,-0.16015 -0.363281,-0.33203 -0.527344,-0.51562 -0.167969,-0.17969 -0.328125,-0.3711 -0.480469,-0.56641 -0.152344,-0.19922 -0.292968,-0.40234 -0.425781,-0.61719 -0.132813,-0.21093 -0.257813,-0.42968 -0.371094,-0.65625 -0.113281,-0.22656 -0.21875,-0.46093 -0.3125,-0.70312 -0.09375,-0.23828 -0.179687,-0.48047 -0.25,-0.73438 -0.07031,-0.25 -0.132812,-0.5039 -0.179687,-0.76562 -0.05078,-0.26172 -0.08984,-0.52735 -0.113282,-0.79688 C 12.015625,104.55078 12,104.27734 12,104 v 3.58203 0.004 c 0,0.28906 0.01563,0.57812 0.04297,0.85937 v 0.004 c 0.02734,0.28125 0.07031,0.55859 0.125,0.83203 0.05078,0.27344 0.121093,0.54297 0.199219,0.80469 v 0.004 c 0.07812,0.26172 0.171874,0.51563 0.273437,0.76954 0.101563,0.25 0.21875,0.49609 0.347656,0.73437 0.375,0.71094 0.851563,1.36328 1.40625,1.93359 1.480469,1.51954 3.527344,2.46094 5.800781,2.47266 H 49 Z m 0,0"
         fill="#e66100"
         id="path99" />
      <path
         d="m 21.40625,24 c -0.0039,0.0039 -0.0078,0.0078 -0.01172,0.01172 C 17.863281,30.816406 11.996094,38.925781 12,47.890625 V 104 c 0,0.27734 0.01563,0.55078 0.03906,0.82031 0.02344,0.26953 0.0625,0.53516 0.109376,0.79688 0.05078,0.26172 0.113281,0.51562 0.183593,0.76953 0.07031,0.25 0.15625,0.49219 0.25,0.73047 0.09375,0.24219 0.199219,0.47656 0.3125,0.70312 0.113281,0.22657 0.238281,0.44532 0.371094,0.66016 0.132813,0.21094 0.273437,0.41406 0.425781,0.61328 0.152344,0.19922 0.3125,0.38672 0.476563,0.57031 0.167969,0.17969 0.347656,0.35157 0.527343,0.51172 0.183594,0.16406 0.375,0.31641 0.574219,0.46094 0.199219,0.14453 0.402344,0.27734 0.609375,0.40234 0.210938,0.1211 0.429688,0.23438 0.652344,0.33594 0.222656,0.0977 0.449219,0.1875 0.683594,0.26563 0.117187,0.0391 0.234375,0.0742 0.351562,0.10937 0.117188,0.0312 0.238282,0.0625 0.359375,0.0859 0.125,0.0273 0.242188,0.0508 0.367188,0.0703 0.125,0.0234 0.246093,0.0391 0.371093,0.0508 0.128907,0.0156 0.253907,0.0273 0.378907,0.0312 0.128906,0.008 0.257812,0.0117 0.382812,0.0117 H 49 V 47.890625 c 0,-8.964844 -5.789062,-17.074219 -9.324219,-23.878906 -0.0039,-0.0039 -0.0078,-0.0078 -0.01172,-0.01172 z m 0,0"
         fill="url(#g)"
         id="path101"
         style="fill:url(#g)" />
      <path
         d="m 87,36.945312 c -4.253906,2.078126 -8,6.710938 -8,11.527344 V 116 h 28.80469 C 112.34766,115.98047 116,112.23438 116,107.58594 V 48.472656 c 0,-4.828125 -3.73047,-9.453125 -8,-11.527344 z m 0,0"
         fill="url(#h)"
         id="path103"
         style="fill:url(#h)" />
      <path
         d="m 24,12 h 13 v 4 H 24 Z m 0,0"
         fill="url(#i)"
         id="path105"
         style="fill:url(#i)" />
      <path
         d="m 116,104 c 0,4.43359 -3.3125,8 -7.42578,8 H 79 v 4 h 28.80469 C 112.34766,115.98047 116,112.23438 116,107.58594 Z m 0,0"
         fill="#c01c28"
         id="path107" />
      <path
         d="m 87,34.945312 h 21 v 2.03125 H 87 Z m 0,0"
         fill="url(#j)"
         id="path109"
         style="fill:url(#j)" />
      <path
         d="m 87,28 h 21 v 6.945312 H 87 Z m 0,0"
         fill="url(#l)"
         id="path111"
         style="fill:url(#l)" />
      <path
         d="m 104,99.492188 h 12 V 104 h -12 z m 0,0"
         fill="url(#m)"
         id="path113"
         style="fill:url(#m)" />
      <path
         d="m 30.5,54 c -5.523438,0 -10,4.476562 -10,10 0,5.523438 4.476562,10 10,10 5.523438,0 10,-4.476562 10,-10 0,-5.523438 -4.476562,-10 -10,-10 z m 0,0"
         fill="#33d17a"
         fill-opacity="0.854902"
         id="path115" />
    </g>
  </g>
</svg>
