<?xml version="1.0" encoding="UTF-8" standalone="no"?>
<!-- Created with Inkscape (http://www.inkscape.org/) -->

<svg
   xmlns:dc="http://purl.org/dc/elements/1.1/"
   xmlns:cc="http://creativecommons.org/ns#"
   xmlns:rdf="http://www.w3.org/1999/02/22-rdf-syntax-ns#"
   xmlns:svg="http://www.w3.org/2000/svg"
   xmlns="http://www.w3.org/2000/svg"
   xmlns:sodipodi="http://sodipodi.sourceforge.net/DTD/sodipodi-0.dtd"
   xmlns:inkscape="http://www.inkscape.org/namespaces/inkscape"
   width="200.00002"
   height="208.00311"
   viewBox="0 0 52.916672 55.034156"
   version="1.1"
   id="svg8"
   inkscape:version="0.92.2 5c3e80d, 2017-08-06"
   sodipodi:docname="Chwido200.svg">
  <defs
     id="defs2" />
  <sodipodi:namedview
     id="base"
     pagecolor="#ffffff"
     bordercolor="#666666"
     borderopacity="1.0"
     inkscape:pageopacity="0.0"
     inkscape:pageshadow="2"
     inkscape:zoom="3.8845573"
     inkscape:cx="100.00001"
     inkscape:cy="104.00156"
     inkscape:document-units="mm"
     inkscape:current-layer="layer1"
     showgrid="true"
     fit-margin-top="0"
     fit-margin-left="0"
     fit-margin-right="0"
     fit-margin-bottom="0"
     units="px"
     inkscape:window-width="1920"
     inkscape:window-height="1015"
     inkscape:window-x="1920"
     inkscape:window-y="0"
     inkscape:window-maximized="1">
    <inkscape:grid
       type="xygrid"
       id="grid875"
       originx="-1.05833"
       originy="-0.93127665" />
  </sodipodi:namedview>
  <metadata
     id="metadata5">
    <rdf:RDF>
      <cc:Work
         rdf:about="">
        <dc:format>image/svg+xml</dc:format>
        <dc:type
           rdf:resource="http://purl.org/dc/dcmitype/StillImage" />
        <dc:title></dc:title>
      </cc:Work>
    </rdf:RDF>
  </metadata>
  <g
     inkscape:label="Ebene 1"
     inkscape:groupmode="layer"
     id="layer1"
     transform="translate(-57.375245,-118.296)">
    <g
       id="g844"
       transform="translate(76.82302,0.7351502)"
       style="fill:#000000" />
    <g
       id="g826"
       transform="translate(10.659653,83.439356)" />
    <path
       style="fill:#000000;fill-opacity:1;stroke-width:0.26493588"
       d="m 88.614722,172.49824 c -0.278498,-0.45833 -0.582247,-1.44149 -0.674997,-2.18566 -0.09267,-0.74417 -0.333502,-2.36658 -0.534834,-3.60516 -0.201417,-1.23859 -0.446,-4.21908 -0.543584,-6.62341 -0.09758,-2.40434 -0.253166,-5.06192 -0.345916,-5.90575 l -0.168415,-1.53425 -3.046772,-1.53041 c -1.675715,-0.84167 -4.331362,-2.20783 -5.901421,-3.03583 -4.030794,-2.12575 -4.864586,-2.002 -5.921644,0.87891 -1.01544,2.7675 -1.628281,3.6915 -4.259778,6.42291 -1.367807,1.41967 -2.717298,3.08875 -2.998856,3.709 -0.601999,1.32642 -0.679166,3.55425 -0.165583,4.78341 0.39825,0.95308 2.095881,2.5705 2.698039,2.5705 0.57,0 0.473166,0.44 -0.200583,0.91225 -0.662749,0.46417 -2.115606,0.54333 -2.841589,0.155 -0.646749,-0.34667 -0.775333,-0.71333 -1.466673,-4.18825 -0.327084,-1.64383 -0.672416,-3.0665 -0.7675,-3.16166 -0.293416,-0.29333 -0.674499,0.28666 -1.266074,1.92683 -0.716582,1.98683 -0.783332,5.32441 -0.136583,6.83066 0.802999,1.87017 -0.661916,2.802 -2.117223,1.34675 -0.590666,-0.59083 -0.659916,-0.83167 -0.514666,-1.78833 0.09225,-0.60833 0.277583,-2.81008 0.411916,-4.893 l 0.244083,-3.78716 1.218691,-2.04141 c 1.918623,-3.21383 2.10384,-4.15067 1.896498,-9.59208 -0.164333,-4.31149 -0.136416,-4.75974 0.397833,-6.39666 0.316,-0.96817 0.502583,-1.94775 0.414666,-2.17683 -0.08792,-0.22917 -0.828332,-0.79417 -1.64534,-1.255 -2.047298,-1.15542 -2.347222,-1.68908 -2.189331,-3.89575 0.07083,-0.98349 0.332166,-2.14266 0.581833,-2.57608 0.249666,-0.43333 0.393666,-0.58833 0.320166,-0.34333 -0.649499,2.1595 -0.297166,4.449 0.794916,5.1645 0.922683,0.60416 2.832456,0.475 6.309044,-0.4275 3.712572,-0.964 6.01132,-1.03292 12.78537,-0.38417 7.413434,0.71083 11.107147,0.30167 12.556522,-1.39217 1.610616,-1.88174 4.012647,-7.92274 4.450064,-11.19182 0.143999,-1.07641 0.377081,-2.07233 0.517914,-2.21316 0.426251,-0.42667 1.164709,0.18416 1.892707,1.56341 1.122074,2.12633 2.212398,1.90083 3.356238,-0.69416 1.28401,-2.91308 2.53579,-4.17508 3.4164,-3.44417 0.56058,0.46584 0.47316,1.59675 -0.27759,3.5915 -0.97305,2.58516 -0.8969,3.13916 0.68559,4.98799 1.18409,1.38342 1.32404,1.6715 1.18137,2.43192 -0.13658,0.72833 -0.0533,0.93775 0.53425,1.345 0.38283,0.26583 0.89497,0.66166 1.13809,0.87975 0.24308,0.21916 0.76825,0.54333 1.16698,0.7225 0.83403,0.37416 0.88748,0.6375 0.30908,1.51999 -0.86984,1.32759 -1.60722,1.56859 -5.3477,1.74784 -4.10103,0.19666 -4.35946,0.33166 -4.988527,2.61308 -0.223999,0.8125 -0.747498,2.25166 -1.16328,3.19883 -0.416417,0.94858 -0.837607,2.49558 -0.937707,3.44416 -0.09992,0.94717 -0.471834,2.45666 -0.826334,3.35441 -1.003982,2.542 -1.40309,5.12275 -1.591307,10.28983 -0.238831,6.55666 0.275167,9.47007 1.729325,9.80215 0.991415,0.22667 1.711221,0.83584 1.533646,1.2985 -0.08367,0.21834 -0.655082,0.53167 -1.269997,0.6975 -1.938115,0.52167 -2.727873,-0.21583 -3.413239,-3.18758 -0.184832,-0.80166 -0.516332,-1.81275 -0.736581,-2.24749 -0.282753,-0.55834 -0.464667,-2.1945 -0.618334,-5.56358 -0.119751,-2.62542 -0.2925,-5.30708 -0.383834,-5.95933 l -0.166081,-1.18583 -0.393002,0.92091 c -0.754248,1.76767 -1.142047,4.66725 -1.310063,9.79633 -0.190418,5.81324 -0.01834,6.95124 1.229214,8.12874 0.858523,0.81 1.03559,1.78758 0.370166,2.043 -0.2305,0.0883 -0.88795,0.16083 -1.46104,0.16083 -0.884198,0 -1.118632,-0.12583 -1.548273,-0.8325 z"
       id="path858"
       inkscape:connector-curvature="0" />
  </g>
</svg>
