<?xml version="1.0" encoding="UTF-8" standalone="no"?>
<!-- Created with Inkscape (http://www.inkscape.org/) -->

<svg
   xmlns:dc="http://purl.org/dc/elements/1.1/"
   xmlns:cc="http://creativecommons.org/ns#"
   xmlns:rdf="http://www.w3.org/1999/02/22-rdf-syntax-ns#"
   xmlns:svg="http://www.w3.org/2000/svg"
   xmlns="http://www.w3.org/2000/svg"
   xmlns:sodipodi="http://sodipodi.sourceforge.net/DTD/sodipodi-0.dtd"
   xmlns:inkscape="http://www.inkscape.org/namespaces/inkscape"
   width="32"
   height="32"
   viewBox="0 0 8.4666665 8.4666669"
   version="1.1"
   id="svg1083"
   sodipodi:docname="color.svg"
   inkscape:version="0.92.4 5da689c313, 2019-01-14">
  <defs
     id="defs1077" />
  <sodipodi:namedview
     id="base"
     pagecolor="#ffffff"
     bordercolor="#666666"
     borderopacity="1.0"
     inkscape:pageopacity="0.0"
     inkscape:pageshadow="2"
     inkscape:zoom="15.839192"
     inkscape:cx="17.037269"
     inkscape:cy="13.359569"
     inkscape:document-units="mm"
     inkscape:current-layer="layer1"
     showgrid="false"
     units="px"
     fit-margin-top="0"
     fit-margin-left="0"
     fit-margin-right="0"
     fit-margin-bottom="0" />
  <metadata
     id="metadata1080">
    <rdf:RDF>
      <cc:Work
         rdf:about="">
        <dc:format>image/svg+xml</dc:format>
        <dc:type
           rdf:resource="http://purl.org/dc/dcmitype/StillImage" />
        <dc:title></dc:title>
      </cc:Work>
    </rdf:RDF>
  </metadata>
  <g
     inkscape:label="Livello 1"
     inkscape:groupmode="layer"
     id="layer1"
     transform="translate(-106.41625,-124.38686)">
    <path
       style="fill:none;stroke:#000000;stroke-width:0.31378365"
       inkscape:connector-curvature="0"
       d="m 112.50069,132.02373 a 1.9234771,0.40816625 0 1 1 -3.84695,0 1.9234771,0.40816625 0 1 1 3.84695,0 z"
       id="path5373" />
    <path
       style="fill:none;stroke:#000000;stroke-width:0.2997835"
       inkscape:connector-curvature="0"
       d="m 112.50069,128.49086 a 1.9234771,0.37255625 0 1 1 -3.84695,0 1.9234771,0.37255625 0 1 1 3.84695,0 z"
       id="path5364" />
    <path
       id="path4805-7"
       d="m 109.83381,132.16881 -0.18773,0.006 -0.22916,-0.0745 -0.16763,-0.16991 -0.0717,-0.17187 3.23202,-5.05055 0.0725,0.1738 0.16592,0.16673 0.22857,0.0767 0.18922,-0.007 -3.23202,5.05055 z"
       inkscape:connector-curvature="0"
       style="fill:#ffff00;fill-rule:evenodd;stroke-width:0.06468524" />
    <path
       id="path4807-4"
       d="m 109.64381,132.1788 -0.22623,-0.077 3.23202,-5.05056 0.22624,0.077 z"
       inkscape:connector-curvature="0"
       style="opacity:0.30488;fill:#ffffff;fill-rule:evenodd;stroke-width:0.06468524" />
    <path
       id="path4809-0"
       d="m 109.25015,131.9317 -0.0725,-0.17272 3.23202,-5.05055 0.0717,0.17205 -3.23127,5.05124 z"
       inkscape:connector-curvature="0"
       style="opacity:0.34553001;fill-rule:evenodd;stroke-width:0.06468524" />
    <path
       id="path4811-9"
       d="m 113.0579,127.11867 -0.17766,0.007 -0.22929,-0.0756 -0.17057,-0.17189 -0.0707,-0.1696 1.15079,-1.08068 -0.50254,1.49084 z"
       inkscape:connector-curvature="0"
       style="fill:#dbaa6e;fill-rule:evenodd;stroke-width:0.06468524" />
    <path
       id="path4813-4"
       d="m 113.40017,126.10312 -0.0782,0.0474 -0.084,-0.0177 -0.0527,-0.0634 -0.0185,-0.072 0.39359,-0.36961 -0.16118,0.47818 9.7e-4,-0.003 z"
       inkscape:connector-curvature="0"
       style="fill:#ffff00;fill-rule:evenodd;stroke-width:0.06468524" />
    <path
       id="path4815-8"
       d="m 112.88281,127.12549 -0.23467,-0.0784 0.58914,-0.91426 0.32093,-0.49829 -0.67538,1.49093 z"
       inkscape:connector-curvature="0"
       style="opacity:0.63007998;fill:#ffffff;fill-rule:evenodd;stroke-width:0.06468524" />
    <path
       id="path4817-8"
       d="m 112.48272,126.88047 1.0778,-1.25254 -0.39148,0.36762 -0.75712,0.71834 0.0708,0.1666 z"
       inkscape:connector-curvature="0"
       style="opacity:0.26423005;fill-rule:evenodd;stroke-width:0.06468524" />
    <path
       id="path4819-2"
       d="m 113.55614,125.63782 -1.13978,1.06441 -3.23744,5.05945 0.0717,0.17034 0.16808,0.16993 0.22548,0.0764 0.19133,-0.012 3.22501,-5.03956 0.49573,-1.48909 z"
       inkscape:connector-curvature="0"
       style="fill:none;stroke:#000000;stroke-width:0.00627579" />
    <path
       id="path4859-5"
       d="m 111.36128,131.75706 -0.0944,0.16042 -0.18575,0.15206 -0.2348,0.0498 -0.18543,-0.0315 -2.60852,-5.39096 0.18751,0.0319 0.23117,-0.0501 0.1874,-0.15035 0.0943,-0.16223 2.60853,5.39097 z"
       inkscape:connector-curvature="0"
       style="fill:#008000;fill-rule:evenodd;stroke-width:0.06468499" />
    <path
       id="path4861-5"
       d="m 111.26864,131.92127 -0.18641,0.14824 -2.60852,-5.39097 0.18641,-0.14824 z"
       inkscape:connector-curvature="0"
       style="opacity:0.30488;fill:#ffffff;fill-rule:evenodd;stroke-width:0.06468499" />
    <path
       id="path4863-1"
       d="m 110.8476,132.11902 -0.18661,-0.0313 -2.60852,-5.39097 0.18562,0.0315 2.60945,5.39061 z"
       inkscape:connector-curvature="0"
       style="opacity:0.34553001;fill-rule:evenodd;stroke-width:0.06468499" />
    <path
       id="path4865-7"
       d="m 108.74896,126.37282 -0.0886,0.15231 -0.18683,0.15156 -0.2381,0.0512 -0.18298,-0.0311 -0.31377,-1.53763 1.01022,1.21364 z"
       inkscape:connector-curvature="0"
       style="fill:#dbaa6e;fill-rule:evenodd;stroke-width:0.06468499" />
    <path
       id="path4867-1"
       d="m 108.06069,125.54623 -9.4e-4,0.0906 -0.0599,0.0609 -0.0824,0.0103 -0.0715,-0.0228 -0.10731,-0.52589 0.32402,0.38927 -0.002,-0.002 z"
       inkscape:connector-curvature="0"
       style="fill:#008000;fill-rule:evenodd;stroke-width:0.06468499" />
    <path
       id="path4869-1"
       d="m 108.66155,126.52306 -0.19206,0.15459 -0.47001,-0.97928 -0.25626,-0.53357 0.91834,1.35827 z"
       inkscape:connector-curvature="0"
       style="opacity:0.63007998;fill:#ffffff;fill-rule:evenodd;stroke-width:0.06468499" />
    <path
       id="path4871-5"
       d="m 108.23862,126.72731 -0.4999,-1.56804 0.10674,0.52307 0.21273,1.01554 0.18044,0.0294 z"
       inkscape:connector-curvature="0"
       style="opacity:0.26423005;fill-rule:evenodd;stroke-width:0.06468499" />
    <path
       id="path4873-2"
       d="m 107.74498,125.16829 0.30567,1.51976 2.61329,5.40032 0.18413,0.0307 0.23508,-0.0502 0.18542,-0.14799 0.0916,-0.16641 -2.60279,-5.37911 -1.01235,-1.207 z"
       inkscape:connector-curvature="0"
       style="fill:none;stroke:#000000;stroke-width:0.00627577" />
    <path
       id="path4823-6"
       d="m 111.21746,132.10602 -0.14563,0.11721 -0.22808,0.0776 -0.2375,-0.0352 -0.16227,-0.0941 -0.51658,-5.95324 0.16409,0.0951 0.23419,0.0337 0.22903,-0.0754 0.14618,-0.11893 0.51658,5.95324 z"
       inkscape:connector-curvature="0"
       style="fill:#ff0000;fill-rule:evenodd;stroke-width:0.06468388" />
    <path
       id="path4825-1"
       d="m 111.07216,132.2274 -0.22734,0.0738 -0.51659,-5.95324 0.22735,-0.0738 z"
       inkscape:connector-curvature="0"
       style="opacity:0.30488;fill:#ffffff;fill-rule:evenodd;stroke-width:0.06468388" />
    <path
       id="path4827-4"
       d="m 110.60737,132.26581 -0.16346,-0.0943 -0.51658,-5.95325 0.16244,0.0942 0.51757,5.95323 z"
       inkscape:connector-curvature="0"
       style="opacity:0.34553001;fill-rule:evenodd;stroke-width:0.06468388" />
    <path
       id="path4829-2"
       d="m 110.69471,126.1578 -0.13725,0.11166 -0.22892,0.0767 -0.24108,-0.035 -0.16013,-0.0928 0.25525,-1.54812 0.51211,1.48758 z"
       inkscape:connector-curvature="0"
       style="fill:#dbaa6e;fill-rule:evenodd;stroke-width:0.06468388" />
    <path
       id="path4831-3"
       d="m 110.34594,125.1445 -0.0332,0.0845 -0.0778,0.0361 -0.0808,-0.0191 -0.0588,-0.0463 0.0873,-0.52948 0.16425,0.47713 -9.9e-4,-0.003 z"
       inkscape:connector-curvature="0"
       style="fill:#ff0000;fill-rule:evenodd;stroke-width:0.06468388" />
    <path
       id="path4833-2"
       d="m 110.5595,126.26788 -0.2349,0.0777 -0.0903,-1.08008 -0.0493,-0.58855 0.3745,1.5909 z"
       inkscape:connector-curvature="0"
       style="opacity:0.63007998;fill:#ffffff;fill-rule:evenodd;stroke-width:0.06468388" />
    <path
       id="path4835-2"
       d="m 110.09063,126.31171 0.0919,-1.64141 -0.0868,0.52663 -0.16344,1.02438 z"
       inkscape:connector-curvature="0"
       style="opacity:0.26423005;fill-rule:evenodd;stroke-width:0.06468388" />
    <path
       id="path4837-1"
       d="m 110.1852,124.68092 -0.25645,1.52856 0.5177,5.96367 0.16136,0.0928 0.23788,0.0349 0.22633,-0.0739 0.14509,-0.12381 -0.51545,-5.94015 -0.51646,-1.48211 z"
       inkscape:connector-curvature="0"
       style="fill:none;stroke:#000000;stroke-width:0.00627566" />
    <path
       id="path4877-8"
       d="m 110.74341,132.11757 -0.16962,0.0797 -0.2402,0.0219 -0.22227,-0.0898 -0.13506,-0.12941 0.92722,-5.90449 0.13657,0.13087 0.21943,0.0876 0.24059,-0.0196 0.17057,-0.0813 -0.92722,5.90449 z"
       inkscape:connector-curvature="0"
       style="fill:#ff6600;fill-rule:evenodd;stroke-width:0.06468458" />
    <path
       id="path4879-5"
       d="m 110.57311,132.20145 -0.23857,0.0184 0.92722,-5.90449 0.23857,-0.0184 z"
       inkscape:connector-curvature="0"
       style="opacity:0.30488;fill:#ffffff;fill-rule:evenodd;stroke-width:0.06468458" />
    <path
       id="path4881-7"
       d="m 110.11236,132.12986 -0.13618,-0.12987 0.92722,-5.90448 0.1352,0.12955 -0.92625,5.90471 z"
       inkscape:connector-curvature="0"
       style="opacity:0.34553001;fill-rule:evenodd;stroke-width:0.06468458" />
    <path
       id="path4883-6"
       d="m 111.66343,126.21674 -0.16014,0.0763 -0.24082,0.0209 -0.2258,-0.0905 -0.13327,-0.12771 0.6196,-1.44416 0.14041,1.56513 z"
       inkscape:connector-curvature="0"
       style="fill:#dbaa6e;fill-rule:evenodd;stroke-width:0.06468458" />
    <path
       id="path4885-1"
       d="m 111.56784,125.15041 -0.0526,0.0743 -0.0842,0.0169 -0.0739,-0.0375 -0.046,-0.0587 0.21192,-0.49393 0.045,0.50201 -2.8e-4,-0.003 z"
       inkscape:connector-curvature="0"
       style="fill:#ff6600;fill-rule:evenodd;stroke-width:0.06468458" />
    <path
       id="path4887-8"
       d="m 111.50565,126.29178 -0.24686,0.0205 0.17158,-1.07042 0.0934,-0.58332 -0.0181,1.63327 z"
       inkscape:connector-curvature="0"
       style="opacity:0.63007998;fill:#ffffff;fill-rule:evenodd;stroke-width:0.06468458" />
    <path
       id="path4889-9"
       d="m 111.03962,126.22451 0.48334,-1.57305 -0.21077,0.49126 -0.40469,0.95687 0.13212,0.12493 z"
       inkscape:connector-curvature="0"
       style="opacity:0.26423005;fill-rule:evenodd;stroke-width:0.06468458" />
    <path
       id="path4891-2"
       d="m 111.52297,124.66239 -0.61607,1.42488 -0.92864,5.91487 0.13448,0.12799 0.22271,0.0897 0.23761,-0.0188 0.17067,-0.0863 0.92519,-5.8915 -0.14596,-1.56084 z"
       inkscape:connector-curvature="0"
       style="fill:none;stroke:#000000;stroke-width:0.00627573" />
    <path
       style="fill:#ff00ff;fill-rule:evenodd;stroke-width:0.06468344"
       inkscape:connector-curvature="0"
       d="m 109.51678,132.11699 -0.18689,0.0186 -0.23362,-0.0593 -0.17863,-0.15858 -0.083,-0.1668 2.88668,-5.25058 0.084,0.16868 0.17672,0.15552 0.2332,0.0616 0.18831,-0.0198 -2.88668,5.25058 z"
       id="path4933-5" />
    <path
       style="opacity:0.30488;fill:#ffffff;fill-rule:evenodd;stroke-width:0.06468344"
       inkscape:connector-curvature="0"
       d="m 109.32785,132.13928 -0.23089,-0.0621 2.88668,-5.25057 0.23089,0.0621 z"
       id="path4935-4" />
    <path
       style="opacity:0.34553001;fill-rule:evenodd;stroke-width:0.06468344"
       inkscape:connector-curvature="0"
       d="m 108.91867,131.91858 -0.0839,-0.1676 2.88668,-5.25057 0.0831,0.16698 -2.88585,5.2511 z"
       id="path4937-3" />
    <path
       style="fill:#dbaa6e;fill-rule:evenodd;stroke-width:0.06468344"
       inkscape:connector-curvature="0"
       d="m 112.39572,126.86733 -0.1768,0.0186 -0.23385,-0.0605 -0.18172,-0.16038 -0.0819,-0.1646 1.07587,-1.15347 -0.40159,1.52035 z"
       id="path4939-1" />
    <path
       style="fill:#ff00ff;fill-rule:evenodd;stroke-width:0.06468344"
       inkscape:connector-curvature="0"
       d="m 112.66912,125.83167 -0.0748,0.0524 -0.085,-0.0122 -0.0568,-0.0599 -0.0233,-0.0706 0.36797,-0.3945 -0.12881,0.48765 7.8e-4,-0.003 z"
       id="path4941-2" />
    <path
       style="opacity:0.63007998;fill:#ffffff;fill-rule:evenodd;stroke-width:0.06468344"
       inkscape:connector-curvature="0"
       d="m 112.2213,126.8856 -0.2394,-0.0629 0.52661,-0.95071 0.28684,-0.51814 -0.57404,1.53174 z"
       id="path4943-3" />
    <path
       style="opacity:0.26423005;fill-rule:evenodd;stroke-width:0.06468344"
       inkscape:connector-curvature="0"
       d="m 111.80569,126.66721 0.99155,-1.32018 -0.36599,0.39237 -0.70735,0.76622 0.0818,0.1616 z"
       id="path4945-3" />
    <path
       style="fill:none;stroke:#000000;stroke-width:0.00627562"
       inkscape:connector-curvature="0"
       d="m 112.79352,125.35732 -1.06599,1.1365 -2.89155,5.25988 0.0829,0.16527 0.1791,0.15857 0.2301,0.0614 0.19011,-0.0244 2.88034,-5.23903 0.39491,-1.51816 z"
       id="path4947-4" />
    <path
       id="path4987-1"
       d="m 112.0934,131.9206 -0.11399,0.14751 -0.20354,0.1279 -0.23926,0.0204 -0.17998,-0.0542 -1.90559,-5.671 0.182,0.0548 0.2357,-0.0211 0.20495,-0.12602 0.11413,-0.14929 1.90559,5.671 z"
       inkscape:connector-curvature="0"
       style="fill:#0000ff;fill-rule:evenodd;stroke-width:0.06468479" />
    <path
       id="path4989-3"
       d="m 111.98071,132.07208 -0.20371,0.12404 -1.90559,-5.67099 0.2037,-0.12405 z"
       inkscape:connector-curvature="0"
       style="opacity:0.30488;fill:#ffffff;fill-rule:evenodd;stroke-width:0.06468479" />
    <path
       id="path4991-8"
       d="m 111.53834,132.21702 -0.18118,-0.0541 -1.90559,-5.671 0.18017,0.0542 1.90655,5.67076 z"
       inkscape:connector-curvature="0"
       style="opacity:0.34553001;fill-rule:evenodd;stroke-width:0.06468479" />
    <path
       id="path4993-7"
       d="m 110.18339,126.2562 -0.10716,0.14017 -0.20454,0.12729 -0.24271,0.0214 -0.1776,-0.0535 -0.11667,-1.56434 0.84865,1.32895 z"
       inkscape:connector-curvature="0"
       style="fill:#dbaa6e;fill-rule:evenodd;stroke-width:0.06468479" />
    <path
       id="path4995-4"
       d="m 109.60517,125.35105 -0.0124,0.0898 -0.0671,0.053 -0.0831,5e-5 -0.068,-0.0315 -0.0399,-0.53503 0.2722,0.42625 -0.002,-0.003 z"
       inkscape:connector-curvature="0"
       style="fill:#0000ff;fill-rule:evenodd;stroke-width:0.06468479" />
    <path
       id="path4997-2"
       d="m 110.07765,126.39446 -0.21011,0.12964 -0.34236,-1.02966 -0.1867,-0.56106 0.73918,1.46109 z"
       inkscape:connector-curvature="0"
       style="opacity:0.63007998;fill:#ffffff;fill-rule:evenodd;stroke-width:0.06468479" />
    <path
       id="path4999-7"
       d="m 109.63219,126.54485 -0.29747,-1.61751 0.0397,0.53215 0.0825,1.03386 0.1753,0.0515 z"
       inkscape:connector-curvature="0"
       style="opacity:0.26423005;fill-rule:evenodd;stroke-width:0.06468479" />
    <path
       id="path5001-7"
       d="m 109.33978,124.93706 0.11089,1.54561 1.90904,5.68068 0.1788,0.0532 0.23958,-0.0207 0.20269,-0.12391 0.11192,-0.15379 -1.9014,-5.65853 -0.8516,-1.32262 z"
       inkscape:connector-curvature="0"
       style="fill:none;stroke:#000000;stroke-width:0.00627575" />
    <path
       style="fill:none;stroke:#000000;stroke-width:0.29978618"
       inkscape:connector-curvature="0"
       d="m 112.36813,128.35447 c 0.0859,0.0422 0.13305,0.0883 0.13305,0.13642 0,0.20576 -0.86117,0.37256 -1.92352,0.37256 -1.0623,0 -1.92351,-0.1668 -1.92351,-0.37256 0,-0.0446 0.0405,-0.0874 0.11464,-0.12699"
       id="path5366" />
    <path
       style="fill:none;stroke:#000000;stroke-width:0.31378651"
       inkscape:connector-curvature="0"
       d="m 112.36813,131.87442 c 0.0859,0.0463 0.13305,0.0967 0.13305,0.14947 0,0.22542 -0.86117,0.40816 -1.92352,0.40816 -1.06229,0 -1.92351,-0.18274 -1.92351,-0.40816 0,-0.0489 0.0405,-0.0957 0.11464,-0.13914"
       id="path5375" />
    <path
       style="fill:#ffffff;fill-opacity:0.59258997;stroke-width:0.01199145"
       inkscape:connector-curvature="0"
       d="m 108.67712,128.74926 0.0106,3.20986 0.22314,0.11498 0.63754,0.14372 0.4144,0.0288 0.44628,0.0287 0.59504,-0.01 0.59504,-0.0575 0.52065,-0.0862 0.19126,-0.0671 v -3.21948 l -0.31877,0.0671 -0.34001,0.0383 -0.7438,0.0575 -0.57379,0.01 -0.54191,-0.0288 -0.55254,-0.0671 -0.44628,-0.1054 z"
       id="path5377" />
    <path
       style="fill:none;stroke:#000000;stroke-width:0.11991448"
       inkscape:connector-curvature="0"
       d="m 112.36424,128.73964 v 3.37277"
       id="path5379" />
    <path
       style="fill:none;stroke:#000000;stroke-width:0.11991448"
       inkscape:connector-curvature="0"
       d="m 108.709,128.57604 v 3.53648"
       id="path5381" />
    <rect
       style="opacity:0.7;fill:none;fill-opacity:1;stroke:none;stroke-width:1.17209327;stroke-linejoin:miter;stroke-miterlimit:4;stroke-dasharray:none;stroke-dashoffset:0;stroke-opacity:1;paint-order:normal"
       id="rect1075"
       width="8.4666662"
       height="8.4666662"
       x="106.41625"
       y="124.38686" />
  </g>
</svg>
