<?xml version="1.0" encoding="UTF-8" standalone="no"?>
<svg
   xmlns:dc="http://purl.org/dc/elements/1.1/"
   xmlns:cc="http://creativecommons.org/ns#"
   xmlns:rdf="http://www.w3.org/1999/02/22-rdf-syntax-ns#"
   xmlns:svg="http://www.w3.org/2000/svg"
   xmlns="http://www.w3.org/2000/svg"
   xmlns:xlink="http://www.w3.org/1999/xlink"
   xmlns:sodipodi="http://sodipodi.sourceforge.net/DTD/sodipodi-0.dtd"
   xmlns:inkscape="http://www.inkscape.org/namespaces/inkscape"
   width="32"
   height="32"
   viewBox="0 0 8.4666665 8.466667"
   version="1.1"
   id="svg924"
   inkscape:version="1.0 (4035a4fb49, 2020-05-01)"
   sodipodi:docname="com-help.svg">
  <defs
     id="defs918">
    <linearGradient
       gradientTransform="matrix(0.24804688,0,0,0.24804688,-17.339278,-13.02015)"
       gradientUnits="userSpaceOnUse"
       y2="83.2715"
       x2="73.539299"
       y1="56.05151"
       x1="100.40048"
       id="linearGradient911"
       xlink:href="#b"
       inkscape:collect="always" />
    <linearGradient
       gradientUnits="userSpaceOnUse"
       gradientTransform="matrix(0,0.73180945,-0.72091894,0,29.880681,30.866601)"
       y2="37.956001"
       y1="-0.88300002"
       x2="-2.994"
       x1="-41.259998"
       id="b">
      <stop
         id="stop2"
         offset="0"
         stop-color="#21c9fb" />
      <stop
         id="stop4"
         offset="1"
         stop-color="#1a86f2" />
    </linearGradient>
  </defs>
  <sodipodi:namedview
     id="base"
     pagecolor="#ffffff"
     bordercolor="#666666"
     borderopacity="1.0"
     inkscape:pageopacity="0.0"
     inkscape:pageshadow="2"
     inkscape:zoom="3.3311356"
     inkscape:cx="0.62828781"
     inkscape:cy="57.901646"
     inkscape:document-units="px"
     inkscape:current-layer="layer1"
     inkscape:document-rotation="0"
     showgrid="false"
     units="px"
     inkscape:window-width="1440"
     inkscape:window-height="831"
     inkscape:window-x="0"
     inkscape:window-y="0"
     inkscape:window-maximized="1" />
  <metadata
     id="metadata921">
    <rdf:RDF>
      <cc:Work
         rdf:about="">
        <dc:format>image/svg+xml</dc:format>
        <dc:type
           rdf:resource="http://purl.org/dc/dcmitype/StillImage" />
        <dc:title></dc:title>
        <dc:creator>
          <cc:Agent>
            <dc:title>ruru</dc:title>
          </cc:Agent>
        </dc:creator>
      </cc:Work>
    </rdf:RDF>
  </metadata>
  <g
     inkscape:label="Layer 1"
     inkscape:groupmode="layer"
     id="layer1">
    <g
       id="g847">
      <rect
         style="fill:none;stroke:none;stroke-width:0.219069"
         id="rect891"
         width="8.4666672"
         height="8.4666672"
         x="-4.2529297e-07"
         y="-4.2529297e-07" />
      <g
         transform="matrix(1.1428572,0,0,1.1428572,-0.60476261,-0.60476206)"
         id="g1548">
        <circle
           id="circle883"
           style="fill:url(#linearGradient911);fill-opacity:1;stroke:none;stroke-width:0.00868164"
           r="3.4726562"
           cy="4.2333331"
           cx="4.2333336" />
        <path
           d="m 5.0249938,2.7844368 v 2.389e-4 l -0.095434,0.096413 C 4.7401722,2.7302914 4.4524376,2.7520255 4.264935,2.9395264 l -0.01836,0.01836 C 4.241445,2.9521164 4.236435,2.9460764 4.23103,2.9407064 4.0564575,2.7661382 3.7700373,2.7643765 3.5696147,2.9282998 l -0.064061,-0.06406 0.00119,-5.953e-4 L 2.9150306,2.2719363 1.3144638,3.8725232 1.9061655,4.4642061 2.1463594,4.224027 2.8574232,4.9350777 c -0.00644,0.00549 -0.012881,0.011177 -0.019015,0.017306 -0.1102957,0.1102988 -0.1163924,0.2836768 -0.013576,0.3865069 a 0.25825679,0.25825679 0 0 0 0.2336334,0.067951 0.25266078,0.25266078 0 0 0 0.301571,0.3015776 0.25266078,0.25266078 0 0 0 0.3015835,0.3015767 0.25825679,0.25825679 0 0 0 0.067949,0.2336264 c 0.1028184,0.1028192 0.2762094,0.096734 0.3865052,-0.013566 a 0.30453976,0.30453976 0 0 0 0.020625,-0.022944 v 6.94e-5 c 0.1037962,0.068919 0.2507632,0.053109 0.3483922,-0.044518 A 0.28924055,0.28924055 0 0 0 4.569634,5.9236856 0.29420667,0.29420667 0 0 0 4.8931551,5.6001653 0.29420429,0.29420429 0 0 0 5.2166747,5.2766447 0.28924055,0.28924055 0 0 0 5.4556533,5.1921049 C 5.5528529,5.0949007 5.569005,4.9487607 5.501127,4.8450434 L 6.2935497,4.0526107 6.5174609,4.2765221 7.1522029,3.6417684 5.6601674,2.1497374 Z M 1.4620108,3.8672686 2.9094779,2.4198037 3.3584702,2.8687871 1.9109906,4.3162402 Z m 1.4390091,1.3950025 c -0.06357,-0.063574 -0.059824,-0.1703955 0.00835,-0.2385938 0.0682,-0.068198 0.1750261,-0.071949 0.238598,-0.00837 0.06357,0.063574 0.059826,0.1703944 -0.00835,0.2385926 -0.0682,0.068198 -0.1750258,0.071951 -0.2385963,0.00837 z M 3.202602,5.5638478 C 3.139019,5.5002748 3.142778,5.3934517 3.210952,5.3252539 c 0.068186,-0.068198 0.1750137,-0.071948 0.2385841,-0.00838 0.063582,0.063573 0.059825,0.170396 -0.00835,0.2385941 -0.068199,0.068198 -0.1750249,0.07195 -0.2385953,0.00838 z m 0.3015712,0.3015811 c -0.063583,-0.063574 -0.059826,-0.1703956 0.00835,-0.2385939 0.068198,-0.068198 0.1750122,-0.071948 0.238595,-0.00837 0.063572,0.063574 0.059815,0.1703945 -0.00835,0.2385928 -0.068186,0.068198 -0.1750122,0.071948 -0.2385842,0.00837 z m 0.5401663,0.2932023 c -0.068198,0.068198 -0.1750249,0.071947 -0.2385966,0.00837 -0.063569,-0.063573 -0.059824,-0.1703955 0.00835,-0.2385935 0.0682,-0.068199 0.1750258,-0.071948 0.2385965,-0.00837 0.063572,0.063573 0.059825,0.1703958 -0.00835,0.2385935 z M 5.3922453,4.8821204 c 0.063547,0.063575 0.059802,0.170379 -0.00835,0.2385678 -0.068186,0.068188 -0.1750122,0.071949 -0.2385839,0.00837 v -2.387e-4 1.19e-5 L 4.999154,4.9826871 4.5537886,4.5373132 l -0.07655,0.07655 0.4453642,0.4453736 0.1464084,0.1464025 c 0.063572,0.063574 0.059825,0.1703933 -0.00835,0.2385926 -0.068197,0.068199 -0.1750122,0.071949 -0.2385966,0.00837 v 0 -1.19e-5 L 4.6756808,5.3062106 4.2303153,4.8608355 l -0.07655,0.07655 0.4453766,0.4453716 0.1461445,0.1461492 v 1.22e-5 2.389e-4 2.77e-5 0 C 4.8088584,5.5927601 4.8051124,5.69958 4.7369364,5.767778 4.6687374,5.835976 4.5619116,5.839727 4.4983399,5.776148 V 5.7759094 L 3.9068173,5.1843858 3.8302553,5.2609488 4.275622,5.7063225 4.4217779,5.852471 l 0.00907,0.00908 v 4.713e-4 c 0.054589,0.064287 0.048289,0.1642903 -0.016713,0.2292938 -0.063476,0.063478 -0.1603754,0.071042 -0.2247585,0.020531 A 0.26193693,0.26193693 0 0 0 4.1300957,5.8435682 0.25825798,0.25825798 0 0 0 3.8964623,5.775616 0.25266078,0.25266078 0 0 0 3.5948912,5.4740404 0.25266078,0.25266078 0 0 0 3.2933093,5.1724628 0.25825679,0.25825679 0 0 0 3.2253618,4.9388376 C 3.1544638,4.8679433 3.0500247,4.8488638 2.9558557,4.879981 L 2.2233663,4.1474986 H 2.223354 L 3.4300548,2.9408334 3.5634244,3.074202 3.6008805,3.0367372 c 0.1582653,-0.1582519 0.4070494,-0.1669916 0.5546261,-0.019457 0.00537,0.00533 0.010376,0.011274 0.01553,0.017214 L 3.602502,3.603021 C 3.4960817,3.7094416 3.4902129,3.8767142 3.589415,3.9759283 a 0.24538398,0.24538398 0 0 0 0.183747,0.070555 0.28235261,0.28235261 0 0 0 0.1891498,-0.083656 L 4.2180147,3.7071464 5.246646,4.7357743 h -1.09e-5 l 0.1461681,0.1461541 v 7.2e-6 2.386e-4 z M 6.2217545,3.981202 5.4330907,4.7698797 4.4121186,3.7488987 v -8.5e-6 c 0.1747148,0.060481 0.3836786,0.015756 0.5309691,-0.1315293 a 0.56013872,0.56013872 0 0 0 0.048192,-0.054965 0.05117634,0.05117634 0 0 0 -0.00787,-0.072853 0.05365046,0.05365046 0 0 0 -0.073591,0.012975 0.44018806,0.44018806 0 0 1 -0.038127,0.043506 c -0.1582891,0.158277 -0.4071079,0.1670365 -0.5546125,0.019519 -0.00263,-0.00258 -0.00489,-0.00531 -0.00728,-0.00804 l -0.00549,-0.00625 a 0.05019933,0.05019933 0 0 0 -0.057116,-0.011227 0.05715646,0.05715646 0 0 0 -0.021592,0.01588 L 3.8901166,3.8913941 c -0.064226,0.064199 -0.1651358,0.067741 -0.2249962,0.0079 A 0.14750475,0.14750475 0 0 1 3.6224608,3.7884254 0.16987205,0.16987205 0 0 1 3.6730061,3.6742879 L 4.3364725,3.010829 C 4.4947839,2.8525522 4.7436166,2.8438557 4.891146,2.9913746 a 0.0523955,0.0523955 0 0 0 0.073937,-0.00261 v -2.386e-4 2.78e-5 L 5.0963035,2.8559768 Z M 6.5222157,4.1285602 5.1728791,2.7792452 6.3696549,3.9760081 5.1728915,2.7792383 5.6545462,2.2975972 7.0038704,3.646899 Z"
           style="fill:#ffffff;stroke-width:0.0119292"
           id="path885"
           inkscape:connector-curvature="0" />
      </g>
    </g>
  </g>
</svg>
