<?xml version="1.0" encoding="UTF-8" standalone="no"?>
<svg
   width="32"
   height="32"
   viewBox="0 0 31.999999 32.000001"
   version="1.1"
   id="svg40"
   inkscape:version="1.2.1 (9c6d41e410, 2022-07-14)"
   sodipodi:docname="dupeguru.svg"
   xmlns:inkscape="http://www.inkscape.org/namespaces/inkscape"
   xmlns:sodipodi="http://sodipodi.sourceforge.net/DTD/sodipodi-0.dtd"
   xmlns="http://www.w3.org/2000/svg"
   xmlns:svg="http://www.w3.org/2000/svg"
   xmlns:rdf="http://www.w3.org/1999/02/22-rdf-syntax-ns#"
   xmlns:cc="http://creativecommons.org/ns#"
   xmlns:dc="http://purl.org/dc/elements/1.1/">
  <defs
     id="defs34" />
  <sodipodi:namedview
     id="base"
     pagecolor="#ffffff"
     bordercolor="#666666"
     borderopacity="1.0"
     inkscape:pageopacity="0.0"
     inkscape:pageshadow="2"
     inkscape:zoom="7.9195959"
     inkscape:cx="16.28871"
     inkscape:cy="21.0238"
     inkscape:document-units="px"
     inkscape:current-layer="layer1"
     inkscape:document-rotation="0"
     showgrid="false"
     inkscape:window-width="1554"
     inkscape:window-height="856"
     inkscape:window-x="325"
     inkscape:window-y="22"
     inkscape:window-maximized="0"
     units="px"
     inkscape:showpageshadow="2"
     inkscape:pagecheckerboard="0"
     inkscape:deskcolor="#d1d1d1" />
  <metadata
     id="metadata37">
    <rdf:RDF>
      <cc:Work
         rdf:about="">
        <dc:format>image/svg+xml</dc:format>
        <dc:type
           rdf:resource="http://purl.org/dc/dcmitype/StillImage" />
        <dc:title />
      </cc:Work>
    </rdf:RDF>
  </metadata>
  <g
     inkscape:label="Layer 1"
     inkscape:groupmode="layer"
     id="layer1">
    <g
       id="g351">
      <rect
         style="fill:#f4e3d7;stroke-width:0.2"
         id="rect236"
         width="32"
         height="32"
         x="0"
         y="0" />
      <g
         id="g20">
        <path
           style="opacity:0.1;stroke-width:1.23811"
           d="m 8.3779159,4.2378995 c -0.6672098,0 -1.0446511,0.5013472 -1.0446511,1.1244508 v 5.4795817 c 0,0 7.974e-4,0.824598 -0.8245977,0.824598 H 4.8570548 l 3.714315,4.127822 3.7143152,4.125406 3.443479,-3.825552 C 13.768188,14.035323 11.768592,11.588916 11.204761,5.0987694 11.163049,4.3910389 10.532508,4.2378995 10.532508,4.2378995 Z m 5.9656341,0 c 0,0 -0.670685,0.2108993 -0.771397,0.7617248 C 12.849486,9.2500036 13.344648,12.97008 16.06529,15.71939 l 3.649025,-4.05286 h -1.651612 c -0.825405,0 -0.824598,-0.824598 -0.824598,-0.824598 V 5.3623503 c 0,-0.6231036 -0.696631,-1.1244508 -1.36385,-1.1244508 z m 5.370765,9.0802425 -3.44348,3.825552 c 1.960977,2.058883 3.960573,4.505292 4.524404,10.995437 C 20.83695,28.84686 21.467491,29 21.467491,29 h 2.154593 c 0.66721,0 1.044651,-0.501347 1.044651,-1.124451 v -5.479581 c 0,0 -7.98e-4,-0.824598 0.824598,-0.824598 h 1.651612 L 23.42863,17.443548 Z m -3.779605,4.200368 -3.649025,4.05286 h 1.651612 c 0.825405,0 0.824598,0.824598 0.824598,0.824598 v 5.479581 C 14.761895,28.498653 15.458527,29 16.125744,29 h 1.530705 c 0,0 0.670686,-0.210899 0.771398,-0.761724 0.722667,-4.25038 0.227504,-7.970457 -2.493137,-10.719766 z"
           id="path6" />
        <path
           style="fill:#5c3420;stroke-width:1.23811"
           d="m 19.71432,12.079024 -3.443483,3.827162 c 1.960976,2.058883 3.961137,4.504286 4.524967,10.994431 0.04171,0.70773 0.67208,0.861072 0.67208,0.861072 h 2.154202 c 0.66721,0 1.044654,-0.502156 1.044654,-1.125259 v -5.477971 c 0,0 0,-0.825405 0.825395,-0.825405 h 1.65081 l -3.714318,-4.127015 z m -3.780419,4.201173 -3.648216,4.052857 h 1.65081 c 0.825405,0 0.825405,0.825405 0.825405,0.825405 v 5.477971 c 0,0.623103 0.696627,1.125259 1.363845,1.125259 h 1.530037 c 0,0 0.67059,-0.210312 0.771302,-0.761137 0.722669,-4.25038 0.227459,-7.971047 -2.493183,-10.720355 z"
           id="path8" />
        <path
           style="fill:#e8580d;stroke-width:1.23811"
           d="m 12.28568,18.682665 3.443483,-3.827162 C 13.768187,12.79662 11.768026,10.351218 11.204195,3.8610724 11.162483,3.1533418 10.532116,3.0000001 10.532116,3.0000001 H 8.3779134 c -0.6672098,0 -1.0446536,0.5021555 -1.0446536,1.1252591 V 9.60323 c 0,0 0,0.825405 -0.825395,0.825405 h -1.65081 l 3.7143175,4.127015 z m 3.780419,-4.201173 3.648216,-4.052857 h -1.65081 C 17.2381,10.428635 17.2381,9.60323 17.2381,9.60323 V 4.1252592 c 0,-0.6231036 -0.696627,-1.1252591 -1.363846,-1.1252591 h -1.530036 c 0,0 -0.67059,0.2103119 -0.771303,0.7611374 -0.722668,4.2503798 -0.227458,7.9710465 2.493184,10.7203545 z"
           id="path10" />
      </g>
    </g>
  </g>
</svg>
