<?xml version="1.0" encoding="UTF-8" standalone="no"?>
<!-- Created with Inkscape (http://www.inkscape.org/) -->

<svg
   width="64.0px"
   height="64.0px"
   viewBox="0 0 64.0 64.0"
   version="1.1"
   id="SVGRoot"
   inkscape:version="1.1.1 (3bf5ae0d25, 2021-09-20)"
   sodipodi:docname="etr.svg"
   xmlns:inkscape="http://www.inkscape.org/namespaces/inkscape"
   xmlns:sodipodi="http://sodipodi.sourceforge.net/DTD/sodipodi-0.dtd"
   xmlns:xlink="http://www.w3.org/1999/xlink"
   xmlns="http://www.w3.org/2000/svg"
   xmlns:svg="http://www.w3.org/2000/svg"
   xmlns:rdf="http://www.w3.org/1999/02/22-rdf-syntax-ns#"
   xmlns:cc="http://creativecommons.org/ns#"
   xmlns:dc="http://purl.org/dc/elements/1.1/">
  <defs
     id="defs31">
    <linearGradient
       x1="108.53113"
       y1="192.81239"
       x2="108.53113"
       y2="53.398727"
       id="linearGradient2542"
       xlink:href="#linearGradient4129"
       gradientUnits="userSpaceOnUse"
       gradientTransform="matrix(0.27763583,0,0,0.27770392,3.5913858,4.0740637)" />
    <linearGradient
       id="linearGradient4129">
      <stop
         style="stop-color:#ffffff;stop-opacity:1"
         offset="0"
         id="stop4131" />
      <stop
         style="stop-color:#ffffff;stop-opacity:0"
         offset="1"
         id="stop4133" />
    </linearGradient>
    <linearGradient
       x1="88.097565"
       y1="68.650604"
       x2="88.097565"
       y2="77.480812"
       id="linearGradient2544"
       xlink:href="#linearGradient5159"
       gradientUnits="userSpaceOnUse"
       gradientTransform="matrix(-1.2589782,-2.1363779,2.1358543,-1.2592868,2.2140142,302.91592)" />
    <linearGradient
       id="linearGradient5159">
      <stop
         style="stop-color:#ffffff;stop-opacity:1"
         offset="0"
         id="stop5161" />
      <stop
         style="stop-color:#2a7fff;stop-opacity:0"
         offset="1"
         id="stop5163" />
    </linearGradient>
    <linearGradient
       x1="79.428566"
       y1="70.612816"
       x2="79.428566"
       y2="129.2305"
       id="linearGradient2546"
       xlink:href="#linearGradient8084"
       gradientUnits="userSpaceOnUse"
       gradientTransform="matrix(0.28316745,0,0,0.27925802,3.9895771,4.851823)" />
    <linearGradient
       id="linearGradient8084">
      <stop
         style="stop-color:#729fcf;stop-opacity:1"
         offset="0"
         id="stop8086" />
      <stop
         style="stop-color:#5a7ea4;stop-opacity:1"
         offset="1"
         id="stop8088" />
    </linearGradient>
    <linearGradient
       x1="84.634148"
       y1="64.585365"
       x2="84.68293"
       y2="66.780487"
       id="linearGradient2548"
       xlink:href="#linearGradient4129"
       gradientUnits="userSpaceOnUse"
       gradientTransform="matrix(2.4792944,0,0,2.4799021,-185.76339,-132.43058)" />
  </defs>
  <sodipodi:namedview
     id="base"
     pagecolor="#ffffff"
     bordercolor="#666666"
     borderopacity="1.0"
     inkscape:pageopacity="0.0"
     inkscape:pageshadow="2"
     inkscape:zoom="5.6"
     inkscape:cx="4.4642857"
     inkscape:cy="37.142857"
     inkscape:document-units="px"
     inkscape:current-layer="layer1"
     inkscape:pagecheckerboard="0"
     showgrid="true"
     units="px"
     inkscape:window-width="1612"
     inkscape:window-height="866"
     inkscape:window-x="125"
     inkscape:window-y="56"
     inkscape:window-maximized="0">
    <inkscape:grid
       type="xygrid"
       id="grid52" />
  </sodipodi:namedview>
  <metadata
     id="metadata34">
    <rdf:RDF>
      <cc:Work
         rdf:about="">
        <dc:format>image/svg+xml</dc:format>
        <dc:type
           rdf:resource="http://purl.org/dc/dcmitype/StillImage" />
      </cc:Work>
    </rdf:RDF>
  </metadata>
  <g
     inkscape:label="Layer 1"
     inkscape:groupmode="layer"
     id="layer1">
    <g
       id="g371">
      <path
         d="m 61.503147,32.241165 a 29.751537,29.758834 0 1 1 -59.503073,0 29.751537,29.758834 0 1 1 59.503073,0 z"
         style="display:inline;fill:#ff6600;fill-opacity:1;fill-rule:evenodd;stroke:none;stroke-width:3.17994;stroke-miterlimit:4;stroke-dasharray:none;stroke-opacity:1"
         id="path12045" />
      <path
         d="m 57.730373,32.241175 a 25.978781,25.985152 0 1 1 -51.9575616,0 25.978781,25.985152 0 1 1 51.9575616,0 z"
         style="display:inline;opacity:0.452096;fill:none;fill-opacity:1;fill-rule:evenodd;stroke:url(#linearGradient2542);stroke-width:2.58722;stroke-linecap:round;stroke-linejoin:round;stroke-miterlimit:4;stroke-dasharray:none;stroke-opacity:1;marker-start:none"
         id="path12047" />
      <path
         d="m 60.246458,32.241177 a 28.494843,28.501829 0 1 1 -56.9896862,0 28.494843,28.501829 0 1 1 56.9896862,0 z"
         style="display:inline;fill:none;fill-opacity:1;fill-rule:evenodd;stroke:#aa4400;stroke-width:2.5137;stroke-linecap:round;stroke-linejoin:round;stroke-miterlimit:4;stroke-dasharray:none;stroke-opacity:1;marker-start:none"
         id="path12049" />
      <path
         d="M 14.465,7.7026779 C 19.621725,13.15888 27.992586,23.984272 32.765519,35.783855 37.142818,46.605266 45.703616,52.239369 51.319734,54.904159 62.330054,45.661237 65.388931,29.545455 57.849659,16.751942 49.450747,2.499717 31.075285,-2.2477576 16.826576,6.1531962 16.00709,6.6363603 15.220952,7.1561375 14.465,7.7026779 Z"
         style="display:inline;opacity:0.175439;fill:url(#linearGradient2544);fill-opacity:1;fill-rule:evenodd;stroke:none;stroke-width:9.39317;stroke-miterlimit:4;stroke-opacity:1"
         id="path12051" />
      <path
         d="m 10.420352,33.063163 c 0,0 7.277664,-16.274605 29.87675,-4.520716 11.874094,-5.244047 10.341941,-6.329028 10.724993,-4.882377 0.383025,1.446626 -1.532152,6.871513 -0.957607,8.318138 0.574555,1.446626 3.112212,7.475641 1.723684,7.594827 -2.106708,0.18083 -9.767414,-3.254922 -10.341969,-2.531609 -0.574555,0.723313 -19.5348,12.115562 -31.025851,-3.978263 z"
         style="fill:url(#linearGradient2546);fill-opacity:1;fill-rule:evenodd;stroke:none;stroke-width:3.48108;stroke-linecap:butt;stroke-linejoin:miter;stroke-miterlimit:4;stroke-dasharray:none;stroke-opacity:1"
         id="path12053" />
      <path
         d="m 9.1031023,33.237331 c 0,0 7.5386727,-17.768063 31.6993587,-5.022947 12.694591,-5.68629 11.056567,-6.862756 11.466075,-5.294119 0.409499,1.568637 -1.637996,7.450985 -1.023757,9.01963 0.614249,1.568634 3.327264,8.106081 1.842765,8.235328 C 50.83528,40.371291 42.645225,36.64578 42.030967,37.430098 41.468909,38.147783 24.449537,48.551421 12.149239,36.945053 11.00687,35.867119 10.1471,34.720331 9.1031023,33.237331 Z"
         style="fill:none;fill-opacity:1;fill-rule:evenodd;stroke:#142f56;stroke-width:2.4796;stroke-linecap:butt;stroke-linejoin:miter;stroke-miterlimit:4;stroke-dasharray:none;stroke-opacity:1"
         id="path12055" />
      <path
         d="m 11.975455,32.815568 29.025886,0.362923 7.982119,-1.209713 1.209409,-6.290485 -9.070581,4.596895 c -9.213437,-4.326953 -18.58338,-8.065519 -27.453656,0 z"
         style="opacity:0.357143;fill:url(#linearGradient2548);fill-opacity:1;fill-rule:evenodd;stroke:none;stroke-width:0.939317px;stroke-linecap:butt;stroke-linejoin:miter;stroke-opacity:1"
         id="path12057" />
    </g>
  </g>
</svg>
