<?xml version="1.0" encoding="UTF-8" standalone="no"?>
<svg
   xmlns:dc="http://purl.org/dc/elements/1.1/"
   xmlns:cc="http://creativecommons.org/ns#"
   xmlns:rdf="http://www.w3.org/1999/02/22-rdf-syntax-ns#"
   xmlns:svg="http://www.w3.org/2000/svg"
   xmlns="http://www.w3.org/2000/svg"
   xmlns:xlink="http://www.w3.org/1999/xlink"
   xmlns:sodipodi="http://sodipodi.sourceforge.net/DTD/sodipodi-0.dtd"
   xmlns:inkscape="http://www.inkscape.org/namespaces/inkscape"
   width="32.0px"
   height="32.0px"
   viewBox="0 0 32.0 32.0"
   version="1.1"
   id="SVGRoot"
   sodipodi:docname="gambas.svg"
   inkscape:version="1.0.2 (e86c870879, 2021-01-15)">
  <defs
     id="defs90">
    <linearGradient
       inkscape:collect="always"
       xlink:href="#linearGradient3602"
       id="linearGradient3135"
       gradientUnits="userSpaceOnUse"
       gradientTransform="matrix(0.8002348,0,0,0.8002348,-64.467335,-17.815305)"
       x1="221.64285"
       y1="179.13533"
       x2="223.35713"
       y2="157.17104" />
    <linearGradient
       id="linearGradient3602">
      <stop
         style="stop-color:#ff0d00;stop-opacity:1;"
         offset="0"
         id="stop3604" />
      <stop
         id="stop3610"
         offset="0.5"
         style="stop-color:#ff0c00;stop-opacity:1;" />
      <stop
         style="stop-color:#f1d3d3;stop-opacity:1;"
         offset="1"
         id="stop3606" />
    </linearGradient>
    <linearGradient
       inkscape:collect="always"
       xlink:href="#linearGradient3428"
       id="linearGradient3137"
       gradientUnits="userSpaceOnUse"
       x1="203.04065"
       y1="137.41652"
       x2="232.33508"
       y2="137.41652"
       gradientTransform="translate(-6.9939814,-5.6271766)" />
    <linearGradient
       inkscape:collect="always"
       id="linearGradient3428">
      <stop
         style="stop-color:#00ffff;stop-opacity:1;"
         offset="0"
         id="stop3430" />
      <stop
         style="stop-color:#00ffff;stop-opacity:0;"
         offset="1"
         id="stop3432" />
    </linearGradient>
  </defs>
  <sodipodi:namedview
     id="base"
     pagecolor="#ffffff"
     bordercolor="#666666"
     borderopacity="1.0"
     inkscape:pageopacity="0.0"
     inkscape:pageshadow="2"
     inkscape:zoom="7.9195959"
     inkscape:cx="17.61028"
     inkscape:cy="25.430432"
     inkscape:document-units="px"
     inkscape:current-layer="layer1"
     inkscape:document-rotation="0"
     showgrid="true">
    <inkscape:grid
       type="xygrid"
       id="grid99" />
  </sodipodi:namedview>
  <metadata
     id="metadata93">
    <rdf:RDF>
      <cc:Work
         rdf:about="">
        <dc:format>image/svg+xml</dc:format>
        <dc:type
           rdf:resource="http://purl.org/dc/dcmitype/StillImage" />
        <dc:title></dc:title>
      </cc:Work>
    </rdf:RDF>
  </metadata>
  <g
     inkscape:label="Livello 1"
     inkscape:groupmode="layer"
     id="layer1">
    <g
       id="g4454"
       transform="matrix(0.12762005,0,0,0.12762005,0.46367209,0.27316564)">
      <path
         sodipodi:nodetypes="cccc"
         id="path4860"
         d="M 247.11108,138.88965 C 234.65959,112.93246 206.82469,95.307577 121.04995,129.06522 l 2.12668,4.06708 c 22.21138,-11.06111 96.59641,-43.738904 123.93445,5.75735 z"
         style="fill:#000000;fill-rule:evenodd;stroke:none"
         inkscape:connector-curvature="0" />
      <g
         transform="matrix(0.1672889,-0.8480899,0.8480899,0.1672889,-213.54172,618.39735)"
         id="g4504">
        <g
           id="g4506"
           transform="matrix(1.0150594,0,0,1,114.12199,98.756399)">
          <path
             sodipodi:nodetypes="csssssccc"
             id="path4508"
             d="m 608.21429,180.84433 c 0.45333,1.22734 -1.68964,2.08706 -1.60714,3.39285 0.0631,0.99919 4.28993,-2.31584 6.87499,-0.26786 1.38967,1.10095 -1.31648,6.08104 0.44643,5.89286 0.96141,-0.10262 13.07122,0.48056 10.71429,3.03571 -4.67504,5.06822 -18.81135,5.56401 -26.25,4.46429 -7.37213,-1.08989 -20.44643,-14.10714 -20.44643,-14.10714 0,0 8.83929,-9.64286 9.64286,-9.64286 5.46846,2.28166 13.69086,1.5449 20.625,7.23215 z"
             style="fill:#3398c3;fill-opacity:1;fill-rule:evenodd;stroke:#000000;stroke-width:2;stroke-linecap:butt;stroke-linejoin:miter;stroke-miterlimit:4;stroke-dasharray:none;stroke-opacity:1"
             inkscape:connector-curvature="0" />
          <path
             sodipodi:nodetypes="csssssssccc"
             id="path4510"
             d="m 575.71429,150.57647 c -1.47891,-2.41897 42.71436,4.51991 54.24332,27.5 0.69242,1.38017 -13.93595,0.55964 -17.10047,-1.07143 -0.9943,-0.51249 -0.088,-2.0563 -1.07142,-2.58929 -1.6692,-0.90463 -4.24235,1.31254 -6.07143,0.80357 -1.68032,-0.46757 -1.12794,-3.61135 -2.85714,-3.83928 -1.38499,-0.18257 -4.69089,0.32888 -4.97617,1.69643 -0.95796,4.59214 0.24901,10.04697 -2.88098,12.49999 -11.72623,9.19003 -46.45513,4.79602 -50,1e-5 l -10.71428,-25 z"
             style="fill:#3398c3;fill-opacity:1;fill-rule:evenodd;stroke:#000000;stroke-width:2;stroke-linecap:butt;stroke-linejoin:miter;stroke-miterlimit:4;stroke-dasharray:none;stroke-opacity:1"
             inkscape:connector-curvature="0" />
        </g>
        <path
           style="opacity:0.8;fill:#ffffff;fill-opacity:1;fill-rule:evenodd;stroke:none"
           d="m 715.01012,277.54715 c -2.9037,7.17554 -52.05199,0.98397 -51.42857,-1.78572 l 0.35714,4.64286 c 18.63618,6.66887 44.82133,7.0429 51.07143,-2.85714 z"
           id="path4512"
           sodipodi:nodetypes="cccc"
           inkscape:connector-curvature="0" />
        <path
           style="opacity:0.2;fill:#000000;fill-opacity:1;fill-rule:evenodd;stroke:none"
           d="m 691.61726,249.69001 c 12.03433,-0.94776 42.61055,2.70398 58.03572,23.21428 -18.22964,-9.39047 -38.6682,-17.6394 -58.03572,-23.21428 z"
           id="path4514"
           sodipodi:nodetypes="ccc"
           inkscape:connector-curvature="0" />
        <path
           style="opacity:0.8;fill:#ffffff;fill-opacity:1;fill-rule:evenodd;stroke:none"
           d="m 740.36727,293.26143 c -0.56137,0.84355 -19.70601,-1.79643 -21.78572,-5.71428 -0.67584,-1.2732 -3.82553,1.98405 -2.67857,2.85714 8.62652,6.5667 25.08636,2.77938 24.46429,2.85714 z"
           id="path4516"
           sodipodi:nodetypes="cssc"
           inkscape:connector-curvature="0" />
      </g>
      <g
         transform="matrix(0.8644316,0,0,0.8644316,-404.99207,-42.333558)"
         id="g4518">
        <path
           style="fill:#3398c3;fill-opacity:1;fill-rule:evenodd;stroke:#000000;stroke-width:2;stroke-linecap:butt;stroke-linejoin:miter;stroke-miterlimit:4;stroke-dasharray:none;stroke-opacity:1"
           d="m 528.57144,260.21933 c 7.24365,-12.62405 28.10525,-11.01646 38.57143,-7.85715 18.05183,5.4491 20.0441,25.22645 18.21428,25.35715 -14.21129,-2.90177 -29.38948,-6.77044 -40,-6.07143 6.72326,8.3806 15.74104,16.60521 30.00001,25 0,0 -21.72595,12.99212 -30.00001,8.57143 -14.07778,-7.52152 -24.32017,-31.86914 -16.78571,-45 z"
           id="path4520"
           sodipodi:nodetypes="cscccss"
           inkscape:connector-curvature="0" />
        <path
           style="opacity:0.8;fill:#ffffff;fill-opacity:1;fill-rule:evenodd;stroke:none"
           d="m 543.30358,254.77289 c 9.00654,-4.20959 23.83894,-2.63523 35.98215,11.16072 -9.46508,-6.30071 -27.2025,-12.16155 -35.98215,-11.16072 z"
           id="path4522"
           sodipodi:nodetypes="ccc"
           inkscape:connector-curvature="0" />
        <path
           style="opacity:0.2;fill:#000000;fill-opacity:1;fill-rule:evenodd;stroke:none"
           d="m 527.14286,278.79075 c 9.48499,16.13303 21.74411,26.16296 40.71429,21.42857 -23.59096,14.00948 -34.15188,0.51111 -40.71429,-21.42857 z"
           id="path4524"
           sodipodi:nodetypes="ccc"
           inkscape:connector-curvature="0" />
      </g>
      <path
         sodipodi:nodetypes="czcczcc"
         id="path4526"
         d="M 79.027891,90.299303 C 41.547416,91.362502 8.5477829,125.72764 11.416987,151.73569 c 2.869213,26.00805 28.434751,41.9462 34.577264,43.53031 9.629379,3.08729 15.652401,-2.73169 10.496672,-11.73157 -3.16981,-4.34519 -8.696026,-19.77543 -1.543633,-29.0202 7.152394,-9.24478 33.740339,-15.70039 37.355798,-13.89266 z"
         style="fill:#3398c3;fill-opacity:1;fill-rule:evenodd;stroke:#000000;stroke-width:1.72886;stroke-linecap:butt;stroke-linejoin:miter;stroke-miterlimit:4;stroke-dasharray:none;stroke-opacity:1"
         inkscape:connector-curvature="0" />
      <path
         sodipodi:nodetypes="cccc"
         id="path4528"
         d="m 234.9343,163.46726 c -8.74117,-27.43004 -33.87045,-48.73585 -123.49022,-27.16784 l 1.54363,4.32215 c 24.35881,-7.29582 102.04892,-29.87305 121.94659,22.84569 z"
         style="fill:#000000;fill-rule:evenodd;stroke:none"
         inkscape:connector-curvature="0" />
      <path
         sodipodi:nodetypes="cczzccccccc"
         id="path4530"
         d="m 179.7496,51.862965 c 9.60954,45.140498 -60.74946,98.765965 -88.990145,89.684775 -14.078945,-5.12548 -26.810787,-18.46444 -21.302067,-41.0605 5.50872,-22.596058 40.975772,-27.3718 54.335702,-22.845688 13.35994,4.526103 32.5436,-11.492394 32.41619,-11.731573 0.19886,2.859177 -0.56981,5.032288 -2.00672,6.869136 l 8.79868,-7.486591 c 0.42232,2.093316 0.0595,3.872576 -0.54027,5.557068 l 9.18459,-9.879217 c 0.58337,2.296665 0.59983,4.366564 0.15437,6.25169 3.14446,-3.109395 5.82694,-7.95845 7.94967,-15.3591 z"
         style="fill:#3398c3;fill-opacity:1;fill-rule:evenodd;stroke:#000000;stroke-width:1.72886;stroke-linecap:butt;stroke-linejoin:miter;stroke-miterlimit:4;stroke-dasharray:none;stroke-opacity:1"
         inkscape:connector-curvature="0" />
      <path
         sodipodi:nodetypes="cscssc"
         id="path4532"
         d="m 89.215831,81.191893 c -11.735653,5.83921 -22.44813,13.985198 -19.758434,34.268537 1.029451,7.76327 7.984573,19.60555 16.979909,23.00006 -9.330027,-13.61805 -9.166831,-18.69216 -10.496663,-24.69804 -2.345618,-10.59347 7.397183,-24.835804 15.844235,-27.80963 8.638382,-3.041174 4.173044,-7.038341 -2.569047,-4.760927 z"
         style="opacity:0.8;fill:#ffffff;fill-opacity:1;fill-rule:evenodd;stroke:none"
         inkscape:connector-curvature="0" />
      <path
         sodipodi:nodetypes="cscsc"
         id="path4550"
         d="M 61.164507,96.360127 C 61.085887,95.652512 13.098108,118.16457 14.4479,148.5343 c 1.073875,24.16167 34.27913,44.53354 33.618489,41.69566 -1.036558,0.1859 -30.105707,-25.17616 -27.942639,-42.78718 3.540919,-28.82914 40.936204,-51.396321 41.040757,-51.082653 z"
         style="opacity:0.8;fill:#ffffff;fill-opacity:1;fill-rule:evenodd;stroke:none"
         inkscape:connector-curvature="0" />
      <g
         transform="matrix(0.8644316,0,0,0.8644316,-350.11637,-22.645359)"
         id="g4552">
        <path
           style="fill:none;stroke:#000000;stroke-width:2;stroke-linecap:butt;stroke-linejoin:miter;stroke-miterlimit:4;stroke-dasharray:none;stroke-opacity:1"
           d="m 456.58895,142.71982 c 0.96874,21.34672 9.16115,39.89434 34.34519,50.50762 l 0.50507,0.50508"
           id="path4554"
           sodipodi:nodetypes="ccc"
           inkscape:connector-curvature="0" />
        <path
           style="fill:none;stroke:#000000;stroke-width:2;stroke-linecap:butt;stroke-linejoin:miter;stroke-miterlimit:4;stroke-dasharray:none;stroke-opacity:1"
           d="m 434.87067,159.89241 c 4.74203,19.72056 14.88055,33.0875 44.44671,38.3858"
           id="path4556"
           sodipodi:nodetypes="cc"
           inkscape:connector-curvature="0" />
        <path
           style="fill:none;stroke:#000000;stroke-width:2;stroke-linecap:butt;stroke-linejoin:miter;stroke-miterlimit:4;stroke-dasharray:none;stroke-opacity:1"
           d="m 418.97871,190.25826 c 10.88905,12.1761 21.6539,19.4764 48.59936,15.59609"
           id="path4558"
           sodipodi:nodetypes="cc"
           inkscape:connector-curvature="0" />
        <path
           style="fill:none;stroke:#000000;stroke-width:2;stroke-linecap:butt;stroke-linejoin:miter;stroke-miterlimit:4;stroke-dasharray:none;stroke-opacity:1"
           d="m 423.5244,219.84855 c 13.43052,3.50422 28.46005,3.44529 40.70197,-5.25997"
           id="path4560"
           sodipodi:nodetypes="cc"
           inkscape:connector-curvature="0" />
        <path
           style="fill:none;stroke:#000000;stroke-width:2;stroke-linecap:butt;stroke-linejoin:miter;stroke-miterlimit:4;stroke-dasharray:none;stroke-opacity:1"
           d="m 435.58496,235.23543 c 10.34998,-0.97094 20.04392,0.12748 29.08521,-15.23895"
           id="path4562"
           sodipodi:nodetypes="cc"
           inkscape:connector-curvature="0" />
        <path
           style="fill:none;stroke:#000000;stroke-width:2;stroke-linecap:butt;stroke-linejoin:miter;stroke-miterlimit:4;stroke-dasharray:none;stroke-opacity:1"
           d="m 446.48743,245.75537 c 11.78511,1.01015 17.78475,-2.61203 20.14177,-13.72371"
           id="path4564"
           sodipodi:nodetypes="cc"
           inkscape:connector-curvature="0" />
      </g>
      <g
         transform="matrix(0.8644316,0,0,0.8644316,-346.20448,-29.613465)"
         id="g4566">
        <g
           id="g4568"
           style="fill:#00ffff">
          <path
             sodipodi:nodetypes="ccssc"
             id="path4570"
             d="m 475.78185,223.65828 -5.80838,5.3033 -13.13198,-12.12183 c -2.13308,-4.24558 2.54504,-6.67286 4.79822,-5.55584 z"
             style="fill:#3398c3;fill-opacity:1;fill-rule:evenodd;stroke:#000000;stroke-width:1px;stroke-linecap:butt;stroke-linejoin:miter;stroke-opacity:1"
             inkscape:connector-curvature="0" />
          <path
             sodipodi:nodetypes="cszsss"
             id="path4572"
             d="m 469.21586,226.4362 c -0.73465,-3.90418 5.98088,-6.35818 8.46003,-0.50507 0.13866,0.32736 0.96435,11.67253 -0.50508,15.9099 -1.45535,4.19679 -5.52198,5.90751 -7.3236,4.54569 -1.42886,-1.08006 0.29527,-2.80818 0.52282,-5.44666 0.34951,-4.05255 -0.25737,-9.73794 -1.15417,-14.50386 z"
             style="fill:#3398c3;fill-opacity:1;fill-rule:evenodd;stroke:#000000;stroke-width:1px;stroke-linecap:butt;stroke-linejoin:miter;stroke-opacity:1"
             inkscape:connector-curvature="0" />
        </g>
        <g
           id="g4574"
           style="fill:#00ffff">
          <path
             sodipodi:nodetypes="ccssc"
             id="path4576"
             d="m 488.28249,213.43049 -5.68211,6.31346 c 0,0 -16.53023,-8.77703 -16.66752,-8.96511 -1.47467,-2.02019 1.24029,-7.44363 5.3033,-5.93464 0.0668,0.0248 17.04633,8.58629 17.04633,8.58629 z"
             style="fill:#3398c3;fill-opacity:1;fill-rule:evenodd;stroke:#000000;stroke-width:1px;stroke-linecap:butt;stroke-linejoin:miter;stroke-opacity:1"
             inkscape:connector-curvature="0" />
          <path
             sodipodi:nodetypes="csssss"
             id="path4578"
             d="m 481.21142,218.22871 c -1.65196,-1.08274 2.91105,-7.49648 6.56599,-5.55583 2.54049,1.34892 5.97867,9.72861 6.31345,15.40482 0.20744,3.51713 -4.11866,9.21323 -5.55583,8.08122 -1.1339,-0.89314 -1.3237,-5.26141 -2.49859,-9.1749 -1.35093,-4.49989 -2.795,-7.42478 -4.82502,-8.75531 z"
             style="fill:#3398c3;fill-opacity:1;fill-rule:evenodd;stroke:#000000;stroke-width:1px;stroke-linecap:butt;stroke-linejoin:miter;stroke-opacity:1"
             inkscape:connector-curvature="0" />
        </g>
        <g
           id="g4580"
           style="fill:#00ffff">
          <path
             sodipodi:nodetypes="cccss"
             id="path4582"
             d="m 491.81803,193.73251 15.53109,7.44988 -3.03046,6.81853 -17.04632,-7.19734 c -3.17059,-1.33869 0.9917,-8.77583 4.54569,-7.07107 z"
             style="fill:#3398c3;fill-opacity:1;fill-rule:evenodd;stroke:#000000;stroke-width:1px;stroke-linecap:butt;stroke-linejoin:miter;stroke-opacity:1"
             inkscape:connector-curvature="0" />
          <path
             sodipodi:nodetypes="csscc"
             id="path4584"
             d="m 514.04138,203.83404 c -0.17601,0.35201 -5.7262,-2.72498 -7.70242,-3.40926 -2.24713,-0.77809 -5.32053,4.89445 -3.91434,6.81853 2.00447,2.7427 8.29105,3.4004 7.95496,3.6618 z"
             style="fill:#3398c3;fill-opacity:1;fill-rule:evenodd;stroke:#000000;stroke-width:1px;stroke-linecap:butt;stroke-linejoin:miter;stroke-opacity:1"
             inkscape:connector-curvature="0" />
        </g>
        <g
           id="g4586"
           style="fill:#00ffff">
          <path
             sodipodi:nodetypes="csccs"
             id="path4588"
             d="m 477.92842,203.58151 c -1.34765,-2.41151 2.29985,-7.05066 6.18719,-5.93465 0.37422,0.10743 15.15229,10.73287 15.15229,10.73287 l -5.55584,6.43972 c 0,0 -15.29235,-10.35882 -15.78364,-11.23794 z"
             style="fill:#3398c3;fill-opacity:1;fill-rule:evenodd;stroke:#000000;stroke-width:1px;stroke-linecap:butt;stroke-linejoin:miter;stroke-opacity:1"
             inkscape:connector-curvature="0" />
          <path
             sodipodi:nodetypes="csssss"
             id="path4590"
             d="m 492.95445,212.42034 c -1.52249,-3.96635 5.32602,-6.26125 7.95495,-2.52538 1.22781,1.74481 2.14697,14.13908 1.64149,15.9099 -1.63367,5.72316 -4.23571,6.3339 -5.3033,5.80838 -0.4388,-0.216 -0.16523,-2.80542 -0.74607,-5.75562 -0.95029,-4.82675 -2.70193,-11.23554 -3.54707,-13.43728 z"
             style="fill:#3398c3;fill-opacity:1;fill-rule:evenodd;stroke:#000000;stroke-width:1px;stroke-linecap:butt;stroke-linejoin:miter;stroke-opacity:1"
             inkscape:connector-curvature="0" />
        </g>
      </g>
      <path
         sodipodi:nodetypes="ccc"
         id="path4624"
         d="m 78.719168,139.2323 c 2.876275,1.37378 5.548518,2.13547 8.798677,4.63088 -4.565201,0.36074 -6.634512,-2.1904 -8.798677,-4.63088 z"
         style="opacity:0.7;fill:#ffffff;fill-opacity:1;fill-rule:evenodd;stroke:none"
         inkscape:connector-curvature="0" />
      <path
         sodipodi:nodetypes="csscc"
         id="path4596"
         d="m 85.253426,149.5078 c 0.204257,-0.14782 8.09663,-22.14537 12.860158,-24.77859 6.143216,-3.39588 11.393726,-2.42396 12.800696,0.41606 4.46617,9.01509 -6.87631,28.04293 -4.28886,28.40781 z"
         style="fill:#3398c3;fill-opacity:1;fill-rule:evenodd;stroke:#000000;stroke-width:1.72886;stroke-linecap:butt;stroke-linejoin:miter;stroke-miterlimit:4;stroke-dasharray:none;stroke-opacity:1"
         inkscape:connector-curvature="0" />
      <path
         sodipodi:nodetypes="cscc"
         id="path4602"
         d="m 97.625278,111.31193 c 0.839657,9.08529 13.463302,22.9467 21.649092,20.00566 5.29608,-1.9028 10.30104,-1.85333 16.25724,-18.00895 -11.7112,4.75479 -27.94479,0.71475 -37.906332,-1.99671 z"
         style="fill:#666666;fill-rule:evenodd;stroke:#000000;stroke-width:1.72886;stroke-linecap:butt;stroke-linejoin:miter;stroke-miterlimit:4;stroke-dasharray:none;stroke-opacity:1"
         inkscape:connector-curvature="0" />
      <path
         sodipodi:nodetypes="cccccccccccc"
         id="path4604"
         d="m 92.200239,104.81146 c 0.928036,2.55354 3.615469,3.81197 5.83577,5.04222 3.717851,1.6725 7.590151,3.02289 11.635481,3.62023 3.91394,0.62671 7.85456,1.13797 11.79994,1.49283 7.05558,0.17368 13.33885,-2.49605 19.83329,-5.00754 0.9577,-0.57119 -0.80835,0.98021 0.84885,0.0924 0.62803,-0.57369 3.12577,-1.97038 3.0484,-1.30614 -4.97992,3.22241 -10.78928,4.82456 -16.47864,6.29749 -4.90447,1.16045 -10.02401,1.13668 -14.96778,0.23701 -5.32745,-0.66124 -10.74051,-1.39941 -15.676694,-3.6298 -2.804914,-1.06158 -5.487759,-2.68799 -7.47041,-4.95253 -0.769669,-1.26956 0.783514,-1.52892 1.591793,-1.88619 z"
         style="fill:#000000;fill-opacity:1;fill-rule:evenodd;stroke:none"
         inkscape:connector-curvature="0" />
      <path
         sodipodi:nodetypes="cccsc"
         id="path4606"
         d="m 101.24275,120.13781 c 2.17457,-3.81772 18.27639,-5.96114 20.17569,2.40668 -3.79017,-6.59628 1.9201,-6.54159 11.26577,-3.70133 -3.32993,8.15989 -7.64822,11.92332 -12.55201,12.62022 -7.51142,1.06748 -14.85533,-5.75896 -18.88945,-11.32557 z"
         style="fill:url(#linearGradient3135);fill-opacity:1;fill-rule:evenodd;stroke:#000000;stroke-width:0.79655px;stroke-linecap:butt;stroke-linejoin:miter;stroke-opacity:1"
         inkscape:connector-curvature="0" />
      <path
         sodipodi:nodetypes="cccc"
         id="path4612"
         d="m 87.766626,145.63717 c 5.555062,-5.35659 11.657842,-5.75231 22.230634,-5.81899 l -2.76753,6.68492 c -14.21242,0.95969 -15.547367,-3.80573 -19.463104,-0.86593 z"
         style="opacity:0.2;fill:#000000;fill-opacity:1;fill-rule:evenodd;stroke:none"
         inkscape:connector-curvature="0" />
      <path
         sodipodi:nodetypes="ccc"
         id="path4614"
         d="M 180.5986,59.426742 C 178.37013,92.898381 147.5758,123.73738 111.44408,140.31284 141.05113,121.3124 171.42017,93.790984 180.5986,59.426742 Z"
         style="opacity:0.2;fill:#000000;fill-opacity:1;fill-rule:evenodd;stroke:none"
         inkscape:connector-curvature="0" />
      <path
         sodipodi:nodetypes="ccc"
         id="path4618"
         d="m 51.860033,154.9773 c 1.665665,2.98316 5.395333,5.6541 9.107409,7.40942 -1.525937,-3.21629 -5.952329,-5.41497 -9.107409,-7.40942 z"
         style="opacity:0.7;fill:#ffffff;fill-opacity:1;fill-rule:evenodd;stroke:none"
         inkscape:connector-curvature="0" />
      <path
         sodipodi:nodetypes="ccc"
         id="path4620"
         d="m 59.73255,148.95716 c 3.371257,1.20817 9.167945,2.76943 11.731564,4.78524 -3.716692,-0.73984 -9.249677,-1.67876 -11.731564,-4.78524 z"
         style="opacity:0.7;fill:#ffffff;fill-opacity:1;fill-rule:evenodd;stroke:none"
         inkscape:connector-curvature="0" />
      <path
         sodipodi:nodetypes="ccc"
         id="path4622"
         d="m 71.772837,142.47392 10.033588,6.79196 c -4.407132,-0.25571 -8.502221,-3.24966 -10.033588,-6.79196 z"
         style="opacity:0.7;fill:#ffffff;fill-opacity:1;fill-rule:evenodd;stroke:none"
         inkscape:connector-curvature="0" />
      <path
         sodipodi:nodetypes="ccc"
         id="path4626"
         d="m 84.893682,151.73568 c 3.866092,4.52888 2.658006,14.45577 2.469802,15.28193 z"
         style="opacity:0.7;fill:#ffffff;fill-opacity:1;fill-rule:evenodd;stroke:none"
         inkscape:connector-curvature="0" />
      <path
         sodipodi:nodetypes="ccc"
         id="path4628"
         d="m 75.014456,155.59476 c 2.781291,4.42437 3.674889,9.70658 4.939613,14.5101 0.960815,-8.24273 -3.648731,-14.73734 -4.939613,-14.5101 z"
         style="opacity:0.7;fill:#ffffff;fill-opacity:1;fill-rule:evenodd;stroke:none"
         inkscape:connector-curvature="0" />
      <g
         transform="matrix(0.7463156,0.4361823,-0.4361823,0.7463156,89.038778,-287.70462)"
         id="g3488">
        <g
           id="g3441">
          <path
             sodipodi:nodetypes="csssssscc"
             id="path4594"
             d="m 304.50438,437.17997 c 0,0 18.01616,-10.21695 26.78572,-10.35714 9.5437,-0.15257 27.64378,3.30218 34.64285,11.78572 3.20433,3.88395 -11.86301,1.31812 -15.35714,1.42857 -2.31174,0.0731 0.2832,6.46602 -1.78571,7.5 -2.40366,1.20128 -6.36598,-4.39229 -8.57143,-2.85714 -1.5853,1.10348 2.6243,5.42668 0.71428,5.71428 -7.81146,1.17619 -24.79841,5.1238 -24.64285,5.35714 z"
             style="fill:#3398c3;fill-opacity:1;fill-rule:evenodd;stroke:#000000;stroke-width:2;stroke-linecap:butt;stroke-linejoin:miter;stroke-miterlimit:4;stroke-dasharray:none;stroke-opacity:1"
             inkscape:connector-curvature="0" />
          <path
             sodipodi:nodetypes="cccccccssc"
             id="path4598"
             d="m 365.93295,457.71568 c -5.51948,-2.752 -11.033,-0.4024 -20.35714,-1.07142 -1.27142,1.09048 -2.17973,2.36252 -2.5,3.92857 l -7.14286,-3.92857 c -1.266,1.02492 -3.58118,-0.29405 -3.57142,2.85714 -3.66518,-0.33397 -3.92217,-1.10818 -4.28572,-2.85714 -0.71277,-4.70111 1.45664,-7.35756 -2.14286,-14.46428 -1.52075,-7.30017 -34.02459,-18.93338 -51.42857,-18.39286 -37.87544,1.17632 -24.15018,38.34474 -9.28571,46.96429 36.33081,21.06736 96.39452,11.14844 100.71428,-13.03573 z"
             style="fill:#3398c3;fill-opacity:1;fill-rule:evenodd;stroke:#000000;stroke-width:2;stroke-linecap:butt;stroke-linejoin:miter;stroke-miterlimit:4;stroke-dasharray:none;stroke-opacity:1"
             inkscape:connector-curvature="0" />
        </g>
        <path
           style="opacity:0.8;fill:#ffffff;fill-opacity:1;fill-rule:evenodd;stroke:none"
           d="m 256.95054,434.92116 c 23.82404,-5.73559 32.6921,-6.33958 55.42507,5.98949 -9.73553,-15.93742 -48.02902,-17.42937 -55.42507,-5.98949 z"
           id="path4608"
           sodipodi:nodetypes="ccc"
           inkscape:connector-curvature="0" />
        <path
           style="opacity:0.8;fill:#ffffff;fill-opacity:1;fill-rule:evenodd;stroke:none"
           d="m 353.07582,434.32284 c 0,0 -22.89231,-8.27931 -31.42857,-2.14286 -1.47638,1.06133 2.63809,5.05478 4.28571,4.28572 5.40132,-2.52117 27.06435,-2.32842 27.14286,-2.14286 z"
           id="path4610"
           sodipodi:nodetypes="cssc"
           inkscape:connector-curvature="0" />
        <path
           style="opacity:0.2;fill:#000000;fill-opacity:1;fill-rule:evenodd;stroke:none"
           d="m 266.81956,470.76482 c 44.05809,14.72714 69.33713,1.10098 96.39653,-7.86266 -4.30855,16.45303 -61.06532,31.19281 -96.39653,7.86266 z"
           id="path4616"
           sodipodi:nodetypes="ccc"
           inkscape:connector-curvature="0" />
      </g>
      <path
         sodipodi:nodetypes="ccc"
         id="path4630"
         d="m 64.826507,164.5478 c 1.927605,3.51315 2.64274,14.47689 0.463102,15.59063 0.494368,-3.38699 -1.131394,-11.4821 -0.463102,-15.59063 z"
         style="opacity:0.7;fill:#ffffff;fill-opacity:1;fill-rule:evenodd;stroke:none"
         inkscape:connector-curvature="0" />
      <g
         transform="matrix(0.8800357,0,0,0.8136863,-146.1756,-24.774727)"
         id="g3981">
        <ellipse
           style="fill:#000000;fill-opacity:1;fill-rule:evenodd;stroke:none"
           id="path3983"
           transform="matrix(1.0229885,0,0,1,61.6135,3.5355339)"
           cx="219.96072"
           cy="130.34544"
           rx="21.970818"
           ry="26.516504" />
        <ellipse
           style="fill:#ffffff;fill-opacity:1;fill-rule:evenodd;stroke:none"
           id="path3985"
           transform="matrix(0.9875095,0,0,1.1194375,65.679887,-19.744789)"
           cx="224.00133"
           cy="139.94189"
           rx="21.970818"
           ry="20.960665" />
        <ellipse
           style="fill:url(#linearGradient3137);fill-opacity:1;fill-rule:evenodd;stroke:none"
           id="path3987"
           transform="matrix(1.0172414,0,0,1.0422535,64.179526,-6.0588701)"
           cx="217.68787"
           cy="137.41652"
           rx="14.647212"
           ry="17.930208" />
        <ellipse
           style="fill:#000000;fill-opacity:1;fill-rule:evenodd;stroke:none"
           id="path3989"
           transform="matrix(1.0789474,0,0,1.0588235,52.381728,-6.7315028)"
           cx="216.17264"
           cy="135.90129"
           rx="9.5964499"
           ry="12.879445" />
        <ellipse
           style="fill:#ffffff;fill-opacity:1;fill-rule:evenodd;stroke:none"
           id="path3991"
           transform="matrix(0.8635422,0.6148578,-0.6148578,0.8635422,180.17025,-105.68258)"
           cx="216.96428"
           cy="118.07647"
           rx="6.25"
           ry="10" />
        <ellipse
           style="fill:#ffffff;fill-opacity:1;fill-rule:evenodd;stroke:none"
           id="path3993"
           transform="matrix(1.1111111,0,0,1.1111111,53.492064,-5.7386551)"
           cx="204.82143"
           cy="141.64789"
           rx="4.8214288"
           ry="3.2142856" />
        <path
           style="fill:#000000;fill-opacity:1;fill-rule:evenodd;stroke:none"
           d="m 273.75,112.8979 c 1.29002,8.2422 -7.207,3.5225 -6.73835,0.38346 0.26013,4.48349 0.44834,4.94384 1.20919,5.5308 2.38372,1.83891 1.03099,0.35538 -0.41274,1.37553 -1.49115,1.05367 -0.75935,1.52543 -4.43971,-0.72896 0.71917,1.66107 1.79997,4.31381 2.54733,4.71738 1.875,-2.1875 8.19142,-10.92107 7.83428,-11.27821 z"
           id="path3995"
           sodipodi:nodetypes="ccszccc"
           inkscape:connector-curvature="0" />
      </g>
      <path
         d="m 2.3379115,52.168753 c 1.7932869,-0.385921 3.6033243,-0.707278 5.4210107,-0.9598 2.6781438,-0.33675 5.2943648,-0.925201 8.0045428,-0.884434 0.414239,0.02364 0.834083,-9.8e-4 1.242718,0.07093 0.483274,0.08504 0.947129,0.257423 1.417503,0.397185 1.756601,0.521939 3.427181,1.174905 5.071877,1.979273 1.509823,0.728897 3.057789,1.383691 4.611226,2.0145 1.38836,0.540955 2.818678,0.803348 4.295613,0.946544 2.238537,0.157754 4.484493,0.157055 6.727422,0.159234 1.623243,-0.04446 3.257021,0.09862 4.875858,-0.07507 0.97855,-0.104991 1.424512,-0.244053 2.403114,-0.473664 3.397501,-0.950058 6.677616,-2.256153 9.964948,-3.523387 1.724274,-0.692284 3.464572,-1.307503 5.112493,-2.173457 0.492483,-0.258791 1.93614,-1.097021 1.454383,-0.81877 -5.67297,3.276564 -6.209292,3.629918 -3.633879,2.025937 1.594964,-1.050435 2.972372,-2.371489 4.236148,-3.792751 0.492694,-0.574333 0.266056,-0.288014 0.684392,-0.855393 l 6.797882,-2.98048 c -0.395059,0.672306 -0.170856,0.342284 -0.679448,0.985384 -1.366126,1.432847 -2.683236,2.92243 -4.340748,4.042048 -4.818786,3.074393 -9.735601,5.993838 -15.1388,7.889276 -3.347304,1.307877 -6.704592,2.63134 -10.18258,3.554163 -2.448743,0.507778 -4.916478,0.49739 -7.410806,0.448708 -2.277223,-0.0123 -4.558761,0.0023 -6.830678,-0.173818 -1.543139,-0.166674 -3.044129,-0.4829 -4.48178,-1.086759 -1.517656,-0.678223 -3.04816,-1.336677 -4.509904,-2.130564 -2.34523,-1.170577 -4.860688,-2.170506 -7.5179911,-2.192575 -2.6970568,0.04231 -5.3126349,0.640035 -7.978014,0.998137 -1.87489917,0.299844 -3.7387265,0.668243 -5.5876406,1.100404 l 5.9711382,-4.490796 z"
         id="path4333"
         style="fill:#000000;fill-opacity:1;fill-rule:evenodd;stroke:none"
         inkscape:connector-curvature="0" />
      <path
         d="m 30.654849,27.859523 c 3.846124,-2.594492 5.927506,-3.958675 9.839634,-4.447089 0.391328,-0.04886 0.782939,-0.13597 1.176985,-0.120106 0.528071,0.02126 1.045754,0.15376 1.568631,0.23064 4.814049,1.034295 9.261521,3.242388 13.929735,4.756564 1.245819,0.404092 2.511379,0.744576 3.767069,1.116864 7.894387,2.269317 15.965809,3.833771 24.054631,5.222184 5.747628,0.768121 11.562425,1.643939 17.381256,1.471446 1.10516,-0.03276 2.2071,-0.136264 3.31065,-0.204396 6.36741,-0.575357 12.4312,-2.747718 18.38345,-4.959504 1.8603,-0.856998 3.78061,-1.595045 5.59481,-2.551468 0.40408,-0.213024 1.5838,-0.911059 1.18579,-0.6869 -1.76107,0.991836 -3.51669,1.993312 -5.27503,2.989968 l 6.77134,-2.637315 c -4.47613,2.626453 -8.73719,5.345828 -13.63687,7.073096 -5.9564,2.117211 -12.01246,4.195827 -18.35843,4.696516 -3.007358,0.169968 -3.618209,0.281278 -6.598759,0.152105 C 89.044342,39.758203 84.383203,38.941882 79.726326,38.30322 71.636371,36.793384 63.52185,35.355574 55.613487,33.036126 50.939149,31.672525 52.693982,32.238335 48.166731,30.708553 44.64613,29.518924 41.157974,28.095316 37.437804,27.661589 c -1.456019,-0.04118 -2.4121,0.0045 -3.82066,0.329761 -2.720048,0.628133 -6.511275,3.094171 4.012386,-2.822625 z"
         id="path4335"
         style="fill:#000000;fill-opacity:1;fill-rule:evenodd;stroke:none"
         inkscape:connector-curvature="0" />
      <path
         sodipodi:nodetypes="ccc"
         id="path4345"
         d="M 99.752563,109.65416 C 111.876,114.15392 141.65313,92.960766 140.28493,90.840058 124.65408,94.623413 113.08116,95.661432 99.752563,109.65416 Z"
         style="fill:#3398c3;fill-opacity:1;fill-rule:evenodd;stroke:none"
         inkscape:connector-curvature="0" />
      <path
         sodipodi:nodetypes="ccc"
         id="path4347"
         d="m 105.53289,107.75549 c 1.59651,-0.0974 19.01927,-11.479941 20.04493,-11.482791 -6.70753,1.623516 -14.32535,5.478221 -20.04493,11.482791 z"
         style="opacity:0.8;fill:#ffffff;fill-opacity:1;fill-rule:evenodd;stroke:none"
         inkscape:connector-curvature="0" />
    </g>
  </g>
</svg>
