<?xml version="1.0" encoding="UTF-8" standalone="no"?>
<svg
   xmlns:dc="http://purl.org/dc/elements/1.1/"
   xmlns:cc="http://creativecommons.org/ns#"
   xmlns:rdf="http://www.w3.org/1999/02/22-rdf-syntax-ns#"
   xmlns:svg="http://www.w3.org/2000/svg"
   xmlns="http://www.w3.org/2000/svg"
   xmlns:xlink="http://www.w3.org/1999/xlink"
   xmlns:sodipodi="http://sodipodi.sourceforge.net/DTD/sodipodi-0.dtd"
   xmlns:inkscape="http://www.inkscape.org/namespaces/inkscape"
   version="1"
   width="32"
   height="32"
   id="svg74"
   sodipodi:docname="gimp.svg"
   inkscape:version="0.92.4 5da689c313, 2019-01-14">
  <metadata
     id="metadata78">
    <rdf:RDF>
      <cc:Work
         rdf:about="">
        <dc:format>image/svg+xml</dc:format>
        <dc:type
           rdf:resource="http://purl.org/dc/dcmitype/StillImage" />
        <dc:title></dc:title>
      </cc:Work>
    </rdf:RDF>
  </metadata>
  <sodipodi:namedview
     pagecolor="#ffffff"
     bordercolor="#666666"
     borderopacity="1"
     objecttolerance="10"
     gridtolerance="10"
     guidetolerance="10"
     inkscape:pageopacity="0"
     inkscape:pageshadow="2"
     inkscape:window-width="640"
     inkscape:window-height="480"
     id="namedview76"
     showgrid="false"
     fit-margin-top="0"
     fit-margin-left="0"
     fit-margin-right="0"
     fit-margin-bottom="0"
     inkscape:zoom="3.4766083"
     inkscape:cx="29.833296"
     inkscape:cy="29.609392"
     inkscape:current-layer="svg74" />
  <defs
     id="defs48">
    <linearGradient
       id="linearGradient4176">
      <stop
         style="stop-color:#6f8181;stop-opacity:1"
         offset="0"
         id="stop2" />
      <stop
         style="stop-color:#b0b8b8;stop-opacity:1"
         offset="1"
         id="stop4" />
    </linearGradient>
    <linearGradient
       id="linearGradient4215">
      <stop
         offset="0"
         style="stop-color:#334545;stop-opacity:1"
         id="stop7" />
      <stop
         offset="1"
         style="stop-color:#172525;stop-opacity:1"
         id="stop9" />
    </linearGradient>
    <linearGradient
       id="linearGradient4209">
      <stop
         offset="0"
         style="stop-color:#cfd5d5;stop-opacity:1"
         id="stop12" />
      <stop
         offset="1"
         style="stop-color:#fcfcfc;stop-opacity:1"
         id="stop14" />
    </linearGradient>
    <linearGradient
       id="linearGradient4349">
      <stop
         style="stop-color:#000000;stop-opacity:1;"
         offset="0"
         id="stop17" />
      <stop
         style="stop-color:#000000;stop-opacity:0;"
         offset="1"
         id="stop19" />
    </linearGradient>
    <linearGradient
       id="linearGradient4267">
      <stop
         style="stop-color:#6c5548;stop-opacity:1"
         offset="0"
         id="stop22" />
      <stop
         style="stop-color:#bb9d71;stop-opacity:1"
         offset="1"
         id="stop24" />
    </linearGradient>
    <radialGradient
       cx="15.415"
       cy="35.356998"
       r="7.579"
       fx="15.415"
       fy="35.356998"
       id="radialGradient6969"
       xlink:href="#linearGradient4215"
       gradientUnits="userSpaceOnUse"
       gradientTransform="matrix(-0.12518413,-0.40673591,0.41411361,-0.11677062,14.804183,35.47873)" />
    <linearGradient
       id="linearGradient6951">
      <stop
         style="stop-color:#ffa92d;stop-opacity:1"
         offset="0"
         id="stop28" />
      <stop
         style="stop-color:#cd7223;stop-opacity:1"
         offset="1"
         id="stop30" />
    </linearGradient>
    <linearGradient
       x1="37.018002"
       y1="19.24"
       x2="30.865"
       y2="14.64"
       id="linearGradient6957"
       xlink:href="#linearGradient6951"
       gradientUnits="userSpaceOnUse"
       gradientTransform="matrix(-0.076568,-0.25990933,0.25990933,-0.076568,20.993821,31.736384)" />
    <linearGradient
       id="linearGradient6482">
      <stop
         style="stop-color:black;stop-opacity:1"
         offset="0"
         id="stop34" />
      <stop
         style="stop-color:black;stop-opacity:0"
         offset="1"
         id="stop36" />
    </linearGradient>
    <linearGradient
       x1="32.349998"
       y1="28.083"
       x2="21.212999"
       y2="30.292999"
       id="linearGradient4351"
       xlink:href="#linearGradient6482"
       gradientUnits="userSpaceOnUse"
       gradientTransform="matrix(0.64922293,0,0,0.69272087,-2.041442,-1.2530541)" />
    <linearGradient
       xlink:href="#linearGradient4267"
       id="linearGradient4273"
       x1="34.712002"
       y1="34.584999"
       x2="5"
       y2="9"
       gradientUnits="userSpaceOnUse"
       gradientTransform="matrix(0.66666667,0,0,0.66666667,3.3492039e-7,-0.66666667)" />
    <radialGradient
       xlink:href="#linearGradient4209"
       id="radialGradient4281"
       cx="22"
       cy="22"
       fx="22"
       fy="22"
       r="5"
       gradientUnits="userSpaceOnUse"
       gradientTransform="matrix(0.66666667,0,0,0.66666667,3.3492039e-7,-0.66666667)" />
    <radialGradient
       xlink:href="#linearGradient4209"
       id="radialGradient4289"
       cx="13.5"
       cy="21.5"
       fx="13.5"
       fy="21.5"
       r="4.5"
       gradientUnits="userSpaceOnUse"
       gradientTransform="matrix(0.66666667,0,0,0.66666667,3.3492039e-7,-0.66666667)" />
    <radialGradient
       xlink:href="#linearGradient4215"
       id="radialGradient4335"
       cx="3.4960001"
       cy="22.823"
       fx="3.4960001"
       fy="22.823"
       r="5.5"
       gradientTransform="matrix(0.66666667,0,0,0.7272728,3.3492039e-7,-2.2424255)"
       gradientUnits="userSpaceOnUse" />
    <linearGradient
       xlink:href="#linearGradient4349"
       id="linearGradient4240"
       x1="15.263"
       y1="18.832001"
       x2="31"
       y2="35"
       gradientUnits="userSpaceOnUse"
       gradientTransform="matrix(0.66666667,0,0,0.66666667,3.3492039e-7,-0.66666667)" />
    <radialGradient
       xlink:href="#linearGradient4215"
       id="radialGradient4282"
       cx="23.5"
       cy="22.5"
       fx="23.5"
       fy="22.5"
       r="2.5"
       gradientUnits="userSpaceOnUse"
       gradientTransform="matrix(0.66666667,0,0,0.66666667,0,-0.66666667)" />
    <radialGradient
       xlink:href="#linearGradient4215"
       id="radialGradient4290"
       cx="14.5"
       cy="21.5"
       fx="14.5"
       fy="21.5"
       r="2.5"
       gradientUnits="userSpaceOnUse"
       gradientTransform="matrix(0.53333334,0,0,0.53333334,2.2666667,2.5333333)" />
    <linearGradient
       xlink:href="#linearGradient4176"
       id="linearGradient4182"
       x1="37.34"
       y1="35.924"
       x2="38.347"
       y2="33.508999"
       gradientUnits="userSpaceOnUse"
       gradientTransform="scale(0.66666667)" />
  </defs>
  <path
     inkscape:connector-curvature="0"
     style="color:#000000;font-style:normal;font-variant:normal;font-weight:normal;font-stretch:normal;font-size:medium;line-height:normal;font-family:sans-serif;text-indent:0;text-align:start;text-decoration:none;text-decoration-line:none;text-decoration-style:solid;text-decoration-color:#000000;letter-spacing:normal;word-spacing:normal;text-transform:none;writing-mode:lr-tb;direction:ltr;baseline-shift:baseline;text-anchor:start;white-space:normal;clip-rule:nonzero;display:inline;overflow:visible;visibility:visible;opacity:1;isolation:auto;mix-blend-mode:normal;color-interpolation:sRGB;color-interpolation-filters:linearRGB;solid-color:#000000;solid-opacity:1;fill:url(#linearGradient4273);fill-opacity:1;fill-rule:evenodd;stroke:none;stroke-width:0.66666645;stroke-linecap:butt;stroke-linejoin:miter;stroke-miterlimit:10;stroke-dasharray:none;stroke-dashoffset:0;stroke-opacity:1;marker:none;color-rendering:auto;image-rendering:auto;shape-rendering:auto;text-rendering:auto;enable-background:accumulate"
     d="m 25.158922,4.6885261 c -0.209706,-0.032068 -0.398107,0.082101 -0.511367,0.2122396 -0.11326,0.130139 -0.191846,0.2914266 -0.260284,0.4947917 -0.118358,0.351699 -0.553022,1.6573813 -2.120398,2.9479166 -1.567377,1.2905374 -4.27026,2.884669 -8.954836,3.001079 C 9.7526087,11.38525 7.5735007,9.09497 6.6666674,6 v 1.83023 l -0.014461,5.140625 0.028921,0.06771 c 0,0 0.2551887,0.547483 -0.01446,1.285157 -0.2696498,0.737673 -1.3330765,1.697791 -3.7094808,2.386719 l -0.2905202,0.08333 0.055211,0.295573 c 0.1318124,0.715812 0.6572242,1.449428 1.432879,2.20052 0.7756547,0.751093 1.8141879,1.510928 3.0235061,2.197917 2.4186366,1.373978 5.5164595,2.459653 8.5262875,2.510417 3.009826,0.05077 5.954667,-0.965709 7.903181,-3.78125 1.948515,-2.815541 2.898797,-7.700633 2.120398,-14.6989958 l -0.0013,-0.00261 v -0.00261 C 25.70206,5.3205755 25.65818,5.1565084 25.579584,5.012745 25.500987,4.8689814 25.368629,4.720594 25.158922,4.6885261 Z"
     id="path50" />
  <path
     inkscape:connector-curvature="0"
     style="opacity:0.2;fill:url(#linearGradient4240);fill-opacity:1;stroke:none;stroke-width:1.33333337;stroke-linecap:round;stroke-linejoin:round;stroke-miterlimit:4;stroke-dasharray:none;stroke-opacity:1"
     d="m 10.957032,11.332031 -4.2968754,4.296875 8.3281254,8.328125 c 0.238834,0.0166 0.478033,0.03765 0.716146,0.04167 3.009827,0.05077 5.955131,-0.965709 7.903645,-3.78125 0.268988,-0.388677 0.517076,-0.821391 0.746094,-1.289063 l -7.463541,-7.463541 -2.901042,2.899739 z"
     id="path52" />
  <path
     inkscape:connector-curvature="0"
     style="color:#000000;display:inline;overflow:visible;visibility:visible;fill:url(#linearGradient4351);fill-opacity:1;fill-rule:evenodd;stroke:none;stroke-width:0.66666645;stroke-linecap:butt;stroke-linejoin:miter;stroke-miterlimit:10;stroke-dasharray:none;stroke-dashoffset:0;stroke-opacity:1;marker:none;marker-start:none;marker-mid:none;marker-end:none"
     d="m 10.666668,19.334664 c 4.375049,0.933675 6.603046,0.06795 7.906999,-1.006368 -0.344302,-0.474521 -0.573666,-0.994963 -0.573666,-0.994963 0,0 1.169008,0.453 1.706996,1.193955 0.536446,0.738834 0.199186,1.194048 0.05879,2.139379 -0.312543,-0.830295 -0.895915,-1.141668 -0.974895,-1.47157 -1.17267,1.729674 -4.094287,1.65782 -8.124227,0.139567 z"
     id="path54" />
  <path
     inkscape:connector-curvature="0"
     style="color:#000000;font-style:normal;font-variant:normal;font-weight:normal;font-stretch:normal;font-size:medium;line-height:normal;font-family:sans-serif;text-indent:0;text-align:start;text-decoration:none;text-decoration-line:none;text-decoration-style:solid;text-decoration-color:#000000;letter-spacing:normal;word-spacing:normal;text-transform:none;writing-mode:lr-tb;direction:ltr;baseline-shift:baseline;text-anchor:start;white-space:normal;clip-rule:nonzero;display:inline;overflow:visible;visibility:visible;opacity:0.2;isolation:auto;mix-blend-mode:normal;color-interpolation:sRGB;color-interpolation-filters:linearRGB;solid-color:#000000;solid-opacity:1;fill:#000000;fill-opacity:1;fill-rule:evenodd;stroke:none;stroke-width:0.66666645;stroke-linecap:butt;stroke-linejoin:miter;stroke-miterlimit:10;stroke-dasharray:none;stroke-dashoffset:0;stroke-opacity:1;marker:none;color-rendering:auto;image-rendering:auto;shape-rendering:auto;text-rendering:auto;enable-background:accumulate"
     d="m 25.994793,9.8958334 c -0.05479,4.3589946 -0.94672,7.5741956 -2.38672,9.6549476 -1.948514,2.815542 -4.893818,3.832017 -7.903645,3.78125 C 12.694601,23.281267 9.5970227,22.195593 7.178386,20.821615 5.9690679,20.134626 4.930603,19.374791 4.1549483,18.623698 3.4981819,17.987729 3.0234215,17.363315 2.8125003,16.752604 l -0.1458333,0.04167 0.054687,0.295573 c 0.1318124,0.715813 0.6579391,1.449429 1.4335939,2.200521 0.7756547,0.751092 1.8141196,1.510928 3.0234378,2.197916 2.4186367,1.373978 5.5162153,2.459653 8.5260423,2.510417 3.009827,0.05077 5.955131,-0.965709 7.903645,-3.78125 1.512187,-2.18506 2.418402,-5.623193 2.38672,-10.3216146 z m -19.3411468,2.4127606 -0.0013,0.66276 0.028645,0.06771 c 0,0 0.043293,0.112531 0.075521,0.278645 0.1005593,-0.55859 -0.075521,-0.945312 -0.075521,-0.945312 l -0.027343,-0.0638 z"
     id="path56" />
  <path
     inkscape:connector-curvature="0"
     d="m 24.645183,23.600291 0.617596,-1.229916 c -2.297554,-1.68089 -6.58679,-3.386562 -6.58679,-3.386562 l -0.675838,0.371524 c 0,0 3.894338,3.454023 6.645032,4.244954 z"
     style="color:#000000;display:inline;overflow:visible;visibility:visible;opacity:1;fill:url(#linearGradient6957);fill-opacity:1;fill-rule:nonzero;stroke:none;stroke-width:1.64030206;stroke-linecap:round;stroke-linejoin:miter;stroke-miterlimit:4;stroke-dasharray:none;stroke-dashoffset:0;stroke-opacity:1;marker:none;marker-start:none;marker-mid:none;marker-end:none"
     id="path58" />
  <path
     inkscape:connector-curvature="0"
     d="m 24.666667,21.333356 -0.322049,0.211791 c -0.298289,0.163273 -0.540291,0.440782 -0.736583,0.761728 -0.224611,0.527609 -0.313308,0.857546 -0.274701,1.373034 L 23.800001,23.6 c 0,0 2.436615,0.699025 3.590081,1.066667 l 0.134926,-0.259926 0.474993,-0.919368 -3.333334,-1.707625 z"
     style="color:#000000;font-style:normal;font-variant:normal;font-weight:normal;font-stretch:normal;font-size:medium;line-height:normal;font-family:sans-serif;text-indent:0;text-align:start;text-decoration:none;text-decoration-line:none;text-decoration-style:solid;text-decoration-color:#000000;letter-spacing:normal;word-spacing:normal;text-transform:none;writing-mode:lr-tb;direction:ltr;baseline-shift:baseline;text-anchor:start;white-space:normal;clip-rule:nonzero;display:inline;overflow:visible;visibility:visible;opacity:1;isolation:auto;mix-blend-mode:normal;color-interpolation:sRGB;color-interpolation-filters:linearRGB;solid-color:#000000;solid-opacity:1;fill:url(#linearGradient4182);fill-opacity:1;fill-rule:nonzero;stroke:none;stroke-width:1.64030206;stroke-linecap:round;stroke-linejoin:miter;stroke-miterlimit:4;stroke-dasharray:none;stroke-dashoffset:0;stroke-opacity:1;marker:none;color-rendering:auto;image-rendering:auto;shape-rendering:auto;text-rendering:auto;enable-background:accumulate"
     id="path60" />
  <path
     inkscape:connector-curvature="0"
     d="m 31.333333,28 c -0.831323,-2.701055 -1.126176,-4.845686 -3.298698,-4.654847 -1.750752,0.153791 -1.87332,2.55489 -0.06418,3.217465 C 29.713231,27.200888 31.333331,28 31.333331,28 Z"
     style="color:#000000;display:inline;overflow:visible;visibility:visible;opacity:1;fill:url(#radialGradient6969);fill-opacity:1;fill-rule:nonzero;stroke:none;stroke-width:0.13333334;stroke-linecap:round;stroke-linejoin:miter;stroke-miterlimit:4;stroke-dasharray:none;stroke-dashoffset:0;stroke-opacity:1;marker:none;marker-start:none;marker-mid:none;marker-end:none"
     id="path62" />
  <path
     inkscape:connector-curvature="0"
     style="color:#000000;font-style:normal;font-variant:normal;font-weight:normal;font-stretch:normal;font-size:medium;line-height:normal;font-family:sans-serif;text-indent:0;text-align:start;text-decoration:none;text-decoration-line:none;text-decoration-style:solid;text-decoration-color:#000000;letter-spacing:normal;word-spacing:normal;text-transform:none;writing-mode:lr-tb;direction:ltr;baseline-shift:baseline;text-anchor:start;white-space:normal;clip-rule:nonzero;display:inline;overflow:visible;visibility:visible;opacity:1;isolation:auto;mix-blend-mode:normal;color-interpolation:sRGB;color-interpolation-filters:linearRGB;solid-color:#000000;solid-opacity:1;fill:url(#radialGradient4289);fill-opacity:1;fill-rule:evenodd;stroke:none;stroke-width:0.66666657;stroke-linecap:butt;stroke-linejoin:miter;stroke-miterlimit:10;stroke-dasharray:none;stroke-dashoffset:0;stroke-opacity:1;marker:none;color-rendering:auto;image-rendering:auto;shape-rendering:auto;text-rendering:auto;enable-background:accumulate"
     d="m 9,10.666667 c -0.7408593,0 -1.4857266,0.245164 -2.0543193,0.750641 -0.5685925,0.505477 -0.9458328,1.276707 -0.9456803,2.249359 -1.525e-4,0.97265 0.3770878,1.743881 0.9456803,2.249358 0.5685927,0.505477 1.31346,0.750641 2.0543193,0.750642 0.7408607,0 1.487011,-0.245165 2.055604,-0.750642 0.568591,-0.505477 0.944549,-1.276708 0.944397,-2.249358 1.52e-4,-0.972652 -0.375806,-1.743882 -0.944397,-2.249359 C 10.487011,10.911831 9.7408607,10.666667 9,10.666667 Z"
     id="path64" />
  <path
     inkscape:connector-curvature="0"
     style="color:#000000;display:inline;overflow:visible;visibility:visible;fill:url(#radialGradient4335);fill-opacity:1;fill-rule:evenodd;stroke:none;stroke-width:0.66666645;stroke-linecap:butt;stroke-linejoin:miter;stroke-miterlimit:10;stroke-dasharray:none;stroke-dashoffset:0;stroke-opacity:1;marker:none;marker-start:none;marker-mid:none;marker-end:none"
     d="m 3.4007586,12.666791 c -0.1626986,-0.0015 -0.3222489,0.01 -0.4773393,0.03454 -0.4135744,0.06558 -0.7964936,0.221854 -1.1266236,0.459338 -1.32051933,0.949931 -1.66829115,3.102815 -0.037212,5.357226 1.6310797,2.254412 3.7890645,2.604314 5.1095843,1.654382 C 8.1896874,19.222345 8.5387427,17.069461 6.9076614,14.81505 5.837267,13.335594 4.5396489,12.676712 3.4007586,12.666788 Z"
     id="path66" />
  <path
     inkscape:connector-curvature="0"
     style="color:#000000;font-style:normal;font-variant:normal;font-weight:normal;font-stretch:normal;font-size:medium;line-height:normal;font-family:sans-serif;text-indent:0;text-align:start;text-decoration:none;text-decoration-line:none;text-decoration-style:solid;text-decoration-color:#000000;letter-spacing:normal;word-spacing:normal;text-transform:none;writing-mode:lr-tb;direction:ltr;baseline-shift:baseline;text-anchor:start;white-space:normal;clip-rule:nonzero;display:inline;overflow:visible;visibility:visible;opacity:1;isolation:auto;mix-blend-mode:normal;color-interpolation:sRGB;color-interpolation-filters:linearRGB;solid-color:#000000;solid-opacity:1;fill:url(#radialGradient4281);fill-opacity:1;fill-rule:evenodd;stroke:none;stroke-width:0.66666645;stroke-linecap:butt;stroke-linejoin:miter;stroke-miterlimit:10;stroke-dasharray:none;stroke-dashoffset:0;stroke-opacity:1;marker:none;color-rendering:auto;image-rendering:auto;shape-rendering:auto;text-rendering:auto;enable-background:accumulate"
     d="m 14.66605,10.666667 c -0.824633,0 -1.653408,0.272629 -2.284374,0.833487 -0.630966,0.560859 -1.048342,1.415587 -1.048342,2.500464 0,1.084875 0.417376,1.938369 1.048342,2.499228 0.630966,0.560858 1.459741,0.833487 2.284374,0.833487 0.824633,0 1.653408,-0.272629 2.284374,-0.833487 0.630966,-0.560859 1.049577,-1.414353 1.049577,-2.499228 0,-1.084877 -0.418611,-1.939605 -1.049577,-2.500464 -0.630966,-0.560858 -1.459741,-0.833487 -2.284374,-0.833487 z"
     id="path68" />
  <path
     inkscape:connector-curvature="0"
     style="color:#000000;font-style:normal;font-variant:normal;font-weight:normal;font-stretch:normal;font-size:medium;line-height:normal;font-family:sans-serif;text-indent:0;text-align:start;text-decoration:none;text-decoration-line:none;text-decoration-style:solid;text-decoration-color:#000000;letter-spacing:normal;word-spacing:normal;text-transform:none;writing-mode:lr-tb;direction:ltr;baseline-shift:baseline;text-anchor:start;white-space:normal;clip-rule:nonzero;display:inline;overflow:visible;visibility:visible;opacity:1;isolation:auto;mix-blend-mode:normal;color-interpolation:sRGB;color-interpolation-filters:linearRGB;solid-color:#000000;solid-opacity:1;fill:url(#radialGradient4282);fill-opacity:1;fill-rule:evenodd;stroke:none;stroke-width:0.71477133;stroke-linecap:butt;stroke-linejoin:miter;stroke-miterlimit:10;stroke-dasharray:none;stroke-dashoffset:0;stroke-opacity:1;marker:none;color-rendering:auto;image-rendering:auto;shape-rendering:auto;text-rendering:auto;enable-background:accumulate"
     d="m 15.666667,12.666667 c -0.408394,0 -0.821259,0.135028 -1.139323,0.417752 C 14.20928,13.367142 14,13.802596 14,14.333333 c 0,0.530737 0.20928,0.966192 0.527344,1.248916 C 14.845408,15.864972 15.258273,16 15.666667,16 c 0.408394,0 0.821258,-0.135028 1.139322,-0.417751 0.318064,-0.282724 0.527344,-0.718179 0.527344,-1.248916 0,-0.530737 -0.20928,-0.966191 -0.527344,-1.248914 -0.318064,-0.282724 -0.730928,-0.417752 -1.139322,-0.417752 z"
     id="path70" />
  <path
     inkscape:connector-curvature="0"
     d="m 10,12.666667 c -0.3267153,0 -0.6570066,0.108022 -0.911458,0.334201 C 8.8340907,13.227047 8.6666667,13.57541 8.6666667,14 c 0,0.424589 0.167424,0.772953 0.4218753,0.999132 0.2544514,0.226179 0.5847427,0.334201 0.911458,0.334201 0.326715,0 0.657007,-0.108022 0.911458,-0.334201 0.254451,-0.226179 0.421875,-0.574543 0.421875,-0.999132 0,-0.42459 -0.167424,-0.772953 -0.421875,-0.999132 C 10.657007,12.774689 10.326715,12.666667 10,12.666667 Z"
     style="color:#000000;font-style:normal;font-variant:normal;font-weight:normal;font-stretch:normal;font-size:medium;line-height:normal;font-family:sans-serif;text-indent:0;text-align:start;text-decoration:none;text-decoration-line:none;text-decoration-style:solid;text-decoration-color:#000000;letter-spacing:normal;word-spacing:normal;text-transform:none;writing-mode:lr-tb;direction:ltr;baseline-shift:baseline;text-anchor:start;white-space:normal;clip-rule:nonzero;display:inline;overflow:visible;visibility:visible;opacity:1;isolation:auto;mix-blend-mode:normal;color-interpolation:sRGB;color-interpolation-filters:linearRGB;solid-color:#000000;solid-opacity:1;fill:url(#radialGradient4290);fill-opacity:1;fill-rule:evenodd;stroke:none;stroke-width:0.71477133;stroke-linecap:butt;stroke-linejoin:miter;stroke-miterlimit:10;stroke-dasharray:none;stroke-dashoffset:0;stroke-opacity:1;marker:none;color-rendering:auto;image-rendering:auto;shape-rendering:auto;text-rendering:auto;enable-background:accumulate"
     id="path72" />
</svg>
