<?xml version="1.0" encoding="UTF-8" standalone="no"?>
<svg height="48" width="48" xmlns="http://www.w3.org/2000/svg" xmlns:xlink="http://www.w3.org/1999/xlink">
  <defs>
    <linearGradient id="a" gradientUnits="userSpaceOnUse" x1="35.61057" x2="19.60457" y1="42.423" y2="4.654">
      <stop offset="0" stop-color="#f8c04a"/>
      <stop offset="1" stop-color="#ffe877"/>
    </linearGradient>
    <linearGradient id="b" gradientUnits="userSpaceOnUse" x1="35.051" x2="22" y1="42.54194" y2="7.99994">
      <stop offset="0" stop-color="#ffdc69"/>
      <stop offset="1" stop-color="#fff"/>
    </linearGradient>
    <linearGradient id="c" gradientUnits="userSpaceOnUse" x1="17" x2="34.519" y1="15" y2="32.519">
      <stop offset="0"/>
      <stop offset="1" stop-opacity="0"/>
    </linearGradient>
  </defs>
  <path d="m24 4c-11.08019 0-20 8.91936-20 19.99902 0 11.07965 8.91981 20.00098 20 20.00098 11.0802 0 20-8.92133 20-20.00098 0-11.07966-8.9198-19.99902-20-19.99902z" fill="url(#a)" stroke-opacity=".550265" stroke-width="2.8"/>
  <path d="m4.0117188 23.498047c-.0040717.166853-.0117188.332131-.0117188.5 0 11.07965 8.91981 20.001953 20 20.001953 11.0802 0 20-8.922303 20-20.001953 0-.167869-.0076-.333147-.01172-.5-.264175 10.846284-9.07564 19.501953-19.98828 19.501953-10.91263 0-19.7241046-8.655669-19.9882812-19.501953z" opacity=".15" stroke-opacity=".550265" stroke-width="2.8"/>
  <path d="m23.984375 7.9765625-.537109 3.1210935-6.035157 8.84375-1.253906-1.132812-5.158203 2.193359 3.380859 3.380859-.216797.316407-1.117187 9.294922 9.982422 9.982421c.321411.015209.645396.023438.970703.023438 9.829617 0 17.954214-7.023265 19.664062-16.34375z" fill="url(#c)" opacity=".2"/>
  <path d="m24 8-13 13h2v13h22v-13h2zm-1 8h2v2c1.130882.000022 2.568937.000069 3 0v2c-.431061.000069-1.869045.000022-3 0v1.984375c.473064.01179.962696.06888 1.466797.287109.442082.191378.879277.543733 1.152344 1.027344.273066.483658.386718 1.055742.386718 1.701172v.001953c-.0017.583433-.06751 1.09342-.277343 1.5625-.209837.469081-.602348.865896-1.03125 1.080078-.551962.275584-1.112838.330232-1.697266.34375v2.011719h-2v-2h-3v-2h3v-1.984375c-.466774-.01224-.949996-.0707-1.447266-.285156-.441699-.190491-.880116-.541855-1.152343-1.025391-.270374-.480243-.381141-1.048906-.38086-1.6875-.0095-.511732-.03899-1.403961.646485-2.095703.53281-.537682 1.280918-.789861 2.333984-.878906zm0 4.064453c-.610917.08404-.872731.225914-.912109.265625-.05651.05703-.079413.161788-.070313.660156v.011719.009766c-.0012.406499.07337.615767.126953.710937.05358.09516.0821.120525.201172.171875.123011.05303.357829.08518.654297.101563zm2 3.939453v1.958985c.409542-.02789.719758-.06501.804688-.107422.071849-.03588.055806-.01386.097656-.107422.04163-.09308.101715-.335148.103515-.748047 0-.408166-.07392-.62136-.128906-.71875-.05499-.09739-.08489-.121798-.205078-.173828-.126036-.054569-.368625-.086592-.671875-.103516z" fill="url(#b)"/>
</svg>