<?xml version="1.0" encoding="UTF-8" standalone="no"?>
<svg
   xmlns:dc="http://purl.org/dc/elements/1.1/"
   xmlns:cc="http://creativecommons.org/ns#"
   xmlns:rdf="http://www.w3.org/1999/02/22-rdf-syntax-ns#"
   xmlns:svg="http://www.w3.org/2000/svg"
   xmlns="http://www.w3.org/2000/svg"
   xmlns:sodipodi="http://sodipodi.sourceforge.net/DTD/sodipodi-0.dtd"
   xmlns:inkscape="http://www.inkscape.org/namespaces/inkscape"
   height="32"
   width="32"
   version="1.1"
   id="svg27"
   sodipodi:docname="homebank.svg"
   inkscape:version="0.92.4 5da689c313, 2019-01-14">
  <metadata
     id="metadata31">
    <rdf:RDF>
      <cc:Work
         rdf:about="">
        <dc:format>image/svg+xml</dc:format>
        <dc:type
           rdf:resource="http://purl.org/dc/dcmitype/StillImage" />
        <dc:title></dc:title>
      </cc:Work>
    </rdf:RDF>
  </metadata>
  <sodipodi:namedview
     pagecolor="#ffffff"
     bordercolor="#666666"
     borderopacity="1"
     objecttolerance="10"
     gridtolerance="10"
     guidetolerance="10"
     inkscape:pageopacity="0"
     inkscape:pageshadow="2"
     inkscape:window-width="640"
     inkscape:window-height="480"
     id="namedview29"
     showgrid="false"
     fit-margin-top="0"
     fit-margin-left="0"
     fit-margin-right="0"
     fit-margin-bottom="0"
     inkscape:zoom="7.5520833"
     inkscape:cx="35.940968"
     inkscape:cy="13.128651"
     inkscape:current-layer="svg27" />
  <defs
     id="defs17">
    <linearGradient
       id="a"
       gradientUnits="userSpaceOnUse"
       x1="35.610569"
       x2="19.60457"
       y1="42.423"
       y2="4.6539998">
      <stop
         offset="0"
         stop-color="#f8c04a"
         id="stop2" />
      <stop
         offset="1"
         stop-color="#ffe877"
         id="stop4" />
    </linearGradient>
    <linearGradient
       id="b"
       gradientUnits="userSpaceOnUse"
       x1="35.050999"
       x2="22"
       y1="42.541939"
       y2="7.9999399">
      <stop
         offset="0"
         stop-color="#ffdc69"
         id="stop7" />
      <stop
         offset="1"
         stop-color="#fff"
         id="stop9" />
    </linearGradient>
    <linearGradient
       id="c"
       gradientUnits="userSpaceOnUse"
       x1="17"
       x2="34.519001"
       y1="15"
       y2="32.519001">
      <stop
         offset="0"
         id="stop12" />
      <stop
         offset="1"
         stop-opacity="0"
         id="stop14" />
    </linearGradient>
  </defs>
  <g
     id="g37"
     transform="matrix(0.75,0,0,0.75,-2,-2)">
    <path
       id="path19"
       d="M 24,4 C 12.91981,4 4,12.91936 4,23.99902 4,35.07867 12.91981,44 24,44 35.0802,44 44,35.07867 44,23.99902 44,12.91936 35.0802,4 24,4 Z"
       style="fill:url(#a);stroke-width:2.79999995;stroke-opacity:0.55026502"
       inkscape:connector-curvature="0" />
    <path
       id="path21"
       d="M 4.0117188,23.498047 C 4.0076471,23.6649 4,23.830178 4,23.998047 4,35.077697 12.91981,44 24,44 35.0802,44 44,35.077697 44,23.998047 44,23.830178 43.9924,23.6649 43.98828,23.498047 43.724105,34.344331 34.91264,43 24,43 13.08737,43 4.2758954,34.344331 4.0117188,23.498047 Z"
       inkscape:connector-curvature="0"
       style="opacity:0.15;stroke-width:2.79999995;stroke-opacity:0.55026502" />
    <path
       id="path23"
       d="M 23.984375,7.9765625 23.447266,11.097656 17.412109,19.941406 16.158203,18.808594 11,21.001953 l 3.380859,3.380859 -0.216797,0.316407 -1.117187,9.294922 9.982422,9.982421 C 23.350708,43.991771 23.674693,44 24,44 33.829617,44 41.954214,36.976735 43.664062,27.65625 Z"
       style="opacity:0.2;fill:url(#c)"
       inkscape:connector-curvature="0" />
    <path
       id="path25"
       d="M 24,8 11,21 h 2 V 34 H 35 V 21 h 2 z m -1,8 h 2 v 2 c 1.130882,2.2e-5 2.568937,6.9e-5 3,0 v 2 c -0.431061,6.9e-5 -1.869045,2.2e-5 -3,0 v 1.984375 c 0.473064,0.01179 0.962696,0.06888 1.466797,0.287109 0.442082,0.191378 0.879277,0.543733 1.152344,1.027344 0.273066,0.483658 0.386718,1.055742 0.386718,1.701172 v 0.002 c -0.0017,0.583433 -0.06751,1.09342 -0.277343,1.5625 -0.209837,0.469081 -0.602348,0.865896 -1.03125,1.080078 C 26.145304,27.920115 25.584428,27.974763 25,27.988281 V 30 h -2 v -2 h -3 v -2 h 3 v -1.984375 c -0.466774,-0.01224 -0.949996,-0.0707 -1.447266,-0.285156 -0.441699,-0.190491 -0.880116,-0.541855 -1.152343,-1.025391 -0.270374,-0.480243 -0.381141,-1.048906 -0.38086,-1.6875 -0.0095,-0.511732 -0.03899,-1.403961 0.646485,-2.095703 C 21.198826,18.384193 21.946934,18.132014 23,18.042969 Z m 0,4.064453 c -0.610917,0.08404 -0.872731,0.225914 -0.912109,0.265625 -0.05651,0.05703 -0.07941,0.161788 -0.07031,0.660156 v 0.01172 0.0098 c -0.0012,0.406499 0.07337,0.615767 0.126953,0.710937 0.05358,0.09516 0.0821,0.120525 0.201172,0.171875 0.123011,0.05303 0.357829,0.08518 0.654297,0.101563 z m 2,3.939453 v 1.958985 c 0.409542,-0.02789 0.719758,-0.06501 0.804688,-0.107422 0.07185,-0.03588 0.05581,-0.01386 0.09766,-0.107422 0.04163,-0.09308 0.101715,-0.335148 0.103515,-0.748047 0,-0.408166 -0.07392,-0.62136 -0.128906,-0.71875 -0.05499,-0.09739 -0.08489,-0.121798 -0.205078,-0.173828 C 25.545839,24.052853 25.30325,24.02083 25,24.003906 Z"
       style="fill:url(#b)"
       inkscape:connector-curvature="0" />
  </g>
</svg>
