<?xml version="1.0" encoding="UTF-8" standalone="no"?>
<svg
   xmlns:dc="http://purl.org/dc/elements/1.1/"
   xmlns:cc="http://creativecommons.org/ns#"
   xmlns:rdf="http://www.w3.org/1999/02/22-rdf-syntax-ns#"
   xmlns:svg="http://www.w3.org/2000/svg"
   xmlns="http://www.w3.org/2000/svg"
   xmlns:sodipodi="http://sodipodi.sourceforge.net/DTD/sodipodi-0.dtd"
   xmlns:inkscape="http://www.inkscape.org/namespaces/inkscape"
   width="32"
   height="32"
   version="1.1"
   id="svg67"
   sodipodi:docname="internet-mail.svg"
   inkscape:version="0.92.4 5da689c313, 2019-01-14">
  <metadata
     id="metadata71">
    <rdf:RDF>
      <cc:Work
         rdf:about="">
        <dc:format>image/svg+xml</dc:format>
        <dc:type
           rdf:resource="http://purl.org/dc/dcmitype/StillImage" />
        <dc:title></dc:title>
      </cc:Work>
    </rdf:RDF>
  </metadata>
  <sodipodi:namedview
     pagecolor="#ffffff"
     bordercolor="#666666"
     borderopacity="1"
     objecttolerance="10"
     gridtolerance="10"
     guidetolerance="10"
     inkscape:pageopacity="0"
     inkscape:pageshadow="2"
     inkscape:window-width="1136"
     inkscape:window-height="766"
     id="namedview69"
     showgrid="false"
     fit-margin-top="0"
     fit-margin-left="0"
     fit-margin-right="0"
     fit-margin-bottom="0"
     inkscape:zoom="4.9166667"
     inkscape:cx="-2.1355932"
     inkscape:cy="24"
     inkscape:window-x="110"
     inkscape:window-y="27"
     inkscape:window-maximized="0"
     inkscape:current-layer="svg67" />
  <defs
     id="defs37">
    <linearGradient
       id="a"
       x1="543.79999"
       x2="503.79999"
       gradientUnits="userSpaceOnUse"
       gradientTransform="matrix(0,1,-1.16667,0,-452.67,-499.8)">
      <stop
         stop-color="#197cf1"
         id="stop2" />
      <stop
         offset="1"
         stop-color="#21c9fb"
         id="stop4" />
    </linearGradient>
    <linearGradient
       id="b"
       y1="547.79999"
       x1="384.57001"
       y2="530.47998"
       x2="394.57001"
       gradientUnits="userSpaceOnUse">
      <stop
         stop-color="#ffffff"
         stop-opacity="0"
         id="stop7" />
      <stop
         offset="1"
         stop-color="#ffffff"
         stop-opacity=".314"
         id="stop9" />
    </linearGradient>
    <linearGradient
       id="c"
       x1="384.57001"
       x2="414.57001"
       gradientUnits="userSpaceOnUse">
      <stop
         stop-opacity=".275"
         id="stop12" />
      <stop
         offset="1"
         stop-color="#ffffff"
         stop-opacity="0"
         id="stop14" />
    </linearGradient>
    <linearGradient
       id="d"
       y1="547.79999"
       x1="432.57001"
       y2="527.79999"
       x2="421.01999"
       gradientUnits="userSpaceOnUse">
      <stop
         stop-opacity=".082"
         id="stop17" />
      <stop
         offset="1"
         stop-opacity="0"
         id="stop19" />
    </linearGradient>
    <linearGradient
       id="e"
       y1="44"
       y2="20"
       x2="0"
       gradientUnits="userSpaceOnUse">
      <stop
         stop-color="#eef1f2"
         id="stop22" />
      <stop
         offset="1"
         stop-color="#f9fafb"
         id="stop24" />
    </linearGradient>
    <linearGradient
       id="f"
       y1="523.79999"
       y2="507.79999"
       gradientUnits="userSpaceOnUse"
       x2="0"
       gradientTransform="translate(0,4)">
      <stop
         stop-color="#7cbaf8"
         id="stop27" />
      <stop
         offset="1"
         stop-color="#f4fcff"
         id="stop29" />
    </linearGradient>
    <linearGradient
       id="g"
       y1="511.79999"
       x1="414.57001"
       y2="519.79999"
       x2="422.57001"
       gradientUnits="userSpaceOnUse">
      <stop
         stop-color="#292c2f"
         id="stop32" />
      <stop
         offset="1"
         stop-opacity="0"
         id="stop34" />
    </linearGradient>
  </defs>
  <g
     transform="matrix(0.66666667,0,0,0.66666667,-256.38,-333.2)"
     id="g65">
    <g
       transform="translate(384.57,499.8)"
       id="g45">
      <path
         style="fill:#c8cfd3;fill-rule:evenodd"
         inkscape:connector-curvature="0"
         d="M 24,8 4,20 24,35 44,20 Z"
         id="path39" />
      <path
         inkscape:connector-curvature="0"
         style="fill:url(#a)"
         d="M 10,4 V 44 H 38 V 12 L 30,4 Z"
         id="path41" />
      <path
         inkscape:connector-curvature="0"
         style="fill:url(#e)"
         d="M 4,20 V 44 H 44 V 20 L 28,32 h -8 z"
         id="path43" />
    </g>
    <g
       style="fill-rule:evenodd"
       id="g53">
      <path
         inkscape:connector-curvature="0"
         style="fill:url(#c)"
         d="m 388.57,543.8 16,-12 h 8 l 16,12 z"
         id="path47" />
      <path
         inkscape:connector-curvature="0"
         style="fill:url(#d)"
         d="m 428.57,543.8 -16,-12 16,-12 z"
         id="path49" />
      <path
         inkscape:connector-curvature="0"
         style="fill:url(#b)"
         d="m 388.57,543.8 16,-12 -16,-12 z"
         id="path51" />
    </g>
    <rect
       style="fill:#d1d3d4"
       width="40"
       x="388.57001"
       y="542.79999"
       height="1"
       id="rect55" />
    <path
       inkscape:connector-curvature="0"
       style="fill:url(#f)"
       d="m 404.57,511.8 c -0.554,0 -1,0.446 -1,1 0,0.554 0.446,1 1,1 0.554,0 1,-0.446 1,-1 0,-0.554 -0.446,-1 -1,-1 m 7,0 -2,2 3,3 -3,3 2,2 5,-5 z m -9.5,6 c -0.831,0 -1.5,0.669 -1.5,1.5 0,0.831 0.669,1.5 1.5,1.5 0.831,0 1.5,-0.669 1.5,-1.5 0,-0.831 -0.669,-1.5 -1.5,-1.5 m 4.5,6 c -1.108,0 -2,0.892 -2,2 0,1.108 0.892,2 2,2 1.108,0 2,-0.892 2,-2 0,-1.108 -0.892,-2 -2,-2"
       id="path57" />
    <g
       style="fill-rule:evenodd"
       id="g63">
      <path
         style="fill:#313437"
         inkscape:connector-curvature="0"
         d="m 422.57,511.8 h -8 v -8 z"
         id="path59" />
      <path
         inkscape:connector-curvature="0"
         style="opacity:0.2;fill:url(#g)"
         d="m 414.57,511.8 h 8 v 8 z"
         id="path61" />
    </g>
  </g>
</svg>
