<?xml version="1.0" encoding="UTF-8" standalone="no"?>
<svg
   xmlns:dc="http://purl.org/dc/elements/1.1/"
   xmlns:cc="http://creativecommons.org/ns#"
   xmlns:rdf="http://www.w3.org/1999/02/22-rdf-syntax-ns#"
   xmlns:svg="http://www.w3.org/2000/svg"
   xmlns="http://www.w3.org/2000/svg"
   xmlns:xlink="http://www.w3.org/1999/xlink"
   xmlns:sodipodi="http://sodipodi.sourceforge.net/DTD/sodipodi-0.dtd"
   xmlns:inkscape="http://www.inkscape.org/namespaces/inkscape"
   width="32.0px"
   height="32.0px"
   viewBox="0 0 32.0 32.0"
   version="1.1"
   id="SVGRoot"
   sodipodi:docname="qtdesigner.svg"
   inkscape:version="1.0.2 (e86c870879, 2021-01-15)">
  <defs
     id="defs59">
    <linearGradient
       id="e"
       y1="-0.88300002"
       x1="-41.259998"
       y2="37.956001"
       x2="-2.994"
       gradientUnits="userSpaceOnUse"
       gradientTransform="translate(-1.01,-1.022)">
      <stop
         stop-color="#66b036"
         id="stop18" />
      <stop
         offset="1"
         stop-color="#239161"
         id="stop20" />
    </linearGradient>
    <linearGradient
       xlink:href="#c"
       id="d"
       y1="9.2679996"
       x1="-28.756001"
       y2="27.436001"
       x2="-10.858"
       gradientUnits="userSpaceOnUse"
       gradientTransform="translate(0,-1.022)" />
    <linearGradient
       id="c"
       y1="9.1780005"
       x1="-14.65"
       y2="17.521999"
       x2="-6.4299998"
       gradientUnits="userSpaceOnUse"
       gradientTransform="translate(1.01,-1.022)">
      <stop
         id="stop12" />
      <stop
         offset="1"
         stop-opacity="0"
         id="stop14" />
    </linearGradient>
    <linearGradient
       inkscape:collect="always"
       xlink:href="#c"
       id="linearGradient96"
       gradientUnits="userSpaceOnUse"
       gradientTransform="translate(1.01,-1.022)"
       x1="-14.65"
       y1="9.1780005"
       x2="-6.4299998"
       y2="17.521999" />
    <linearGradient
       id="b"
       y1="37.956001"
       x1="-2.994"
       y2="-0.88300002"
       x2="-41.259998"
       gradientUnits="userSpaceOnUse"
       gradientTransform="translate(0,-1.022)">
      <stop
         stop-color="#34495e"
         id="stop7" />
      <stop
         offset="1"
         stop-color="#1c7865"
         id="stop9" />
    </linearGradient>
    <linearGradient
       inkscape:collect="always"
       xlink:href="#a"
       id="linearGradient102"
       gradientUnits="userSpaceOnUse"
       gradientTransform="matrix(1.13274,0,0,1.14985,-19.481,18.15)"
       x1="14.556"
       y1="16.333"
       x2="0.333"
       y2="5.6669998" />
    <linearGradient
       id="a"
       y1="16.333"
       x1="14.556"
       y2="5.6669998"
       x2="0.333"
       gradientUnits="userSpaceOnUse"
       gradientTransform="matrix(1.13274,0,0,1.14985,-19.481,18.15)">
      <stop
         stop-color="#197cf1"
         id="stop2" />
      <stop
         offset="1"
         stop-color="#20bcfa"
         id="stop4" />
    </linearGradient>
    <linearGradient
       inkscape:collect="always"
       xlink:href="#a"
       id="linearGradient244"
       gradientUnits="userSpaceOnUse"
       gradientTransform="matrix(1.13274,0,0,1.14985,-19.481,18.15)"
       x1="14.556"
       y1="16.333"
       x2="0.333"
       y2="5.6669998" />
    <linearGradient
       inkscape:collect="always"
       xlink:href="#a"
       id="linearGradient246"
       gradientUnits="userSpaceOnUse"
       gradientTransform="matrix(1.13274,0,0,1.14985,-19.481,18.15)"
       x1="14.556"
       y1="16.333"
       x2="0.333"
       y2="5.6669998" />
  </defs>
  <sodipodi:namedview
     id="base"
     pagecolor="#ffffff"
     bordercolor="#666666"
     borderopacity="1.0"
     inkscape:pageopacity="0.0"
     inkscape:pageshadow="2"
     inkscape:zoom="11.2"
     inkscape:cx="15.387191"
     inkscape:cy="15.473057"
     inkscape:document-units="px"
     inkscape:current-layer="layer1"
     inkscape:document-rotation="0"
     showgrid="true">
    <inkscape:grid
       type="xygrid"
       id="grid68" />
  </sodipodi:namedview>
  <metadata
     id="metadata62">
    <rdf:RDF>
      <cc:Work
         rdf:about="">
        <dc:format>image/svg+xml</dc:format>
        <dc:type
           rdf:resource="http://purl.org/dc/dcmitype/StillImage" />
        <dc:title></dc:title>
      </cc:Work>
    </rdf:RDF>
  </metadata>
  <g
     inkscape:label="Livello 1"
     inkscape:groupmode="layer"
     id="layer1">
    <g
       id="g294">
      <rect
         style="fill:none;stroke-width:4.91766"
         id="rect77"
         width="31.99996"
         height="31.99996"
         x="9.002509e-08"
         y="2.008e-05" />
      <g
         transform="matrix(0.6621125,0,0,0.65225918,30.648628,3.2426827)"
         id="g51">
        <path
           fill="url(#e)"
           stroke-linejoin="bevel"
           stroke-width="2"
           d="m -36.03,-0.883 c -2.894,0 -5.137,2.332 -5.223,5.224 v 33.615 h 33.04 c 2.894,0 5.223,-2.331 5.223,-5.224 V -0.883 Z"
           id="path25"
           style="fill:url(#e)" />
        <g
           fill-rule="evenodd"
           stroke-width="1.014"
           id="g31">
          <path
             opacity="0.2"
             fill="url(#d)"
             d="m -29.17,6.271 -3.02,4.088 2.458,17.375 3.02,2.044 -1.074,2.044 4.332,4.398 13.01,-1.912 c 0.487,-0.085 0.946,-0.297 1.363,-0.603 l -5.54,-8.686 0.794,-9.199 -9.06,-9.199 z"
             id="path27"
             style="fill:url(#d)" />
          <path
             opacity="0.2"
             fill="url(#c)"
             d="m -12.06,7.293 -3.02,20.442 6.751,6.853 c 1.063,-0.939 2.311,-3.634 2.311,-5.304 V 13.426 Z"
             id="path29"
             style="fill:url(#linearGradient96)" />
        </g>
        <g
           stroke-linejoin="bevel"
           stroke-width="2"
           id="g37">
          <path
             fill="#ffffff"
             d="m -27.16,5.249 c -4.03,0 -7.05,2.044 -7.05,11.754 0,8.01 2.149,10.798 5.086,11.53 0.524,6.17 6.997,4.312 6.997,4.312 v -2.044 c 0,0 -2.611,0.88 -2.975,-2.29 2.888,-0.769 4.989,-3.586 4.989,-11.508 0,-9.71 -3.02,-11.754 -7.05,-11.754 m 0,2.044 c 2.01,0 3.02,1.689 3.02,9.71 0,8.02 -1.01,9.71 -3.02,9.71 -2.01,0 -3.02,-1.689 -3.02,-9.71 0,-8.02 1.01,-9.71 3.02,-9.71"
             id="path33" />
          <path
             fill="url(#b)"
             d="m -2.994,31.71 c 0,2.894 -2.329,5.224 -5.223,5.224 h -33.04 v 1.022 h 33.04 c 2.894,0 5.223,-2.331 5.223,-5.224 z"
             id="path35"
             style="fill:url(#b)" />
        </g>
        <path
           fill="#ffffff"
           fill-rule="evenodd"
           stroke-width="1.014"
           d="m -15.08,7.293 h 3.02 v 4.088 h 2.01 v 2.044 h -2.01 v 11.243 c 0,2.044 2.01,0.511 2.01,0.511 v 2.044 c 0,0 -6.04,3.577 -6.04,-2.555 V 13.425 h -1.01 v -2.044 h 1.01 z"
           id="path39" />
        <g
           color="#4d4d4d"
           id="g49">
          <g
             fill="url(#a)"
             id="g45"
             style="fill:url(#linearGradient102)">
            <path
               d="m -2.495,21.603 -13.584,13.789 h -0.004 V 40 h 4.54 V 39.995 L 2.041,26.206 2.039,26.204 2.041,26.202 -2.49,21.603 -2.492,21.605 Z"
               id="path41"
               style="fill:url(#linearGradient244)" />
            <path
               d="m -2.495,21.603 -13.584,13.789 h -0.004 V 40 h 4.54 V 39.995 L 2.041,26.206 2.039,26.204 2.041,26.202 -2.49,21.603 -2.492,21.605 Z m -2.263,3.923 2.934,2.978 -8.595,8.725 v -1.828 h -2.265 v -1.828 z m -9.06,9.197 v 1.828 h 2.265 v 1.828 l -0.465,0.472 h -1.801 l -1.133,-1.15 v -1.828 z"
               id="path43"
               style="fill:url(#linearGradient246)" />
          </g>
          <path
             fill="#0c69cf"
             d="m 1.246,25.419 -13.259,13.465 h -4.071 V 40 h 4.541 V 39.996 L 2.04,26.206 2.038,26.204 2.04,26.202 Z"
             id="path47" />
        </g>
      </g>
    </g>
  </g>
</svg>
