<?xml version="1.0" encoding="UTF-8" standalone="no"?>
<svg
   xmlns:dc="http://purl.org/dc/elements/1.1/"
   xmlns:cc="http://creativecommons.org/ns#"
   xmlns:rdf="http://www.w3.org/1999/02/22-rdf-syntax-ns#"
   xmlns:svg="http://www.w3.org/2000/svg"
   xmlns="http://www.w3.org/2000/svg"
   xmlns:xlink="http://www.w3.org/1999/xlink"
   xmlns:sodipodi="http://sodipodi.sourceforge.net/DTD/sodipodi-0.dtd"
   xmlns:inkscape="http://www.inkscape.org/namespaces/inkscape"
   width="32"
   height="32"
   version="1.1"
   id="svg62"
   sodipodi:docname="smplayer.svg"
   inkscape:version="0.92.4 5da689c313, 2019-01-14">
  <metadata
     id="metadata66">
    <rdf:RDF>
      <cc:Work
         rdf:about="">
        <dc:format>image/svg+xml</dc:format>
        <dc:type
           rdf:resource="http://purl.org/dc/dcmitype/StillImage" />
        <dc:title></dc:title>
      </cc:Work>
    </rdf:RDF>
  </metadata>
  <sodipodi:namedview
     pagecolor="#ffffff"
     bordercolor="#666666"
     borderopacity="1"
     objecttolerance="10"
     gridtolerance="10"
     guidetolerance="10"
     inkscape:pageopacity="0"
     inkscape:pageshadow="2"
     inkscape:window-width="640"
     inkscape:window-height="480"
     id="namedview64"
     showgrid="false"
     fit-margin-top="0"
     fit-margin-left="0"
     fit-margin-right="0"
     fit-margin-bottom="0"
     inkscape:zoom="2.2916667"
     inkscape:cx="81.84828"
     inkscape:cy="21.88891"
     inkscape:current-layer="svg62" />
  <defs
     id="defs32">
    <linearGradient
       spreadMethod="reflect"
       id="a"
       y1="512.78003"
       y2="536.79999"
       x1="424.57001"
       gradientUnits="userSpaceOnUse"
       x2="393.26999"
       gradientTransform="matrix(-1,0,0,1,432.57,-499.8)">
      <stop
         stop-color="#eff0f1"
         id="stop2" />
      <stop
         offset="1"
         stop-color="#bdc3c7"
         id="stop4" />
    </linearGradient>
    <linearGradient
       id="b"
       y1="517.52002"
       x1="411.37"
       y2="502.79999"
       x2="408.57001"
       gradientUnits="userSpaceOnUse">
      <stop
         stop-color="#2f3943"
         id="stop7" />
      <stop
         offset="1"
         stop-color="#808c9b"
         id="stop9" />
    </linearGradient>
    <linearGradient
       xlink:href="#b"
       id="c"
       y1="518.54999"
       x1="389.07001"
       y2="534.90997"
       x2="428.57001"
       gradientUnits="userSpaceOnUse" />
    <linearGradient
       xlink:href="#b"
       id="d"
       y1="546.04999"
       x1="408.85999"
       y2="528.98999"
       x2="406.82999"
       gradientUnits="userSpaceOnUse"
       gradientTransform="translate(0,1)" />
    <linearGradient
       id="e"
       x1="-1.875"
       x2="39"
       gradientUnits="userSpaceOnUse">
      <stop
         stop-color="#197cf1"
         id="stop14" />
      <stop
         offset="1"
         stop-color="#21c9fb"
         id="stop16" />
    </linearGradient>
    <linearGradient
       spreadMethod="reflect"
       xlink:href="#e"
       id="f"
       y1="512.45001"
       x1="395.10001"
       y2="541.27002"
       x2="423.91"
       gradientUnits="userSpaceOnUse" />
    <linearGradient
       xlink:href="#e"
       id="g"
       x1="50"
       x2="9"
       gradientUnits="userSpaceOnUse"
       gradientTransform="translate(384.57,500.8)" />
    <linearGradient
       id="h"
       xlink:href="#a"
       y1="534.41998"
       y2="519.57001"
       x1="-409.69"
       gradientUnits="userSpaceOnUse"
       x2="-403.54001" />
    <linearGradient
       id="i"
       x1="390.57001"
       x2="428.57001"
       gradientUnits="userSpaceOnUse">
      <stop
         stop-color="#292c2f"
         id="stop22" />
      <stop
         offset="1"
         stop-opacity="0"
         id="stop24" />
    </linearGradient>
    <linearGradient
       id="j"
       y1="42"
       x1="36"
       y2="11.45"
       x2="12.558"
       gradientUnits="userSpaceOnUse">
      <stop
         stop-color="#18222a"
         id="stop27" />
      <stop
         offset="1"
         stop-color="#566069"
         id="stop29" />
    </linearGradient>
    <linearGradient
       inkscape:collect="always"
       xlink:href="#a"
       id="linearGradient91"
       gradientUnits="userSpaceOnUse"
       gradientTransform="matrix(-1,0,0,1,432.57,-499.8)"
       x1="424.57001"
       y1="512.78003"
       x2="393.26999"
       y2="536.79999"
       spreadMethod="reflect" />
    <linearGradient
       inkscape:collect="always"
       xlink:href="#b"
       id="linearGradient93"
       gradientUnits="userSpaceOnUse"
       x1="411.37"
       y1="517.52002"
       x2="408.57001"
       y2="502.79999" />
    <linearGradient
       inkscape:collect="always"
       xlink:href="#e"
       id="linearGradient95"
       gradientUnits="userSpaceOnUse"
       x1="-1.875"
       x2="39" />
  </defs>
  <g
     transform="matrix(0.66666667,0,0,0.66666667,-256.38,-333.2)"
     id="g60">
    <g
       style="stroke-width:2.79999995;stroke-opacity:0.55"
       id="g42">
      <path
         style="fill:url(#linearGradient91)"
         inkscape:connector-curvature="0"
         d="M 24,4 C 12.92,4 4,12.92 4,24 4,35.08 12.92,44 24,44 35.08,44 44,35.08 44,24 44,12.92 35.08,4 24,4 m 0,3 c 2.216,0 4,1.784 4,4 0,2.216 -1.784,4 -4,4 -2.216,0 -4,-1.784 -4,-4 0,-2.216 1.784,-4 4,-4 m -11.539,6.506 c 0.768,-0.054 1.562,0.114 2.281,0.529 1.919,1.108 2.571,3.546 1.463,5.465 -1.108,1.919 -3.544,2.573 -5.463,1.465 C 8.823,19.857 8.169,17.419 9.277,15.5 9.97,14.301 11.181,13.595 12.461,13.506 m 23.08,0 c 1.28,0.089 2.491,0.795 3.184,1.994 1.108,1.919 0.454,4.357 -1.465,5.465 -1.919,1.108 -4.355,0.454 -5.463,-1.465 -1.108,-1.919 -0.456,-4.357 1.463,-5.465 0.72,-0.416 1.513,-0.583 2.281,-0.529 m -22.518,13 c 1.28,0.089 2.491,0.795 3.184,1.994 1.108,1.919 0.456,4.357 -1.463,5.465 -1.919,1.108 -4.357,0.454 -5.465,-1.465 -1.108,-1.919 -0.454,-4.357 1.465,-5.465 0.72,-0.416 1.511,-0.583 2.279,-0.529 m 21.957,0 c 0.768,-0.054 1.56,0.114 2.279,0.529 1.919,1.108 2.573,3.546 1.465,5.465 -1.108,1.919 -3.546,2.573 -5.465,1.465 C 31.34,32.857 30.688,30.419 31.796,28.5 32.489,27.301 33.7,26.595 34.98,26.506 M 24.001,33 c 2.216,0 4,1.784 4,4 0,2.216 -1.784,4 -4,4 -2.216,0 -4,-1.784 -4,-4 0,-2.216 1.784,-4 4,-4"
         transform="translate(384.57,499.8)"
         id="path34" />
      <path
         style="fill:url(#j)"
         inkscape:connector-curvature="0"
         d="M 24,8 A 15.999973,15.999973 0 0 0 21.08008,8.277344 C 20.415,8.991 20,9.943 20,11 c 0,2.216 1.784,4 4,4 2.22,0 4,-1.784 4,-4 C 28,9.943 27.585,8.993 26.92,8.279 A 15.999973,15.999973 0 0 0 24,8 m -11.539,5.506 c -0.208,0.014 -0.411,0.051 -0.615,0.098 A 15.999973,15.999973 0 0 0 8.929688,18.683594 C 9.218,19.611 9.832,20.439 10.742,20.965 12.661,22.07 15.1,21.419 16.205,19.5 17.313,17.581 16.661,15.14 14.742,14.04 14.02,13.62 13.229,13.452 12.461,13.506 m 23.078,0 c -0.768,-0.054 -1.562,0.114 -2.279,0.534 -1.92,1.1 -2.573,3.541 -1.465,5.46 1.108,1.919 3.545,2.57 5.465,1.465 0.91,-0.526 1.523,-1.356 1.81,-2.283 A 15.999973,15.999973 0 0 0 36.13281,13.597656 C 35.937,13.554 35.74,13.52 35.539,13.506 m -22.519,13 C 12.254,26.452 11.462,26.62 10.742,27.04 9.831,27.561 9.217,28.391 8.93,29.32 a 15.999973,15.999973 0 0 0 2.929375,5.072578 C 12.806,34.607 13.832,34.491 14.742,33.965 16.661,32.857 17.313,30.419 16.205,28.5 15.513,27.301 14.301,26.595 13.02,26.506 m 21.959,0 c -1.28,0.089 -2.492,0.795 -3.184,1.994 -1.108,1.919 -0.455,4.357 1.465,5.465 0.91,0.529 1.95,0.646 2.9,0.426 a 15.999973,15.999973 0 0 0 2.91031,-5.07459 C 38.782,28.389 38.17,27.561 37.26,27.04 36.538,26.62 35.746,26.452 34.979,26.506 M 24,33 c -2.216,0 -4,1.784 -4,4 0,1.06 0.415,2.01 1.08,2.721 A 15.999973,15.999973 0 0 0 24,40 15.999973,15.999973 0 0 0 26.919922,39.722656 C 27.585,39.01 28,38.06 28,37 28,34.784 26.22,33 24,33"
         transform="translate(384.57,499.8)"
         id="path36" />
      <rect
         style="fill:url(#h)"
         width="14"
         x="-415.57001"
         y="516.79999"
         rx="7"
         height="14"
         transform="scale(-1,1)"
         id="rect38" />
      <path
         style="fill:#bdc3c7"
         inkscape:connector-curvature="0"
         d="m 388.58,523.3 c -0.004,0.167 -0.012,0.332 -0.012,0.5 0,11.08 8.92,20 20,20 11.08,0 20,-8.92 20,-20 0,-0.168 -0.008,-0.333 -0.012,-0.5 -0.264,10.847 -9.08,19.5 -19.988,19.5 -10.912,0 -19.724,-8.653 -19.988,-19.5"
         id="path40" />
    </g>
    <g
       style="color:#000000;stroke-width:3;stroke-linejoin:round"
       id="g58">
      <path
         style="fill:url(#c)"
         inkscape:connector-curvature="0"
         d="m 402.57,511.8 24,24 h -12 l -24,-24 z"
         id="path44" />
      <path
         style="fill:url(#f)"
         inkscape:connector-curvature="0"
         d="m 395.76,511.8 -1.022,1.022 4.334,4.334 2.889,-2.889 -2.466,-2.466 z m 6.976,3.241 -2.889,2.889 4.334,4.334 2.891,-2.889 z m 5.108,5.108 -2.889,2.889 4.334,4.334 2.891,-2.889 z m 5.108,5.108 -2.889,2.889 4.334,4.334 2.891,-2.889 z m 5.108,5.108 -2.889,2.889 2.466,2.466 h 3.735 l 1.022,-1.022 z"
         id="path46" />
      <path
         style="fill:url(#d)"
         inkscape:connector-curvature="0"
         d="m 393.57,535.8 v 8 h 25 l 8,-8 z"
         id="path48" />
      <path
         style="fill:url(#g)"
         inkscape:connector-curvature="0"
         d="m 393.57,537.8 v 4 h 4 v -4 z m 5,0 v 4 h 6 v -4 z m 7,0 v 4 h 6 v -4 z m 7,0 v 4 h 6 v -4 z m 7,0 v 4 h 1 l 4,-4 z"
         id="path50" />
      <path
         style="fill:url(#linearGradient93)"
         inkscape:connector-curvature="0"
         d="m 398.57,503.8 -8,8 h 33 v -8 z"
         id="path52" />
      <path
         style="fill:url(#linearGradient95)"
         inkscape:connector-curvature="0"
         d="m 13,6 h -1 l -4,4 h 5 z m 1,0 v 4 h 6 V 6 Z m 7,0 v 4 h 6 V 6 Z m 7,0 v 4 h 6 V 6 Z m 7,0 v 4 h 4 V 6 Z"
         transform="translate(384.57,499.8)"
         id="path54" />
      <path
         style="opacity:0.2;fill:url(#i)"
         inkscape:connector-curvature="0"
         d="m 423.57,510.57 v 1.225 h -33 l 24,24 h 9.994 c 2.506,-3.341 4.01,-7.484 4.01,-12 0,-5.086 -1.895,-9.703 -5,-13.225"
         id="path56" />
    </g>
  </g>
</svg>
