<?xml version="1.0" encoding="UTF-8" standalone="no"?>
<svg
   width="48"
   height="48"
   version="1.1"
   id="svg43"
   sodipodi:docname="system-update.svg"
   inkscape:version="1.2.1 (9c6d41e410, 2022-07-14)"
   xmlns:inkscape="http://www.inkscape.org/namespaces/inkscape"
   xmlns:sodipodi="http://sodipodi.sourceforge.net/DTD/sodipodi-0.dtd"
   xmlns:xlink="http://www.w3.org/1999/xlink"
   xmlns="http://www.w3.org/2000/svg"
   xmlns:svg="http://www.w3.org/2000/svg">
  <sodipodi:namedview
     id="namedview45"
     pagecolor="#ffffff"
     bordercolor="#000000"
     borderopacity="0.25"
     inkscape:showpageshadow="2"
     inkscape:pageopacity="0.0"
     inkscape:pagecheckerboard="0"
     inkscape:deskcolor="#d1d1d1"
     showgrid="false"
     inkscape:zoom="9.8333333"
     inkscape:cx="24.711864"
     inkscape:cy="21.915254"
     inkscape:current-layer="svg43" />
  <defs
     id="defs23">
    <linearGradient
       id="a"
       y1="543.8"
       y2="503.8"
       x2="0"
       gradientUnits="userSpaceOnUse">
      <stop
         stop-color="#c6cdd1"
         id="stop2" />
      <stop
         offset="1"
         stop-color="#e0e5e7"
         id="stop4" />
    </linearGradient>
    <linearGradient
       id="b"
       y1="13"
       y2="33"
       x2="0"
       gradientUnits="userSpaceOnUse"
       gradientTransform="translate(384.57 499.8)">
      <stop
         stop-color="#f67400"
         id="stop7" />
      <stop
         offset="1"
         stop-color="#fdbc4b"
         id="stop9" />
    </linearGradient>
    <linearGradient
       xlink:href="#b"
       id="c"
       y1="42"
       y2="6"
       gradientUnits="userSpaceOnUse"
       x2="0" />
    <linearGradient
       id="d"
       y1="539.8"
       x1="410.57"
       y2="523.8"
       x2="428.57"
       gradientUnits="userSpaceOnUse">
      <stop
         stop-color="#f67400"
         id="stop13" />
      <stop
         offset="1"
         stop-color="#f67400"
         stop-opacity="0"
         id="stop15" />
    </linearGradient>
    <linearGradient
       id="e"
       y1="520.8"
       x1="402.57"
       y2="536.8"
       x2="418.57"
       gradientUnits="userSpaceOnUse">
      <stop
         stop-color="#292c2f"
         id="stop18" />
      <stop
         offset="1"
         stop-opacity="0"
         id="stop20" />
    </linearGradient>
  </defs>
  <g
     transform="translate(-384.57-499.8)"
     id="g41">
    <g
       stroke-opacity=".55"
       stroke-width="2.8"
       id="g37">
      <rect
         width="40"
         x="388.57"
         y="503.8"
         fill="url(#a)"
         rx="20"
         height="40"
         id="rect25" />
      <path
         fill="url(#b)"
         d="m408.57 512.8l-9 9h5v11h8v-11h5z"
         id="path27" />
      <path
         opacity=".5"
         fill="#808080"
         d="m24 42c9.972 0 18-8.03 18-18 0-9.972-8.03-18-18-18v2c8.864 0 16 7.136 16 16 0 8.864-7.136 16-16 16z"
         transform="translate(384.57 499.8)"
         id="path29" />
      <path
         fill="url(#d)"
         d="m408.57 505.8c-9.972 0-18 8.03-18 18 0 9.972 8.03 18 18 18 9.972 0 18-8.03 18-18 0-9.972-8.03-18-18-18m0 2c8.864 0 16 7.136 16 16 0 8.864-7.136 16-16 16-8.864 0-16-7.136-16-16 0-8.864 7.136-16 16-16"
         id="path31" />
      <path
         fill="url(#c)"
         d="m24 42v-2c-8.864 0-16-7.136-16-16 0-8.864 7.136-16 16-16v-2c-9.972 0-18 8.03-18 18 0 9.972 8.03 18 18 18"
         transform="translate(384.57 499.8)"
         id="path33" />
      <path
         fill="#99a1a7"
         d="m4.01 23.5c-.004.167-.012.332-.012.5 0 11.08 8.92 20 20 20 11.08 0 20-8.92 20-20 0-.168-.008-.333-.012-.5-.264 10.847-9.08 19.5-19.988 19.5-10.912 0-19.724-8.653-19.988-19.5"
         transform="translate(384.57 499.8)"
         id="path35" />
    </g>
    <path
       opacity=".2"
       fill="url(#e)"
       fill-rule="evenodd"
       d="m412.57 521.8v11h-8l10.06 10.06c5.685-1.796 10.248-6.05 12.467-11.533l-9.531-9.531z"
       id="path39" />
  </g>
</svg>
